<svg width="65" height="18" viewBox="0 0 65 18" fill="none" xmlns="http://www.w3.org/2000/svg">
<path fill-rule="evenodd" clip-rule="evenodd" d="M34.9381 4.63495C35.0943 4.80475 36.5003 8.85001 36.6473 9.34943C36.7937 9.8845 37.0005 10.3978 37.263 10.8776C37.75 10.9975 37.796 10.4681 37.943 10.0486C38.7425 7.78126 39.9555 4.47514 40.5619 2.24775C40.9847 1.16901 41.0214 0.879348 40.2587 0.879348C39.496 0.879348 39.5787 1.41872 39.2754 2.1179C39.009 3.44634 37.9797 6.25305 37.603 7.54154C37.603 7.71135 37.603 7.71135 37.41 7.71135C36.7759 5.79359 36.0408 3.44634 35.324 1.54856C35.131 1.179 34.791 1.09909 34.5613 1.92812C34.1753 3.24658 33.6424 4.81474 33.2288 6.09324C33.2288 6.09324 32.7326 7.71135 32.6959 7.79125C32.4331 7.33197 32.2406 6.82934 32.1261 6.303C31.5564 4.77479 31.0602 3.12672 30.5731 1.59851C30.4537 1.30884 30.4537 1.13904 30.1872 0.969243C29.92 0.861651 29.6312 0.834053 29.3509 0.889336C28.5974 1.01918 29.0844 1.67841 29.2407 2.16784C30.1596 4.85469 31.1796 8.08091 32.1996 10.6379C32.2235 10.7013 32.2623 10.7567 32.3122 10.7985C32.362 10.8404 32.4211 10.8672 32.4836 10.8763C32.546 10.8855 32.6095 10.8765 32.6678 10.8505C32.726 10.8244 32.7769 10.7821 32.8153 10.7278C32.9623 10.4182 34.8278 4.63495 34.9381 4.63495Z" fill="#2A2626"/>
<path fill-rule="evenodd" clip-rule="evenodd" d="M0.167099 1.04932C0.129114 1.21571 0.142017 1.39103 0.203857 1.54874C0.360076 2.24792 -0.0993921 10.2186 0.0200697 10.5382C0.392032 10.72 0.809065 10.7622 1.2055 10.6581C1.38928 10.4483 1.31577 10.2485 1.31577 9.91893C1.31577 8.51058 1.42604 7.15217 1.42604 5.70387C1.47199 5.1645 1.50875 4.79493 1.50875 4.46532C1.50875 4.13571 1.50875 4.17566 1.58226 4.09575C1.65578 4.01585 2.85958 6.29318 2.97904 6.54289C3.20878 7.03231 3.65906 7.78144 3.96231 8.36076C4.42177 9.26969 4.65151 8.65042 4.76178 8.44066C5.02827 8.0711 7.08669 4.14569 7.23372 4.06579C7.37156 4.2256 7.37156 8.151 7.37156 8.44066C7.37156 10.5881 7.14183 10.7979 8.39158 10.708C8.77753 10.708 8.81429 10.3784 8.77753 10.0088C8.77753 9.30964 8.77753 8.52057 8.77753 7.82139C8.67645 6.04347 8.60294 4.01585 8.60294 2.24792C8.60294 2.03816 8.67645 1.24909 8.67645 1.12923C8.56395 0.991434 8.41156 0.899498 8.24446 0.868622C8.07737 0.837747 7.90558 0.869781 7.75751 0.959427C7.49102 1.12923 7.41751 1.49879 7.22453 1.7485C6.45262 3.23676 5.41423 4.92478 4.68827 6.33313C4.42177 6.83255 4.42177 6.66275 4.19204 6.33313C3.69582 5.54406 3.05256 4.18565 2.60228 3.39657L1.68334 1.7485C1.55561 1.4621 1.39168 1.19651 1.19631 0.959427C0.939006 0.759661 0.433591 0.919474 0.167099 1.04932Z" fill="#2A2626"/>
<path fill-rule="evenodd" clip-rule="evenodd" d="M48.6572 5.67394C48.9825 5.38549 49.3683 5.18894 49.7804 5.10181C50.1924 5.01467 50.6179 5.03965 51.0189 5.17453C52.2319 5.75385 52.3881 7.70157 51.8551 8.65046C51.6281 9.02026 51.3011 9.30438 50.9193 9.4636C50.5374 9.62283 50.1195 9.64932 49.7232 9.53941C49.3393 9.45706 48.9759 9.28681 48.6572 9.04V5.67394ZM48.6572 4.26559C48.5999 3.17776 48.5999 2.08725 48.6572 0.999417C48.6572 0.549944 48.5102 0.470037 48.1242 0.62985C47.2053 1.04936 47.2053 0.879558 47.334 1.78849C47.4075 2.24795 47.334 7.57172 47.334 8.32084C47.334 9.79911 47.141 10.1387 49.1167 10.758C49.6793 10.8862 50.2599 10.8895 50.8236 10.7677C51.3874 10.6458 51.9227 10.4013 52.3973 10.0488C54.3363 8.32084 53.8033 3.44655 50.2654 3.81612C49.957 3.83426 49.65 3.8743 49.3464 3.93598C49.227 3.97593 48.7767 4.26559 48.7216 4.26559H48.6572Z" fill="#2A2626"/>
<path fill-rule="evenodd" clip-rule="evenodd" d="M21.8615 10.6282C22.0052 10.1074 22.0459 9.55932 21.981 9.02012C21.9433 8.45485 21.9433 7.88737 21.981 7.32211C22.0912 7.32211 22.2107 7.53186 22.4404 7.78157C22.6702 8.03128 24.5632 10.1788 24.8664 10.4185C24.9722 10.5255 25.0998 10.6039 25.2387 10.6473C25.3776 10.6907 25.524 10.6978 25.6659 10.6682C25.9324 10.6682 26.3551 10.6682 26.5021 10.4684C26.5021 10.1788 25.9691 9.7193 25.7394 9.46959C25.5097 9.21989 25.2156 8.90026 24.9491 8.56066C24.3646 8.00154 23.818 7.39734 23.3134 6.75278C23.3134 6.66288 25.3994 4.75512 25.7854 4.39554C25.9324 4.22574 26.0886 4.18578 26.0518 3.93608C25.5789 3.77748 25.0729 3.77748 24.5999 3.93608C24.4161 4.02597 23.1572 5.26452 22.8172 5.59413C22.7069 5.71399 22.0545 6.46312 21.981 6.42316C21.8707 6.04361 21.981 0.879655 21.9074 0.589995C21.8339 0.300334 20.5382 0.759796 20.575 1.25921C20.647 1.61011 20.684 1.96843 20.6853 2.32796V9.46959C20.6853 9.7193 20.6117 10.4684 20.768 10.5883C21.1255 10.6876 21.4986 10.7012 21.8615 10.6282Z" fill="#2A2626"/>
<path fill-rule="evenodd" clip-rule="evenodd" d="M11.9635 7.24207C12.3862 7.12221 13.8013 7.49178 13.8656 7.9013C13.9024 8.34321 13.9024 8.78783 13.8656 9.22974C13.5992 9.59931 11.7705 10.3384 11.164 9.01999C11.0822 8.83269 11.0398 8.62799 11.0398 8.42069C11.0398 8.21339 11.0822 8.00869 11.164 7.82139C11.2522 7.66911 11.369 7.53879 11.5068 7.43896C11.6446 7.33912 11.8002 7.27203 11.9635 7.24207ZM13.9024 6.74266C13.5453 6.48553 13.1459 6.30578 12.7262 6.21328C12.2031 6.15032 11.6738 6.19093 11.164 6.33314C10.7347 6.46676 10.3563 6.74657 10.0842 7.13141C9.81218 7.51625 9.66093 7.98582 9.6527 8.47106C9.64447 8.95629 9.7797 9.4316 10.0385 9.82707C10.2973 10.2226 10.666 10.5173 11.0905 10.6681C11.8173 10.9375 12.6058 10.9375 13.3327 10.6681C13.4889 10.5882 13.7921 10.3784 13.9024 10.3384C14.0127 10.2985 14.0586 10.6281 14.2057 10.708C14.3527 10.7879 15.0419 10.708 15.2349 10.5082C15.4278 10.3085 15.4646 10.3384 15.3451 10.0488C15.1673 9.66659 15.1031 9.23381 15.1613 8.81024V5.83372C15.2094 5.41227 15.1147 4.9862 14.8949 4.63513C14.1689 3.06696 9.79476 3.68624 10.144 5.01468C10.4932 6.34313 11.0629 4.55522 12.9927 4.80493C14.0311 4.92479 13.9208 6.00352 13.9208 6.74266H13.9024Z" fill="#2A2626"/>
<path fill-rule="evenodd" clip-rule="evenodd" d="M58.8865 6.5433H55.7346C55.7768 6.13318 55.949 5.75181 56.2216 5.46457C56.5192 5.18093 56.893 5.00927 57.2876 4.97514C57.4931 4.95669 57.6999 4.98344 57.8957 5.05381C58.0915 5.12417 58.2722 5.23669 58.4271 5.38466C58.583 5.52409 58.706 5.70196 58.7859 5.90349C58.8658 6.10501 58.9003 6.32437 58.8865 6.5433ZM55.6519 7.61205C55.8816 7.49219 59.3276 7.61205 59.9525 7.61205C60.5774 7.61205 60.2925 5.38466 59.153 4.47573C58.6875 4.09849 58.1333 3.87206 57.5544 3.82256C56.9756 3.77307 56.3956 3.90253 55.8816 4.19601C55.3675 4.48949 54.9403 4.93501 54.6492 5.48114C54.3582 6.02727 54.2152 6.65173 54.2367 7.28244C54.2149 7.89501 54.346 8.50258 54.6162 9.0407C54.8864 9.57881 55.2856 10.0274 55.7713 10.3389C56.7914 11.088 59.5298 11.048 59.8698 9.88939C60.2925 8.40113 59.3001 9.23016 58.9509 9.38997C58.6572 9.52082 58.3477 9.60492 58.0319 9.63968C56.0011 9.88939 55.5048 7.94167 55.6519 7.61205Z" fill="#2A2626"/>
<path fill-rule="evenodd" clip-rule="evenodd" d="M41.8591 6.54271C41.8913 6.1161 42.0698 5.7182 42.3591 5.42779C42.6484 5.13737 43.0275 4.97562 43.4213 4.97455C44.2116 4.88466 45.1305 5.63378 44.9743 6.54271H41.8591ZM41.7029 7.54154C41.8959 7.54154 45.4705 7.54154 45.9668 7.54154C46.463 7.54154 46.3803 7.21193 46.3435 6.80241C46.3167 6.24781 46.1577 5.71031 45.8823 5.24254C45.6069 4.77477 45.2244 4.39279 44.7723 4.13401C44.3202 3.87522 43.8141 3.74851 43.3034 3.76629C42.7927 3.78407 42.295 3.94572 41.8591 4.23542C41.3689 4.55018 40.9681 5.00571 40.7006 5.55197C40.4331 6.09822 40.3093 6.71405 40.3429 7.33179C40.3039 7.94159 40.4302 8.55043 40.7062 9.08301C40.9822 9.61559 41.3958 10.0485 41.8959 10.3283C43.1916 11.1973 45.737 10.8277 45.9668 9.83885C45.9668 9.54919 46.1505 8.84002 45.737 9.00983C45.2375 9.31676 44.6938 9.52952 44.1289 9.63909C43.8277 9.68282 43.5216 9.6612 43.2282 9.57547C42.9349 9.48975 42.66 9.34162 42.4197 9.13967C42.0888 8.85001 41.5559 7.98103 41.7029 7.54154Z" fill="#2A2626"/>
<path fill-rule="evenodd" clip-rule="evenodd" d="M62.3424 10.6679C62.5721 10.4182 62.5354 10.2983 62.5354 9.92876V8.92993C62.5354 7.61147 62.3056 5.42403 63.7116 5.09442C64.0148 5.01451 64.0884 5.29419 64.4743 5.21428C64.7019 4.99233 64.8729 4.71018 64.9705 4.39524C64.9705 3.76598 64.0516 3.64612 63.2154 4.05564C62.9489 4.18549 62.7283 4.63496 62.5354 4.67491C62.5354 4.30534 62.6089 4.14553 62.3791 3.81592C62.0846 3.84662 61.7995 3.94538 61.5429 4.10558C61.1661 4.30534 61.0926 4.30534 61.1661 4.80476C61.2397 5.30418 61.1661 8.73016 61.1661 9.5492C61.2029 10.7977 61.2029 10.7578 62.3424 10.6679Z" fill="#2A2626"/>
<path fill-rule="evenodd" clip-rule="evenodd" d="M17.5339 10.6284V10.5485C17.6406 9.53405 17.6683 8.51161 17.6166 7.49209C17.6166 6.70301 17.8004 5.42451 18.5999 5.1748C19.2431 4.9251 19.2799 5.58432 19.7026 5.1748C20.6859 4.05611 19.3626 3.60664 18.5631 3.97621C17.7637 4.34578 17.8739 4.63544 17.6442 4.71534C17.6257 4.55282 17.6257 4.38844 17.6442 4.22592C17.6442 4.01616 17.5615 4.01616 17.488 3.8963C17.1933 3.89369 16.9038 3.98015 16.6517 4.14601C16.275 4.30582 16.1555 4.34578 16.275 4.84519C16.3558 5.61095 16.3804 6.38249 16.3485 7.15249V9.42982C16.4312 10.6684 16.275 10.7583 17.5339 10.6284Z" fill="#2A2626"/>
<path fill-rule="evenodd" clip-rule="evenodd" d="M34.674 11.9573C33.157 12.1607 31.6654 12.546 30.2264 13.106C29.7761 13.3157 29.3074 13.4356 28.8572 13.6454C27.9382 14.0149 27.0744 14.3445 26.1647 14.7241C25.8614 14.8439 23.6927 15.5431 23.316 15.633C21.4781 16.1225 18.7213 16.7018 16.9661 15.8328C16.1299 15.3833 16.0472 16.7817 17.9494 17.2811C19.0618 17.4928 20.2033 17.4383 21.2943 17.1213C22.2132 16.9115 23.316 16.542 24.189 16.2523C25.0619 15.9626 26.0912 15.633 27.0377 15.3434C27.2674 15.2535 27.4512 15.1736 27.7177 15.0937L29.1236 14.6342C29.3901 14.5543 29.5831 14.4344 29.8128 14.3445L31.2648 13.975C31.5313 13.8951 31.7242 13.8152 31.954 13.7253C33.8779 13.2791 35.8403 13.0581 37.8076 13.066C38.2946 13.066 39.0206 13.1959 39.5168 13.2758C40.4357 13.3956 40.2336 12.8663 39.6271 12.5267C38.0501 11.8699 36.3424 11.6736 34.674 11.9573Z" fill="#F9CC46"/>
</svg>
