<svg width="106" height="15" fill="none" xmlns="http://www.w3.org/2000/svg"><path fill-rule="evenodd" clip-rule="evenodd" d="M0 .005h11.91l-.38 3.821-4.402-.602V6.05h4.184l-.265 2.679H7.125v6.26H0V.005zm32.095 8.733h2.753l-1.039-3.34 7.013.71 3.088 8.277 1.11-7.854 19.881 2.011.886 5.976 2.05-5.679 17.16 1.736 1.4 3.765 2.314-3.389 6.705.678L93.832 15H79.41l-.781-2.513h-5.105L72.727 15H59.15l-.907-5.547-1.653 5.541h-3.489L51.45 9.447l-.907 5.547H36.79l-.78-2.513h-5.1l-.8 2.513H13.422V3.336l7.294.738v6.59h3.916l2.189-5.973 6.36.642-1.08 3.405h-.006zM33.59 4.69l-.105-.334-.1.318-6.357-.564.404-1.103 12.546.826.545 1.47-6.933-.615v.002zm-5.969-2.202l.354-.963 11.274.37.46 1.233-12.088-.636v-.004zm.55-1.501l.359-.981h10.016l.452 1.21L28.17.986zM13.42 2.902v-.818l7.296.482v.983l-7.295-.646v-.001zm0-1.162v-.696l7.296.24v.843l-7.295-.384V1.74zm0-1.066v-.67h7.296v.824L13.421.674zm31.715 5.04l.216-1.53 9.17.603.347 1.271.306-1.228 9.268.61.296 2.011-19.61-1.738h.007zm.324-2.288l.187-1.324 8.216.27.411 1.52-8.818-.466h.004zm.292-2.068l.191-1.353h7.273l.415 1.52-7.879-.167zm9.642 2.592l.38-1.518 8.268.27.253 1.716-8.899-.468h-.002zm.59-2.38l.391-1.565h7.26l.254 1.736-7.905-.171zm12.238 6.188l.728-2.02 6.578.432-.693 2.178-6.613-.586v-.004zm1.107-3.075l.649-1.789 12.316.404.782 2.105-6.758-.355-.217-.697-.214.674-6.558-.342zm1.012-2.805l.682-1.873h10.045l.786 2.116-11.513-.24v-.003zm13.21 4.816l.932 2.505-7.071-.622-.724-2.33 6.869.452-.005-.005zm6.038 2.958l1.677-2.445 9.801.644 2.078 3.01-13.551-1.204-.005-.005zm.845-3.862l-1.805-2.288 7.044.235.37.737.334-.713 6.334.207-1.836 2.377-10.436-.55-.005-.005zm-2.805-3.552L85.867.005h7.93L95 2.398l-7.366-.155-.005-.005zm9.362.199L98.13 0h7.636l-1.984 2.585-6.785-.143-.006-.005zm7.305 10.089L106 14.994h-7.7l-1.733-3.25 7.73.78-.001.002z" fill="#fff"/></svg>