<svg width="7" height="12" viewBox="0 0 7 12" xmlns="http://www.w3.org/2000/svg">
    <path d="M1.47478 11.8334C1.59928 11.8338 1.72229 11.8063 1.83477 11.753C1.94725 11.6996 2.04635 11.6217 2.12478 11.525L6.14978 6.52503C6.27235 6.37592 6.33936 6.18888 6.33936 5.99586C6.33936 5.80284 6.27235 5.6158 6.14978 5.46669L1.98312 0.466693C1.84167 0.296512 1.63841 0.189492 1.41805 0.169176C1.1977 0.148859 0.978297 0.216911 0.808116 0.35836C0.637936 0.499808 0.530916 0.703068 0.510599 0.923423C0.490283 1.14378 0.558334 1.36318 0.699783 1.53336L4.42478 6.00003L0.824783 10.4667C0.72288 10.589 0.65815 10.738 0.63825 10.8959C0.618351 11.0539 0.644114 11.2142 0.712494 11.358C0.780874 11.5018 0.889008 11.623 1.0241 11.7072C1.15919 11.7914 1.31559 11.8352 1.47478 11.8334Z"/>
</svg>
