<svg width="37" height="34" viewBox="0 0 37 34" fill="none" xmlns="http://www.w3.org/2000/svg">
<path d="M14.1247 4.69658H11.9616C11.5371 4.69658 11.1859 4.44475 11.129 4.11899H7.18873H4.44539C3.88536 4.11899 3.42969 3.75622 3.42969 3.31037V2.38622C3.42969 1.94036 3.88536 1.57759 4.44539 1.57759H11.129C11.1859 1.25183 11.5371 1 11.9616 1H22.3218H24.6144C25.0389 1 25.3902 1.25183 25.447 1.57759H32.1306C32.6907 1.57759 33.1464 1.94036 33.1464 2.38622V3.31037C33.1464 3.75622 32.6907 4.11899 32.1306 4.11899H25.447C25.3902 4.44475 25.039 4.69658 24.6144 4.69658H22.4514M14.1247 4.69658L15.6869 6.01349M14.1247 4.69658H22.4514M15.6869 6.01349H13.4997C12.7796 6.01349 12.1938 6.47991 12.1938 7.05316V10.4705V12.5729C12.1938 13.1556 12.4777 13.7045 12.9931 14.1183L15.9374 16.482V16.9646H11.6755C11.2491 16.9646 10.8483 17.0968 10.5469 17.3368L9.30111 18.3286C8.9051 18.6439 8.9051 19.1569 9.30111 19.4722L9.71145 19.7989C10.1075 20.1141 10.7519 20.1141 11.148 19.7989L12.0962 19.0439H15.9374M15.6869 6.01349H20.8892M15.9374 19.0439V19.6215C15.9374 20.0674 16.3931 20.4301 16.9531 20.4301H19.6229C20.183 20.4301 20.6387 20.0674 20.6387 19.6215V19.0439M15.9374 19.0439H20.6387M20.6387 19.0439H24.4798L25.4281 19.7989C25.6261 19.9565 25.8863 20.0353 26.1463 20.0353C26.4064 20.0353 26.6666 19.9565 26.8646 19.7989L27.2749 19.4722C27.6709 19.1569 27.6709 18.6439 27.2749 18.3286L26.0292 17.3368C25.7277 17.0968 25.3269 16.9646 24.9005 16.9646H23.9727H20.6387V16.482L23.583 14.1183C24.0984 13.7045 24.3823 13.1556 24.3823 12.5729C24.3823 11.3341 24.3823 8.24309 24.3823 7.05316C24.3823 6.47991 23.7964 6.01349 23.0763 6.01349H20.8892M20.8892 6.01349L22.4514 4.69658M20.5866 16.9646H15.9167" stroke="#BE3D3D" stroke-width="0.8"/>
<path d="M5.02959 27.2624C5.02959 27.3385 4.96788 27.4002 4.89175 27.4002C4.81562 27.4002 4.75391 27.3385 4.75391 27.2624C4.75391 27.1862 4.81562 27.1245 4.89175 27.1245C4.96787 27.1245 5.02959 27.1862 5.02959 27.2624Z" stroke="#BE3D3D"/>
<path d="M2.90068 29.8126C2.90068 29.8888 2.83897 29.9505 2.76284 29.9505C2.68671 29.9505 2.625 29.8888 2.625 29.8126C2.625 29.7365 2.68671 29.6748 2.76284 29.6748C2.83897 29.6748 2.90068 29.7365 2.90068 29.8126Z" stroke="#BE3D3D"/>
<path d="M0.775682 32.3634C0.775682 32.4396 0.713968 32.5013 0.637841 32.5013C0.561714 32.5013 0.5 32.4396 0.5 32.3634C0.5 32.2873 0.561714 32.2256 0.637841 32.2256C0.713968 32.2256 0.775682 32.2873 0.775682 32.3634Z" stroke="#BE3D3D"/>
<path d="M11.8304 27.2624C11.8304 27.3385 11.7687 27.4002 11.6925 27.4002C11.6164 27.4002 11.5547 27.3385 11.5547 27.2624C11.5547 27.1862 11.6164 27.1245 11.6925 27.1245C11.7687 27.1245 11.8304 27.1862 11.8304 27.2624Z" stroke="#BE3D3D"/>
<path d="M9.70537 29.8126C9.70537 29.8888 9.64366 29.9505 9.56753 29.9505C9.4914 29.9505 9.42969 29.8888 9.42969 29.8126C9.42969 29.7365 9.4914 29.6748 9.56753 29.6748C9.64366 29.6748 9.70537 29.7365 9.70537 29.8126Z" stroke="#BE3D3D"/>
<path d="M7.58037 32.3634C7.58037 32.4396 7.51866 32.5013 7.44253 32.5013C7.3664 32.5013 7.30469 32.4396 7.30469 32.3634C7.30469 32.2873 7.3664 32.2256 7.44253 32.2256C7.51866 32.2256 7.58037 32.2873 7.58037 32.3634Z" stroke="#BE3D3D"/>
<path d="M16.5101 29.8126C16.5101 29.8888 16.4483 29.9505 16.3722 29.9505C16.2961 29.9505 16.2344 29.8888 16.2344 29.8126C16.2344 29.7365 16.2961 29.6748 16.3722 29.6748C16.4483 29.6748 16.5101 29.7365 16.5101 29.8126Z" stroke="#BE3D3D"/>
<path d="M14.3812 32.3634C14.3812 32.4396 14.3194 32.5013 14.2433 32.5013C14.1672 32.5013 14.1055 32.4396 14.1055 32.3634C14.1055 32.2873 14.1672 32.2256 14.2433 32.2256C14.3194 32.2256 14.3812 32.2873 14.3812 32.3634Z" stroke="#BE3D3D"/>
<path d="M32.2366 27.2624C32.2366 27.3385 32.1749 27.4002 32.0988 27.4002C32.0226 27.4002 31.9609 27.3385 31.9609 27.2624C31.9609 27.1862 32.0227 27.1245 32.0988 27.1245C32.1749 27.1245 32.2366 27.1862 32.2366 27.2624Z" stroke="#BE3D3D"/>
<path d="M34.3616 29.8126C34.3616 29.8888 34.2999 29.9505 34.2238 29.9505C34.1477 29.9505 34.0859 29.8888 34.0859 29.8126C34.0859 29.7365 34.1477 29.6748 34.2238 29.6748C34.2999 29.6748 34.3616 29.7365 34.3616 29.8126Z" stroke="#BE3D3D"/>
<path d="M36.4866 32.3634C36.4866 32.4396 36.4249 32.5013 36.3488 32.5013C36.2727 32.5013 36.2109 32.4396 36.2109 32.3634C36.2109 32.2873 36.2727 32.2256 36.3488 32.2256C36.4249 32.2256 36.4866 32.2873 36.4866 32.3634Z" stroke="#BE3D3D"/>
<path d="M25.4358 27.2624C25.4358 27.3385 25.3741 27.4002 25.298 27.4002C25.2219 27.4002 25.1602 27.3385 25.1602 27.2624C25.1602 27.1862 25.2219 27.1245 25.298 27.1245C25.3741 27.1245 25.4358 27.1862 25.4358 27.2624Z" stroke="#BE3D3D"/>
<path d="M27.5647 29.8126C27.5647 29.8888 27.503 29.9505 27.4269 29.9505C27.3508 29.9505 27.2891 29.8888 27.2891 29.8126C27.2891 29.7365 27.3508 29.6748 27.4269 29.6748C27.503 29.6748 27.5647 29.7365 27.5647 29.8126Z" stroke="#BE3D3D"/>
<path d="M29.6897 32.3634C29.6897 32.4396 29.628 32.5013 29.5519 32.5013C29.4758 32.5013 29.4141 32.4396 29.4141 32.3634C29.4141 32.2873 29.4758 32.2256 29.5519 32.2256C29.628 32.2256 29.6897 32.2873 29.6897 32.3634Z" stroke="#BE3D3D"/>
<path d="M20.7601 29.8126C20.7601 29.8888 20.6983 29.9505 20.6222 29.9505C20.5461 29.9505 20.4844 29.8888 20.4844 29.8126C20.4844 29.7365 20.5461 29.6748 20.6222 29.6748C20.6983 29.6748 20.7601 29.7365 20.7601 29.8126Z" stroke="#BE3D3D"/>
<path d="M22.8851 32.3634C22.8851 32.4396 22.8233 32.5013 22.7472 32.5013C22.6711 32.5013 22.6094 32.4396 22.6094 32.3634C22.6094 32.2873 22.6711 32.2256 22.7472 32.2256C22.8233 32.2256 22.8851 32.2873 22.8851 32.3634Z" stroke="#BE3D3D"/>
</svg>
