<svg width="30" height="29" viewBox="0 0 30 29" fill="none" xmlns="http://www.w3.org/2000/svg">
<path d="M9.86332 20.4783H1.4651C1.20825 20.4783 1 20.2701 1 20.0132V1.40943C1 1.15258 1.20825 0.944336 1.4651 0.944336H28.4406C28.6975 0.944336 28.9057 1.15252 28.9057 1.40943V20.0132C28.9057 20.2701 28.6975 20.4783 28.4406 20.4783H20.0424M9.86332 20.4783C9.87727 20.6332 9.90006 20.7858 9.9275 20.9369M9.86332 20.4783C9.82142 20.0132 9.86084 19.6495 9.8596 19.5481C10.0806 17.0852 12.0325 15.1334 14.4954 14.9124C17.308 14.6599 19.7928 16.7355 20.0452 19.5481C20.0657 19.7603 20.0937 20.2433 20.0424 20.4783M9.9275 20.9369L7.37646 23.9772C7.21123 24.1739 7.23675 24.4673 7.43343 24.6325C7.48884 24.6791 7.55441 24.712 7.62482 24.7288L10.4331 25.3995L11.5814 28.0506C11.6835 28.2862 11.9573 28.3946 12.193 28.2925C12.2594 28.2638 12.3181 28.22 12.3646 28.1645L14.9115 25.1293C14.9254 25.1293 14.9389 25.1293 14.9529 25.1293C14.9668 25.1293 14.9803 25.1293 14.9943 25.1293L17.5411 28.1645C17.7061 28.3614 17.9995 28.3872 18.1963 28.2222C18.2517 28.1757 18.2956 28.1169 18.3243 28.0506L19.4727 25.3995L22.2809 24.7288C22.5308 24.6693 22.6851 24.4185 22.6256 24.1686C22.6088 24.0982 22.5758 24.0327 22.5293 23.9772L19.9782 20.9369M9.9275 20.9369L10.2428 22.0099C10.2517 22.0304 10.2633 22.049 10.2721 22.0694C10.3326 22.209 10.3982 22.3415 10.4707 22.4731C10.5005 22.528 10.5321 22.582 10.5638 22.6355C10.6276 22.7418 10.6952 22.846 10.7665 22.948C10.8163 23.0192 10.8684 23.0875 10.9219 23.1573C10.9842 23.2364 11.0484 23.3136 11.1158 23.3898C11.1833 23.4661 11.2619 23.5503 11.3395 23.6275C11.3967 23.6847 11.4558 23.7401 11.5163 23.7945C11.5665 23.841 11.6116 23.8898 11.6642 23.934C11.7167 23.9782 11.766 24.0079 11.8163 24.047C11.839 24.0647 11.8586 24.0852 11.8818 24.1024C11.9237 24.134 11.9679 24.1614 12.0107 24.1917C12.0776 24.2382 12.1437 24.2884 12.213 24.3312C12.3451 24.4158 12.4813 24.493 12.6195 24.5637C12.6725 24.5907 12.7264 24.6154 12.7804 24.6405C12.9044 24.6988 13.0292 24.7518 13.1548 24.7995C13.1911 24.813 13.2269 24.8284 13.2632 24.8409C13.4393 24.9028 13.6189 24.9549 13.8008 24.9967L13.8059 24.9981C14.2884 25.1181 15.4227 25.2864 16.0998 24.9995H16.104C16.2866 24.9578 16.4668 24.9056 16.6435 24.8433C16.6784 24.8312 16.7118 24.8167 16.7467 24.8042C16.8765 24.7549 17.0044 24.7009 17.13 24.6409C17.1811 24.6172 17.2323 24.5944 17.2825 24.5684C17.4221 24.4958 17.5616 24.4172 17.6955 24.3312C17.7602 24.2903 17.822 24.2442 17.8848 24.2C17.9313 24.1679 17.9778 24.1386 18.0243 24.1047C18.049 24.0861 18.0709 24.0642 18.095 24.0452C18.1416 24.007 18.1955 23.9749 18.2429 23.9349C18.2904 23.8949 18.3388 23.8419 18.3881 23.7982C18.4494 23.7424 18.5099 23.6861 18.5685 23.628C18.6451 23.5514 18.7192 23.4726 18.7908 23.3917C18.8583 23.3154 18.9224 23.2382 18.9852 23.1591C19.0387 23.0908 19.0908 23.0196 19.1406 22.9499C19.2122 22.8485 19.2801 22.7443 19.3429 22.6382C19.3755 22.5843 19.4071 22.5299 19.4359 22.4745C19.5082 22.3434 19.574 22.2092 19.6336 22.0722C19.642 22.0485 19.654 22.0294 19.6629 22.0085L19.9782 20.9369M19.9782 20.9369C20.0057 20.7858 20.0284 20.6332 20.0424 20.4783" stroke="#BE3D3D" stroke-width="0.8"/>
<path d="M2.85547 5.13016V3.26978C2.85547 3.01293 3.06372 2.80469 3.32056 2.80469H5.18095" stroke="#BE3D3D" stroke-width="0.8"/>
<path d="M24.7227 2.80469H26.583C26.8399 2.80469 27.0481 3.01288 27.0481 3.26978V5.13016" stroke="#BE3D3D" stroke-width="0.8"/>
<path d="M24.7227 18.618H26.583C26.8399 18.618 27.0481 18.4097 27.0481 18.1529V16.2925" stroke="#BE3D3D" stroke-width="0.8"/>
<path d="M2.85547 16.292V18.1524C2.85547 18.4092 3.06372 18.6175 3.32056 18.6175H5.18095" stroke="#BE3D3D" stroke-width="0.8"/>
<path d="M9.37109 6.06055H20.5334" stroke="#BE3D3D" stroke-width="0.8"/>
<path d="M6.58203 8.85107H23.3255" stroke="#BE3D3D" stroke-width="0.8"/>
<path d="M14.9505 22.3385C13.6662 22.3385 12.625 21.2973 12.625 20.013C12.6265 18.7293 13.6668 17.689 14.9505 17.6875C16.2348 17.6875 17.276 18.7287 17.276 20.013C17.276 21.2973 16.2348 22.3385 14.9505 22.3385Z" stroke="#BE3D3D" stroke-width="0.8"/>
</svg>
