<svg width="37" height="26" viewBox="0 0 37 26" fill="none" xmlns="http://www.w3.org/2000/svg">
<path d="M36 25.4C36.2209 25.4 36.4 25.2209 36.4 25C36.4 24.7791 36.2209 24.6 36 24.6V25.4ZM27.5579 15.6494H27.9579V15.2494H27.5579V15.6494ZM1 24.6C0.779086 24.6 0.6 24.7791 0.6 25C0.6 25.2209 0.779086 25.4 1 25.4V24.6ZM36 24.6H31.9831V25.4H36V24.6ZM32.3831 25V23.4416H31.5831V25H32.3831ZM32.3831 23.4416C32.3831 22.9105 31.9323 22.5221 31.4299 22.5221V23.3221C31.5385 23.3221 31.5831 23.3989 31.5831 23.4416H32.3831ZM31.4299 22.5221H30.8768V23.3221H31.4299V22.5221ZM31.2768 22.9221V14.0909H30.4768V22.9221H31.2768ZM31.2768 14.0909C31.2768 12.9874 30.3292 12.1325 29.2173 12.1325V12.9325C29.9355 12.9325 30.4768 13.4758 30.4768 14.0909H31.2768ZM29.2173 12.1325H25.3453V12.9325H29.2173V12.1325ZM25.7453 12.5325V4.74026H24.9453V12.5325H25.7453ZM25.7453 4.74026C25.7453 4.20922 25.2945 3.82078 24.7921 3.82078V4.62078C24.9007 4.62078 24.9453 4.69759 24.9453 4.74026H25.7453ZM24.7921 3.82078H22.3582V4.62078H24.7921V3.82078ZM22.7582 4.22078V2.66234H21.9582V4.22078H22.7582ZM22.7582 2.66234C22.7582 2.1313 22.3075 1.74286 21.8051 1.74286V2.54286C21.9137 2.54286 21.9582 2.61966 21.9582 2.66234H22.7582ZM21.8051 1.74286H17.3799V2.54286H21.8051V1.74286ZM17.3799 1.74286C16.8775 1.74286 16.4267 2.1313 16.4267 2.66234H17.2267C17.2267 2.61966 17.2713 2.54286 17.3799 2.54286V1.74286ZM16.4267 2.66234V4.22078H17.2267V2.66234H16.4267ZM16.8267 3.82078H10.9633V4.62078H16.8267V3.82078ZM11.3633 4.22078V1.51948H10.5633V4.22078H11.3633ZM11.3633 1.51948C11.3633 0.988441 10.9126 0.6 10.4102 0.6V1.4C10.5188 1.4 10.5633 1.47681 10.5633 1.51948H11.3633ZM8.19755 0.6C7.69514 0.6 7.2444 0.988441 7.2444 1.51948H8.0444C8.0444 1.47681 8.08895 1.4 8.19755 1.4V0.6ZM7.2444 1.51948V4.22078H8.0444V1.51948H7.2444ZM7.6444 3.82078H5.98495V4.62078H7.6444V3.82078ZM5.98495 3.82078C5.48254 3.82078 5.0318 4.20922 5.0318 4.74026H5.8318C5.8318 4.69758 5.87635 4.62078 5.98495 4.62078V3.82078ZM5.0318 4.74026V25H5.8318V4.74026H5.0318ZM25.3453 24.6H5.4318V25.4H25.3453V24.6ZM7.3 22.8026H9.85701V22.0026H7.3V22.8026ZM7.3 18.1273H9.85701V17.3273H7.3V18.1273ZM7.3 14.1273H9.85701V13.3273H7.3V14.1273ZM7.3 10.3351H9.85701V9.53507H7.3V10.3351ZM9.85701 5.8987H7.3V6.6987H9.85701V5.8987ZM10.9633 3.82078H7.6444V4.62078H10.9633V3.82078ZM22.3582 3.82078H16.8267V4.62078H22.3582V3.82078ZM11.3633 25V4.22078H10.5633V25H11.3633ZM30.8768 22.5221H27.5579V23.3221H30.8768V22.5221ZM25.7453 15.6494V12.5325H24.9453V15.6494H25.7453ZM26.0516 23.4416V25H26.8516V23.4416H26.0516ZM26.4516 24.6H25.3453V25.4H26.4516V24.6ZM25.7453 25V15.6494H24.9453V25H25.7453ZM25.3453 16.0494H27.5579V15.2494H25.3453V16.0494ZM27.1579 15.6494V22.9221H27.9579V15.6494H27.1579ZM27.5579 22.5221H27.0047V23.3221H27.5579V22.5221ZM27.0047 22.5221C26.5023 22.5221 26.0516 22.9105 26.0516 23.4416H26.8516C26.8516 23.3989 26.8961 23.3221 27.0047 23.3221V22.5221ZM31.9831 24.6H26.4516V25.4H31.9831V24.6ZM5.4318 24.6H1V25.4H5.4318V24.6ZM8.19755 1.4H10.4102V0.6H8.19755V1.4Z" fill="#BE3D3D"/>
</svg>
