<svg width="20" height="26" viewBox="0 0 20 26" fill="none" xmlns="http://www.w3.org/2000/svg">
<path d="M13.5255 6.93786L14.7742 5.08419C14.8612 4.95503 15.0067 4.8776 15.1625 4.8776C15.3182 4.8776 15.4637 4.95503 15.5507 5.08419L18.5141 9.48329C19.0396 10.1993 19.3173 11.0482 19.3173 11.9393C19.3173 13.1792 18.7712 14.2938 17.9071 15.0557M13.5255 6.93786L9.66461 1.20659C9.57763 1.07743 9.43209 1 9.27639 1C9.12069 1 8.97515 1.07743 8.88817 1.20659L2.26051 11.045C1.15468 12.5478 0.570312 14.3303 0.570312 16.2008C0.570312 21.0013 4.47586 24.9069 9.27639 24.9069C14.0769 24.9069 17.9825 21.0013 17.9825 16.2008C17.9825 15.8176 17.9569 15.4337 17.9071 15.0557M13.5255 6.93786L11.8109 9.48334C11.2854 10.1993 11.0077 11.0483 11.0077 11.9393C11.0077 14.2303 12.8715 16.0941 15.1625 16.0941C15.8324 16.0941 16.9596 15.8017 17.9071 15.0557" stroke="#BE3D3D" stroke-width="1.00258"/>
<path d="M3.56641 14.7065C3.70918 16.2771 4.59441 19.6752 6.99307 20.7032" stroke="#BE3D3D" stroke-linecap="round"/>
</svg>
