<svg width="30" height="28" viewBox="0 0 30 28" fill="none" xmlns="http://www.w3.org/2000/svg">
<path d="M18.5479 6.28092V4.60529C18.5479 3.08756 19.1549 2.24558 19.6641 1.80647C20.2761 1.27886 21.1148 1 22.0897 1H28.4531C28.7552 1 29 1.26328 29 1.58806V3.99183C29 4.31632 28.7556 4.57948 28.4538 4.57989C28.4538 4.57989 22.3524 4.58824 22.2111 4.58912C22.1403 4.58959 22.0869 4.66204 22.0841 4.73814C22.0827 4.77377 22.0832 6.28086 22.0832 6.28086M18.5479 6.28092H18.4111C18.1091 6.28092 17.8643 6.54419 17.8643 6.86898V9.37648M18.5479 6.28092L22.0832 6.28086M17.8643 9.37648H16.8358V9.21605C16.8358 8.59853 16.3703 8.09791 15.796 8.09791H14.2846C13.7103 8.09791 13.2448 8.59853 13.2448 9.21605V9.37642M17.8643 9.37648L22.7668 9.37642M13.2448 9.37642H11.8303M13.2448 9.37642V22.9731M11.8303 9.37642V8.5726C11.8303 7.48174 11.0043 6.59424 9.98909 6.59424H8.62027C7.60499 6.59424 6.77899 7.48174 6.77899 8.5726V9.40171C3.54636 9.6985 1 12.6222 1 16.174C1 19.7248 3.54395 22.6482 6.77434 22.9474V27.1764M11.8303 9.37642H6.77899M6.77434 27.1764H1.56563M6.77434 27.1764H11.4056M28.4531 27.1764H11.4056M11.4056 27.1764V22.9731M11.4056 22.9731H13.2448M11.4056 22.9731H6.77434M13.2448 22.9731V23.1336C13.2448 23.7511 13.7103 24.2517 14.2846 24.2517H15.796C16.3703 24.2517 16.8359 23.7511 16.8359 23.1336V22.9731H24.4956C24.7976 22.9731 25.0424 22.7099 25.0424 22.3851V19.9442M25.0424 19.9442H28.4531C28.7552 19.9442 29 19.6809 29 19.3561V12.9934C29 12.6686 28.7552 12.4053 28.4531 12.4053H25.0424M25.0424 19.9442V12.4053M25.0424 12.4053V9.96448C25.0424 9.6397 24.7976 9.37642 24.4956 9.37642H22.7668M22.7668 9.37642V6.86892C22.7668 6.54414 22.522 6.28086 22.22 6.28086H22.0832" stroke="#BE3D3D" stroke-width="0.8"/>
<path d="M10.8814 15.355H9.23438" stroke="#BE3D3D" stroke-width="0.8"/>
<path d="M10.8814 12.8218H9.23438" stroke="#BE3D3D" stroke-width="0.8"/>
<path d="M10.8814 17.8877H9.23438" stroke="#BE3D3D" stroke-width="0.8"/>
</svg>
