<svg width="28" height="30" viewBox="0 0 28 30" fill="none" xmlns="http://www.w3.org/2000/svg">
<path d="M20.5 12L14.8613 17.759C14.5467 18.0804 14.0367 18.0803 13.7221 17.759L10.5 14.4681" stroke="#BE3D3D" stroke-linecap="round"/>
<path d="M12.4335 27.9855C13.3516 28.4109 14.3185 28.7447 15.3073 28.9776C15.3707 28.9925 15.4353 29 15.5 29C15.5647 29 15.6294 28.9925 15.6927 28.9776C19.0354 28.1901 22.0524 26.2471 24.1881 23.5066C26.3238 20.766 27.5 17.328 27.5 13.8258V4.49998C27.5 4.0925 27.2245 3.739 26.8356 3.6474L15.6927 1.02239C15.5659 0.992535 15.4341 0.992535 15.3073 1.02239L4.16439 3.6474C3.77552 3.739 3.5 4.0925 3.5 4.49998V13.8258C3.5 14.4572 3.53782 15.093 3.61245 15.7155" stroke="#BE3D3D" stroke-linecap="round"/>
<circle cx="6" cy="22.5" r="3" stroke="#BE3D3D"/>
<path d="M6 17.5L6 20.5" stroke="#BE3D3D" stroke-linecap="round"/>
<path d="M6 24.5L6 27.5" stroke="#BE3D3D" stroke-linecap="round"/>
<path d="M1 22.5H4" stroke="#BE3D3D" stroke-linecap="round"/>
<path d="M8 25L9 26" stroke="#BE3D3D" stroke-linecap="round"/>
<path d="M2.5 19.5L3.5 20.5" stroke="#BE3D3D" stroke-linecap="round"/>
<path d="M3.5 25L2.5 26" stroke="#BE3D3D" stroke-linecap="round"/>
<path d="M9 19.5L8.30449 20.2307" stroke="#BE3D3D" stroke-linecap="round"/>
<line x1="8" y1="22.5" x2="11" y2="22.5" stroke="#BE3D3D" stroke-linecap="round"/>
</svg>
