<svg width="14" height="14" viewBox="0 0 14 14" fill="none" xmlns="http://www.w3.org/2000/svg">
<path d="M1.64666 9.46357C2.12415 8.98605 9.26922 1.84046 9.73701 1.37263C10.2339 0.875802 11.0422 0.875779 11.5391 1.37263L12.6265 2.46013C13.1245 2.9582 13.1245 3.7643 12.6265 4.2623L4.53613 12.3532M1.64666 9.46357C1.5958 9.51443 1.56172 9.58202 1.54958 9.64814L1.00588 12.5844C0.984811 12.6982 1.02109 12.8151 1.10296 12.897C1.18492 12.979 1.30187 13.0152 1.41557 12.9941L4.35156 12.4503C4.41941 12.4377 4.48611 12.4033 4.53613 12.3532M1.64666 9.46357L4.53613 12.3532M11.9629 4.92595L9.10969 2" stroke="#2A2626" stroke-width="0.8"/>
</svg>
