<svg width="15" height="17" viewBox="0 0 15 17" fill="none" xmlns="http://www.w3.org/2000/svg">
<path d="M8.64346 8.01608L8.26329 7.8917C8.22343 8.01353 8.24438 8.14708 8.31962 8.25086C8.39486 8.35465 8.51528 8.41608 8.64346 8.41608V8.01608ZM9.04749 6.7812L8.66732 6.65681L8.66732 6.65681L9.04749 6.7812ZM8.9378 5.28332L9.29557 5.10443L9.29557 5.10442L8.9378 5.28332ZM7.81748 4.32109L7.93696 3.93935L7.93694 3.93934L7.81748 4.32109ZM7.33052 4.1687L7.21098 4.55042L7.21106 4.55045L7.33052 4.1687ZM6.98877 4.34486L6.6114 4.21222L6.6114 4.21223L6.98877 4.34486ZM6.22359 6.52203L6.60096 6.65467L6.60096 6.65466L6.22359 6.52203ZM5.01761 7.96748L4.82202 7.61856L4.822 7.61857L5.01761 7.96748ZM4.69691 15.6951L4.54714 16.066L4.54716 16.066L4.69691 15.6951ZM10.4536 9.6773C10.2327 9.6773 10.0536 9.85639 10.0536 10.0773C10.0536 10.2982 10.2327 10.4773 10.4536 10.4773V9.6773ZM8.64346 11.8473C8.42255 11.8473 8.24346 12.0264 8.24346 12.2473C8.24346 12.4682 8.42255 12.6473 8.64346 12.6473V11.8473ZM9.32956 13.7112C9.10865 13.7112 8.92956 13.8903 8.92956 14.1112C8.92956 14.3322 9.10865 14.5112 9.32956 14.5112V13.7112ZM14.0316 11.0809C14.0316 10.6916 13.8946 10.3674 13.6513 10.125C13.4174 9.8918 13.1104 9.75882 12.8024 9.68759L12.6222 10.467C12.8395 10.5173 12.9923 10.5976 13.0866 10.6916C13.1717 10.7764 13.2316 10.8933 13.2316 11.0809H14.0316ZM13.048 10.2947C13.1505 10.1365 13.2119 9.92848 13.2486 9.75742C13.2872 9.57738 13.3094 9.38474 13.3094 9.22816H12.5094C12.5094 9.31929 12.4952 9.45515 12.4664 9.58973C12.4356 9.73328 12.3985 9.82601 12.3765 9.85991L13.048 10.2947ZM13.3094 9.22816C13.3094 8.34995 12.613 7.61608 11.732 7.61608V8.41608C12.1494 8.41608 12.5094 8.76968 12.5094 9.22816H13.3094ZM11.732 7.61608H8.64346V8.41608H11.732V7.61608ZM9.02363 8.14047L9.42766 6.90558L8.66732 6.65681L8.26329 7.8917L9.02363 8.14047ZM9.42766 6.90559C9.62336 6.30746 9.57661 5.6665 9.29557 5.10443L8.58003 5.4622C8.76655 5.83524 8.79774 6.25821 8.66732 6.65681L9.42766 6.90559ZM9.29557 5.10442C9.01435 4.54202 8.53171 4.12551 7.93696 3.93935L7.69799 4.70282C8.08055 4.82257 8.3937 5.08956 8.58004 5.46221L9.29557 5.10442ZM7.93694 3.93934L7.44998 3.78696L7.21106 4.55045L7.69802 4.70283L7.93694 3.93934ZM7.45005 3.78698C7.09464 3.67568 6.73022 3.87416 6.6114 4.21222L7.36614 4.4775C7.34779 4.52971 7.28335 4.57309 7.21098 4.55042L7.45005 3.78698ZM6.6114 4.21223L5.84622 6.3894L6.60096 6.65466L7.36614 4.47749L6.6114 4.21223ZM5.84622 6.38939C5.66062 6.91745 5.29586 7.35294 4.82202 7.61856L5.2132 8.3164C5.86038 7.95361 6.3522 7.36243 6.60096 6.65467L5.84622 6.38939ZM4.822 7.61857L4.0576 8.04712L4.44883 8.74494L5.21322 8.31638L4.822 7.61857ZM4.57871 8.16354C4.34455 7.83571 3.96218 7.61611 3.5259 7.61611V8.41611C3.68595 8.41611 3.83304 8.49596 3.92772 8.62852L4.57871 8.16354ZM3.5259 7.61611H1.27755V8.41611H3.5259V7.61611ZM1.27755 7.61611C0.892486 7.61611 0.6 7.9342 0.6 8.30185H1.4C1.4 8.35393 1.35609 8.41611 1.27755 8.41611V7.61611ZM0.6 8.30185V15.7126H1.4V8.30185H0.6ZM0.6 15.7126C0.6 16.0802 0.892486 16.3983 1.27755 16.3983V15.5983C1.35609 15.5983 1.4 15.6605 1.4 15.7126H0.6ZM1.27755 16.3983H3.5259V15.5983H1.27755V16.3983ZM3.5259 16.3983C4.01216 16.3983 4.43037 16.1261 4.65289 15.7346L3.9574 15.3393C3.86651 15.4992 3.7037 15.5983 3.5259 15.5983V16.3983ZM4.15538 15.9078L4.54714 16.066L4.84667 15.3242L4.45491 15.166L4.15538 15.9078ZM4.54716 16.066C5.09298 16.2864 5.66795 16.3984 6.25479 16.3984V15.5984C5.771 15.5984 5.29768 15.5063 4.84665 15.3242L4.54716 16.066ZM6.25479 16.3984H11.1045V15.5984H6.25479V16.3984ZM11.1045 16.3984C11.9855 16.3984 12.6819 15.6645 12.6819 14.7863H11.8819C11.8819 15.2448 11.5219 15.5984 11.1045 15.5984V16.3984ZM12.6819 14.7863C12.6819 14.4569 12.5844 14.1489 12.4167 13.8924L11.7471 14.3301C11.8319 14.4598 11.8819 14.6163 11.8819 14.7863H12.6819ZM12.179 14.4993C12.8749 14.3252 13.3813 13.6844 13.3813 12.9336H12.5813C12.5813 13.3223 12.3198 13.6394 11.9848 13.7232L12.179 14.4993ZM13.3813 12.9336C13.3813 12.5975 13.2797 12.284 13.106 12.0247L12.4414 12.4699C12.5293 12.6011 12.5813 12.7604 12.5813 12.9336H13.3813ZM12.8854 12.6314C13.552 12.4376 14.0316 11.8117 14.0316 11.0809H13.2316C13.2316 11.4588 12.9841 11.7695 12.662 11.8632L12.8854 12.6314ZM4.70513 15.534L4.6532 8.39312L3.85322 8.39894L3.90515 15.5399L4.70513 15.534ZM12.7123 9.6773H10.4536V10.4773H12.7123V9.6773ZM12.7737 11.8473H8.64346V12.6473H12.7737V11.8473ZM12.0819 13.7112H9.32956V14.5112H12.0819V13.7112Z" fill="#2A2626"/>
<path d="M7.31641 1V2.57895" stroke="#2A2626" stroke-width="0.8" stroke-linecap="round"/>
<path d="M10.4766 5.73438H12.0555" stroke="#2A2626" stroke-width="0.8" stroke-linecap="round"/>
<path d="M3.36719 5.73438L4.94613 5.73437" stroke="#2A2626" stroke-width="0.8" stroke-linecap="round"/>
<path d="M4.15625 2.57812L5.34046 3.76234" stroke="#2A2626" stroke-width="0.8" stroke-linecap="round"/>
<path d="M10.8678 2.57812L9.68359 3.76234" stroke="#2A2626" stroke-width="0.8" stroke-linecap="round"/>
</svg>
