<svg width="17" height="15" viewBox="0 0 17 15" fill="none" xmlns="http://www.w3.org/2000/svg">
<path d="M1.21581 1V0.6V1ZM11.0484 1V1.4V1ZM11.2637 1.22593H11.6637H11.2637ZM7.90588 13.6316V14.0316V13.6316ZM7.69059 4.74952V4.34952C7.9115 4.34952 8.09059 4.5286 8.09059 4.74952H7.69059ZM1.00051 1.22593H0.600513H1.00051ZM10.3767 11.3013C10.1558 11.3013 9.97671 11.1222 9.97671 10.9013C9.97671 10.6804 10.1558 10.5013 10.3767 10.5013V11.3013ZM9.04626 7.73736C8.82534 7.73736 8.64626 7.55827 8.64626 7.33736C8.64626 7.11644 8.82534 6.93736 9.04626 6.93736V7.73736ZM9.48974 5.14952C9.26883 5.14952 9.08974 4.97043 9.08974 4.74952C9.08974 4.5286 9.26883 4.34952 9.48974 4.34952V5.14952ZM6.90747 2.86154C6.90747 3.08246 6.72839 3.26154 6.50747 3.26154C6.28656 3.26154 6.10747 3.08246 6.10747 2.86154H6.90747ZM4.39818 1.93077C4.39818 2.15168 4.21909 2.33077 3.99818 2.33077C3.77727 2.33077 3.59818 2.15168 3.59818 1.93077H4.39818ZM11.0484 0.6C11.218 0.6 11.3765 0.67087 11.4902 0.790226L10.911 1.34212C10.944 1.37674 10.993 1.4 11.0484 1.4V0.6ZM11.4902 0.790226C11.6033 0.908926 11.6637 1.06598 11.6637 1.22593H10.8637C10.8637 1.26604 10.8787 1.30816 10.911 1.34212L11.4902 0.790226ZM11.6637 13.4057C11.6637 13.5656 11.6033 13.7227 11.4902 13.8414L10.911 13.2895C10.8787 13.3234 10.8637 13.3655 10.8637 13.4057H11.6637ZM11.4902 13.8414C11.3764 13.9607 11.218 14.0316 11.0484 14.0316V13.2316C10.993 13.2316 10.944 13.2548 10.911 13.2895L11.4902 13.8414ZM11.0484 14.0316H7.90588V13.2316H11.0484V14.0316ZM7.90588 14.0316C7.7363 14.0316 7.57781 13.9607 7.46407 13.8414L8.04322 13.2895C8.01023 13.2548 7.96126 13.2316 7.90588 13.2316V14.0316ZM7.46407 13.8414C7.35095 13.7227 7.29059 13.5656 7.29059 13.4057H8.09059C8.09059 13.3655 8.07558 13.3234 8.04322 13.2895L7.46407 13.8414ZM7.29059 13.4057V4.74952H8.09059V13.4057H7.29059ZM7.69059 5.14952H1.21581V4.34952H7.69059V5.14952ZM1.21581 5.14952C1.04623 5.14952 0.887733 5.07864 0.773996 4.95929L1.35315 4.4074C1.32016 4.37278 1.27119 4.34952 1.21581 4.34952V5.14952ZM0.773996 4.95929C0.660881 4.84059 0.600513 4.68354 0.600513 4.52359H1.40051C1.40051 4.48348 1.38551 4.44136 1.35315 4.4074L0.773996 4.95929ZM0.600513 4.52359V1.22593H1.40051V4.52359H0.600513ZM0.600513 1.22593C0.600513 1.06598 0.660881 0.908928 0.773996 0.790226L1.35315 1.34212C1.38551 1.30816 1.40051 1.26604 1.40051 1.22593H0.600513ZM0.773996 0.790226C0.887734 0.67087 1.04623 0.6 1.21581 0.6V1.4C1.27119 1.4 1.32016 1.37674 1.35315 1.34212L0.773996 0.790226ZM11.2637 5.14952H9.48974V4.34952H11.2637V5.14952ZM6.50747 0.6H11.0484V1.4H6.50747V0.6ZM6.10747 2.86154V1H6.90747V2.86154H6.10747ZM3.99818 0.6H6.50747V1.4H3.99818V0.6ZM3.59818 1.93077V1H4.39818V1.93077H3.59818ZM1.21581 0.6H3.99818V1.4H1.21581V0.6ZM11.6637 10.9013V13.4057H10.8637V10.9013H11.6637ZM10.3767 10.5013H11.2637V11.3013H10.3767V10.5013ZM11.6637 1.22593V7.33736H10.8637V1.22593H11.6637ZM11.6637 7.33736V10.9013H10.8637V7.33736H11.6637ZM9.04626 6.93736H11.2637V7.73736H9.04626V6.93736Z" fill="#2A2626"/>
<path d="M14.8177 13.6316V1M14.8177 13.6316L13.7135 12.4454M14.8177 13.6316L15.9699 12.4454M14.8177 1L16.002 2.17018M14.8177 1L13.6335 2.17018" stroke="#2A2626" stroke-width="0.8" stroke-linecap="round" stroke-linejoin="round"/>
</svg>
