<svg version="1.1" xmlns="http://www.w3.org/2000/svg"  >
  <symbol viewBox="0 0 10 16" id="slider-next-black-icon">
    <path d="M1 15l7-7-7-7" stroke-width="1.8"></path>
  </symbol>
  <symbol  viewBox="0 0 7 14" id="soc-fb-icon">
    <path d="M4.544 14V7.614h2.063l.31-2.489H4.543V3.536c0-.72.192-1.212 1.187-1.212H7V.098A16.38 16.38 0 005.151 0c-1.83 0-3.082 1.16-3.082 3.29v1.835H0v2.489h2.07V14h2.474z" ></path>
  </symbol>
  <symbol  viewBox="0 0 36 36" id="tech-icon-2">
    <path d="M2.992 4.984v.5h.5v-.5h-.5zm0 25.532a.5.5 0 000 1v-1zm3.985 1a.5.5 0 100-1v1zM2.992 26.53a.5.5 0 000 1v-1zm3.985 1a.5.5 0 100-1v1zm-3.985-4.984a.5.5 0 100 1v-1zm3.985 1a.5.5 0 000-1v1zm-3.985-4.453a.5.5 0 100 1v-1zm3.985 1a.5.5 0 000-1v1zm-3.985-4.752a.5.5 0 000 1v-1zm3.985 1a.5.5 0 000-1v1zM2.992 11.59a.5.5 0 000 1v-1zm3.985 1a.5.5 0 100-1v1zm27.027 7.965H20.922v1h13.082v-1zm-12.582.5V5.98h-1v15.075h1zm0-15.075c0-.826-.67-1.496-1.496-1.496v1c.274 0 .496.223.496.496h1zm-1.496-1.496h-.996v1h.996v-1zm-.496.5V1.996h-1v2.988h1zm0-2.988C19.43 1.17 18.76.5 17.934.5v1c.274 0 .496.222.496.496h1zM17.934.5H3.988v1h13.946v-1zM3.988.5c-.826 0-1.496.67-1.496 1.496h1c0-.274.222-.496.496-.496v-1zM2.492 1.996v2.988h1V1.996h-1zm.5 2.488h-.996v1h.996v-1zm-.996 0C1.17 4.484.5 5.154.5 5.98h1c0-.274.222-.496.496-.496v-1zM.5 5.98v28.024h1V5.98h-1zm0 28.024c0 .826.67 1.496 1.496 1.496v-1a.496.496 0 01-.496-.496h-1zM1.996 35.5h32.008v-1H1.996v1zm32.008 0c.826 0 1.496-.67 1.496-1.496h-1a.496.496 0 01-.496.496v1zm1.496-1.496V22.05h-1v11.953h1zm0-11.953c0-.826-.67-1.496-1.496-1.496v1c.274 0 .496.222.496.496h1zM18.93 4.484H3.158v1H18.93v-1zM2.992 31.516h3.985v-1H2.992v1zm0-3.985h3.985v-1H2.992v1zm0-3.984h3.985v-1H2.992v1zm0-3.453h3.985v-1H2.992v1zm0-3.752h3.985v-1H2.992v1zm0-3.752h3.985v-1H2.992v1zM9.47 35V10.098h-1V35h1zm0-24.902c0-.827-.67-1.496-1.496-1.496v1c.274 0 .496.222.496.496h1zM7.973 8.602H1v1h6.973v-1zM21.422 35V21.055h-1V35h1z" ></path>
  </symbol>
  <symbol  viewBox="0 0 24 30" id="tech-icon-5">
    <path d="M16.119 7.931l1.457-2.163a.547.547 0 01.907 0l3.46 5.135a4.81 4.81 0 01.937 2.867 4.84 4.84 0 01-1.646 3.637m-5.115-9.476l-4.507-6.69a.546.546 0 00-.906 0L2.969 12.726a10.084 10.084 0 00-1.973 6.018c0 5.604 4.56 10.163 10.163 10.163 5.604 0 10.163-4.56 10.163-10.163 0-.447-.03-.895-.088-1.337m-5.115-9.476l-2.002 2.972a4.812 4.812 0 00-.937 2.867 4.855 4.855 0 004.85 4.85c.782 0 2.098-.342 3.204-1.213"  stroke-width="1.003"></path>
    <path d="M4.496 17c.167 1.833 1.2 5.8 4 7" stroke-linecap="round"></path>
  </symbol>
  <symbol  viewBox="0 0 24 25" id="stage-icon-1">
    <path d="M4.12 11.735a.357.357 0 00.607-.256.36.36 0 00-.101-.253L.866 7.444 2.097 6.22l1.018 1.023 4.642 4.669-7.35 7.39a.96.96 0 00-.206 1.046.96.96 0 00.207.312l3.35 3.368a.953.953 0 001.35 0l7.348-7.39 5.299 5.327a.35.35 0 00.112.076l.008.004a.363.363 0 00.047.015l3.824.948a.357.357 0 00.43-.253.362.362 0 00.003-.183l-.942-3.845a.367.367 0 00-.015-.048l-.004-.008a.358.358 0 00-.075-.113l-5.298-5.328 7.305-7.345a.96.96 0 00.207-1.046.96.96 0 00-.207-.312L19.8 1.158a.953.953 0 00-1.35 0l-1.92 1.93-5.385 5.416-5.908-5.941a.357.357 0 00-.506 0l-.175.176-.485-.496a1.779 1.779 0 00-1.276-.538h-.002A1.785 1.785 0 001.14 2.817a1.812 1.812 0 00.388 1.964l.497.5L.106 7.186a.36.36 0 00-.001.51l4.014 4.038zm16.265 7.077l-2.376 2.389L3.875 6.988l2.376-2.39 14.134 14.214zM4.602 23.518a.238.238 0 01-.338 0L.914 20.15a.24.24 0 010-.34l5.01-5.036 1.599 1.607a.358.358 0 00.508.002.36.36 0 00-.002-.51L6.43 14.264l1.834-1.845 3.688 3.708-7.35 7.39zm14.109-2.005l1.984-1.995.649 2.648-2.633-.653zm-5.547-14.02L14.763 9.1a.359.359 0 00.508.002.36.36 0 00-.002-.512L13.67 6.984l3.114-3.132.946.952a.358.358 0 10.506-.51l-.946-.95 1.667-1.677a.238.238 0 01.338 0l3.35 3.368a.241.241 0 010 .34l-7.306 7.346-3.687-3.708 1.512-1.52zM5.744 4.09L3.37 6.479l-.76-.764 2.376-2.389.76.764zm-3.71.182a1.084 1.084 0 01.76-1.847h.001a1.063 1.063 0 01.767.323l.49.5L2.6 4.708l-.068.066-.498-.502z" ></path>
  </symbol>
  <symbol  viewBox="0 0 40 33" id="tech-icon-6">
    <path d="M1.657 32.661a.5.5 0 010-1v1zm.287-12.989l.336-.37-.336.37zM.99 17.656l-.5.024.5-.024zm.752-2.1l.37.335-.37-.335zm36.12 0l-.37.336.37-.336zm.752 2.1l.499.024-.5-.024zm-.954 2.016l-.336-.37.336.37zm-2.047 1.856l.336.37-.336-.37zM24.47 25.337v-.5h.025l.025.002-.05.498zm2.5 2.454l.496-.06.003.03v.03h-.5zm.02 1.555h-.5v-.222l.164-.149.336.37zm10.957 2.315a.5.5 0 010 1v-1zm-25.312-3.87l-.5-.006v-.027l.003-.026.497.06zm10.116-2.468l.335.37-.142.13h-.193v-.5zm8.68-7.871l.346-.36.387.37-.397.36-.336-.37zm-23.258 0l-.336.37-.397-.36.387-.37.346.36zm4.452-10.735l-.498.045-.002-.02V6.72l.5-.003zm14.354 0l.5.003v.021l-.002.02-.498-.044zm-2.667 2.287v-.5.5zM1.657 31.66h5.698v1H1.657v-1zm5.698 0h5.259v1h-5.26v-1zm4.759.5v-2.815h1v2.815h-1zm.164-2.445l-10.67-9.673.672-.741 10.67 9.674-.672.74zm-10.67-9.673A3.396 3.396 0 01.491 17.68l.999-.049c.031.645.311 1.237.79 1.67l-.672.742zM.491 17.68a3.394 3.394 0 01.88-2.46l.741.672a2.394 2.394 0 00-.622 1.74l-1 .048zm.88-2.46c.018-.02.086-.084.153-.15a852.44 852.44 0 011.588-1.527 20002.09 20002.09 0 017.463-7.167l1.227-1.178.344-.33.09-.087.024-.022.006-.006.001-.001.347.36.346.36-.002.002-.006.006-.023.022c-.02.02-.05.05-.09.087l-.344.33c-.296.285-.72.69-1.227 1.179L7.54 10.677a17978.107 17978.107 0 00-5.322 5.114c-.096.092-.118.114-.105.1l-.742-.67zM12.114 5.112V3.514h1v1.598h-1zm0-1.598A3.016 3.016 0 0115.127.5v1c-1.11 0-2.013.904-2.013 2.014h-1zM15.127.5h1.266v1h-1.266v-1zm1.266 0h8.083v1h-8.083v-1zm8.083 0a3.016 3.016 0 013.014 3.014h-1c0-1.11-.904-2.014-2.014-2.014v-1zm3.014 3.014v1.598h-1V3.514h1zm-.5 1.598l.346-.36.002.001.006.006.023.022.09.087.345.33a18775.064 18775.064 0 019.927 9.535l.35.337c.068.066.135.13.153.15l-.74.671c.012.014-.01-.008-.106-.1l-.35-.338-1.238-1.189a21117.165 21117.165 0 00-7.462-7.166L27.11 5.919l-.344-.33-.09-.087-.024-.022-.005-.006-.002-.001.346-.361zM38.232 15.22c.612.674.926 1.55.881 2.46l-.999-.049a2.394 2.394 0 00-.623-1.74l.741-.671zm.881 2.46a3.396 3.396 0 01-1.117 2.363l-.672-.741a2.396 2.396 0 00.79-1.671l.999.049zm-1.117 2.363l-2.047 1.855-.671-.74 2.046-1.856.672.74zM24.52 24.839a3.308 3.308 0 012.946 2.893l-.993.118a2.308 2.308 0 00-2.053-2.016l.1-.995zm11.43-2.94l-8.624 7.817-.672-.74 8.624-7.819.671.741zm-8.46 7.447v2.815h-1v-2.815h1zm-.5 2.315h10.957v1H26.99v-1zm-14.852-3.929a3.308 3.308 0 012.946-2.892l.1.994a2.307 2.307 0 00-2.053 2.017l-.993-.119zm10.277-2.78l8.68-7.87.672.74-8.68 7.871-.672-.74zm8.67-7.14l-8.803-8.447.693-.722 8.802 8.448-.692.722zm-8.457-8.308h-5.653v-1h5.653v1zm-5.306-.14l-8.803 8.449-.692-.722 8.802-8.448.693.722zm-8.813 7.718l8.68 7.87-.672.741-8.68-7.87.672-.741zm8.344 7.74h5.898v1h-5.898v-1zM15.292 9.505h-.165v-1h.165v1zm-.165 0a3.017 3.017 0 01-3-2.742l.996-.09a2.017 2.017 0 002.005 1.832v1zm12.35-2.742a3.017 3.017 0 01-3 2.742v-1a2.017 2.017 0 002.004-1.832l.996.09zm-3 2.742h-.165v-1h.164v1zM12.613 31.66H26.99v1H12.614v-1zM26.479 6.714l.01-1.606 1 .007-.01 1.605-1-.006zm-2.167 2.79h-1.684v-1h1.684v1zm-7.337 0h-1.683v-1h1.683v1zm-3.861-4.396l.01 1.606-1 .006-.01-1.605 1-.007zm14.355 22.683v1.555h-1V27.79h1zm-2.999-1.954h-1.72v-1h1.72v1zm-7.617-.014h-1.72v-1h1.72v1zm-3.719 1.975l-.02 1.555-1-.014.02-1.554 1 .013z"></path>
    <path d="M15.613 5.002c0 .688.56 1.248 1.248 1.248a1.25 1.25 0 001.248-1.248 1.25 1.25 0 00-1.248-1.249 1.25 1.25 0 00-1.248 1.249zm7.135 1.248a1.25 1.25 0 001.248-1.248 1.25 1.25 0 00-1.248-1.249 1.25 1.25 0 00-1.249 1.249c0 .688.56 1.248 1.249 1.248z" ></path>
  </symbol>
  <symbol  viewBox="0 0 10 16" id="slider-prev-black-icon">
    <path d="M9 1L2 8l7 7"  stroke-width="1.8"></path>
  </symbol>
  <symbol  viewBox="0 0 10 16" id="slider-prev-icon">
    <path d="M9 1L2 8l7 7"  stroke-width="1.8"></path>
  </symbol>
  <symbol  viewBox="0 0 10 16" id="slider-next-icon">
    <path d="M1 15l7-7-7-7"  stroke-width="1.8"></path>
  </symbol>
  <symbol  viewBox="0 0 33 33" id="stage-icon-3">
    <path d="M16.488 8.639l-.28-.414-.22.15v.264h.5zm9.604 18.577a.5.5 0 10.708-.706l-.708.706zm3.941-.724a.5.5 0 10.67.742l-.67-.742zM27.125 1.38l-.252-.432-.016.009-.015.01.283.413zm4.422 24.42l.335.37-.335-.37zm-.078-3.396l.296-.403-.296.403zm-5.973 0l-.296-.403.296.403zM13.157 11.101l.432-.253-.432.253zM25.38 25.794l.354-.353-.354.353zM1.45 22.838v-5.032h-1v5.032h1zm.5-5.532h6.693v-1H1.95v1zm7.193-.5v-5.201h-1v5.2h1zm.5-5.701h2.65v-1h-2.65v1zm3.082.248l3.332 5.705.863-.505-3.331-5.705-.864.505zm3.41 5.806l4.224 4.234.708-.706-4.224-4.235-.709.707zm4.078 3.881v1.798h1V21.04h-1zm-11.57 2.298H1.95v1h6.694v-1zm-.5-6.532v7.032h1v-7.032h-1zm.5.5h7.845v-1H8.643v1zm8.345-.5V8.639h-1v8.167h1zm-.218-7.754l4.224-2.873-.562-.827-4.225 2.873.563.827zm11.213-4.345v15.501h1V4.707h-1zm.203 15.099L25.2 22l.592.806 2.987-2.196-.593-.805zm-3.598 3.404v1.878h1V23.21h-1zm.438 2.938l1.066 1.068.708-.706-1.066-1.069-.708.707zm3.16-5.537l2.987 2.196.592-.806-2.986-2.195-.593.805zm3.191 2.599v1.847h1V23.21h-1zm-.165 2.218l-1.179 1.064.67.742 1.179-1.063-.67-.743zm-11.5-2.09H10.68v1h9.033v-1zm-9.032 0H8.643v1h2.037v-1zm-.5.5v2.846h1v-2.846h-1zm.5 2.346H3.76v1h6.92v-1zm-6.92 6.623h14.141v-1H3.761v1zm14.141-6.623h-7.22v1h7.22v-1zm2.312-15.957V21.04h1V10.227h-1zm.782-4.049l6.412-4.386-.565-.825-6.412 4.386.565.825zm-.782-.413v3.933h1V5.765h-1zm0 3.933v.529h1v-.53h-1zm8-5.412l-7.77 4.99.54.842 7.77-4.99-.54-.842zm-.836-2.475c1.025-.598 1.747-.235 1.985.218.238.452.187 1.38-1.154 2.26l.549.836c1.585-1.04 2.06-2.48 1.49-3.562C29.677.48 28.257.14 26.873.948l.504.863zm-.535-.844c-.784.536-1.26 1.147-1.446 1.78a2.05 2.05 0 00.25 1.733c.616.933 1.974 1.375 3.107.647l-.54-.841a1.26 1.26 0 01-1.731-.356 1.05 1.05 0 01-.127-.9c.103-.351.398-.79 1.052-1.238l-.565-.825zM3.761 26.184a3.311 3.311 0 00-3.312 3.312h1a2.311 2.311 0 012.312-2.312v-1zm27.616-1.127a.5.5 0 01-.165.371l.67.743a1.5 1.5 0 00.495-1.114h-1zm-.204-2.25a.5.5 0 01.204.403h1a1.5 1.5 0 00-.612-1.21l-.592.806zm-5.973-.806a1.5 1.5 0 00-.612 1.209h1a.5.5 0 01.204-.403l-.593-.806zm-4.987.837a.5.5 0 01-.5.5v1a1.5 1.5 0 001.5-1.5h-1zm-7.92-11.733a.5.5 0 01.432.248l.864-.505a1.5 1.5 0 00-1.295-.743v1zm12.295 13.983c0 .397.157.778.438 1.06l.708-.707a.5.5 0 01-.146-.353h-1zM9.143 11.605a.5.5 0 01.5-.5v-1a1.5 1.5 0 00-1.5 1.5h1zm12.07 17.89a3.311 3.311 0 00-3.312-3.31v1a2.312 2.312 0 012.312 2.31h1zM1.449 17.806a.5.5 0 01.5-.5v-1a1.5 1.5 0 00-1.5 1.5h1zm-1 11.69a3.311 3.311 0 003.312 3.312v-1a2.311 2.311 0 01-2.312-2.311h-1zm17.452 3.312a3.311 3.311 0 003.312-3.311h-1a2.312 2.312 0 01-2.312 2.311v1zM.45 22.838a1.5 1.5 0 001.5 1.5v-1a.5.5 0 01-.5-.5h-1z" ></path>
    <path d="M17.82 32.307c-1.553 0-2.812-1.337-2.812-2.89 0-1.552 1.259-2.733 2.811-2.733m-14.056 0c1.552 0 2.811 1.337 2.811 2.89 0 1.553-1.259 2.734-2.811 2.734" ></path>
  </symbol>
  <symbol  viewBox="0 0 10 9" id="download-icon">
    <path d="M8.004 4.896L5 7.599 1.996 4.896l.553-.498 2.06 1.855V0h.782v6.253l2.06-1.855.553.498zM10 8.296H0V9h10v-.703z" ></path>
  </symbol>
  <symbol  viewBox="0 0 18 18" id="direct-arrow-icon">
    <path d="M10.24 4.051H2.57V.5H17.5v14.93h-3.551V6.552l-.854.853-9.886 9.887L.707 14.79l9.887-9.886.853-.854H10.24z" stroke-opacity=".14"></path>
  </symbol>
  <symbol  viewBox="0 0 22 26" id="stage-icon-4">
    <path d="M5.068 19.638h-.904m13.394-.074H7.21M5.068 15.25h-.904m13.57 0H7.211m-2.143-3.963h-.904m13.394 0H7.21"  stroke-linecap="round"></path>
    <path d="M13.661.94v6.783c0 .25.203.453.453.453h6.782m-.005-.481a.427.427 0 00-.023-.116c-.005-.015-.009-.029-.015-.043a.45.45 0 00-.09-.132L14.43 1.073a.451.451 0 00-.132-.09c-.014-.007-.028-.01-.042-.015a.452.452 0 00-.117-.024c-.008.001-.016-.004-.026-.004H1.452A.452.452 0 001 1.393v23.514c0 .25.202.452.452.452h18.992c.25 0 .453-.203.453-.452V7.723c0-.01-.005-.018-.006-.028z" ></path>
    <path d="M4.21 8.127V5.509h2.618v2.618H4.211z" ></path>
  </symbol>
  <symbol   viewBox="0 0 34 31" id="tech-icon-4">
    <path d="M31.996 15h1M.992 19h3.651m28.35 0h-3.937M4.643 16.875V19m0 0h12.254m0-2.125V19m0 0h12.159m0-2.125V19m-6.096-4.094v1.969m-12.19-1.969v1.969M4.643 1c-.17.865-.381 2.594.286 3.813.697 1.274.412 2.593-.762 4.156-.603.802.032 2.906.476 3.437M4.643 1L2.548 3.75M4.643 1l1.968 2.75M12.834 1c-.17.865-.381 2.594.285 3.813.697 1.274.476 2.343-.698 3.906-.476.633-.35 2.937.413 3.687m0-11.406l-2.096 2.75M12.834 1l1.968 2.75M20.929 1c-.17.865-.381 2.594.285 3.813.89 1.625.103 2.914-.444 3.906-.603 1.094-.603 2.937.159 3.687m0-11.406l-2.095 2.75M20.928 1l1.968 2.75M29.119 1c-.17.865-.38 2.594.286 3.813.889 1.625.007 2.914-.54 3.906-.603 1.094-.508 2.937.254 3.687M29.12 1l-2.095 2.75M29.119 1l1.968 2.75M4.786 21c.948.797 2.308 2.093-.33 5.203-.783 1.136-.618 1.883.825 3.797m7.109-9c.473.797 1.153 2.093-.166 5.203-.391 1.136-.309 1.883.412 3.797m8.758-9c.132.221.28.481.397.807M21.642 30c-.723-1.914-.806-2.661-.413-3.797.533-1.253.74-2.21.767-2.96M28.393 21c.474.797 1.154 2.093-.165 5.203-.391 1.136-.309 1.883.412 3.797M1.496 14.5h28"  stroke-linecap="round" stroke-linejoin="round"></path>
  </symbol>
  <symbol   viewBox="0 0 38 31" id="tech-icon-3">
    <path d="M30.267 11.358l6.639 3.493a.712.712 0 01-.12 1.31l-6.519 2.022m0-6.825l6.519-2.022a.71.71 0 00.12-1.31l-13.2-6.945a.706.706 0 00-.539-.05L1.496 7.755a.711.711 0 00-.12 1.31l4.558 2.398c.72.378 1.453.719 2.2 1.021m22.133-1.125l-1.92.596-1.097.34m-19.117.19l-6.64 2.096a.71.71 0 00-.117 1.308l6.638 3.493m.12-6.898c.297.25 2.112.784 2.242.784.339.1.68.192 1.023.277M8.014 19.38l-6.518 2.022a.71.71 0 00-.12 1.31l13.2 6.945a.707.707 0 00.539.05l13.506-4.19 8.165-2.533a.71.71 0 00.12-1.31l-6.639-3.492M8.014 19.38l6.562 3.452a.704.704 0 00.539.05l15.152-4.7m-4.921-5.298l-4.38-1.089a7.091 7.091 0 01-4.251-3.431.708.708 0 00-1.18-.097c-1.306 1.677-3.27 2.549-5.396 2.833l-4.252.336m5.512 2.107a.718.718 0 00-.126.403.713.713 0 00.709.711.712.712 0 00.698-.833m-1.281-.281l1.28.28m0 0a24.384 24.384 0 008.94.036m0 0a.707.707 0 00.202.59.715.715 0 00.502.208.713.713 0 00.709-.711.714.714 0 00-.103-.366m-1.31.279l1.31-.279m0 0c.506-.122 1.008-.26 1.508-.414l1.481-.46m0 0a.705.705 0 001.13.178.718.718 0 00.202-.59m-1.332.412l1.332-.413" ></path>
    <path d="M15.197 18.845h0a.148.148 0 01.106-.053c.029 0 .07.014.105.052h0v.001a.27.27 0 01.064.178.27.27 0 01-.063.178h0-.001a.149.149 0 01-.105.053.148.148 0 01-.105-.052h0a.272.272 0 01-.065-.18c0-.072.028-.138.065-.177zm-4.151-2.073h0c.03-.031.077-.05.12-.05s.089.019.12.05l.341-.342-.341.342c.03.03.05.076.05.12a.18.18 0 01-.05.12.176.176 0 01-.12.05.175.175 0 01-.12-.05l-.33.33.33-.33a.175.175 0 01-.05-.12c0-.044.019-.09.05-.12zm9.377.015h0a.273.273 0 01.179-.065c.072 0 .139.028.178.065h0a.15.15 0 01.052.105.15.15 0 01-.052.105.273.273 0 01-.178.064.273.273 0 01-.179-.064l-.33.36.33-.36a.15.15 0 01-.052-.105.15.15 0 01.052-.105zm5.375-2.189h0a.237.237 0 01.163-.068c.06 0 .121.026.163.068l.325-.325-.325.325a.237.237 0 01.068.163.24.24 0 01-.068.163h0a.237.237 0 01-.163.067.237.237 0 01-.163-.067l-.325.325.325-.325a.236.236 0 01-.067-.163c0-.06.025-.121.067-.163zm-9.014 1.445a.149.149 0 01.105-.051c.028 0 .07.013.105.051.036.04.064.106.064.18a.273.273 0 01-.065.178l.37.338-.37-.338a.15.15 0 01-.104.052.149.149 0 01-.105-.052.273.273 0 01-.065-.179c0-.073.028-.14.064-.179l-.356-.327.357.327z" ></path>
  </symbol>
  <symbol   viewBox="0 0 16 9" id="soc-vk-icon">
    <path fill-rule="evenodd" clip-rule="evenodd" d="M15.633.61c.111-.352 0-.61-.53-.61h-1.75c-.445 0-.65.223-.761.469 0 0-.89 2.055-2.152 3.39-.407.386-.593.509-.816.509-.11 0-.272-.123-.272-.474V.609c0-.421-.129-.609-.5-.609h-2.75c-.279 0-.446.196-.446.381 0 .4.63.492.695 1.616v2.441c0 .536-.102.633-.324.633-.593 0-2.037-2.065-2.893-4.426C2.966.185 2.798 0 2.351 0H.6C.1 0 0 .223 0 .469c0 .44.594 2.617 2.763 5.498C4.21 7.934 6.247 9 8.102 9c1.113 0 1.25-.237 1.25-.645V6.868c0-.473.106-.568.458-.568.26 0 .705.123 1.743 1.072C12.74 8.496 12.935 9 13.603 9h1.75c.5 0 .75-.237.607-.704-.158-.466-.725-1.142-1.477-1.943-.408-.457-1.02-.949-1.205-1.194-.26-.317-.186-.457 0-.738 0 0 2.132-2.845 2.355-3.811z" ></path>
  </symbol>
  <symbol   viewBox="0 0 12 12" id="soc-inst-icon">
    <path d="M4 6a2 2 0 114 0 2 2 0 01-4 0zM2.92 6a3.08 3.08 0 106.16 0 3.08 3.08 0 00-6.162 0zm5.563-3.203a.72.72 0 10.72-.72.72.72 0 00-.72.72zm-4.907 8.087c-.585-.027-.903-.124-1.114-.207a1.872 1.872 0 01-.69-.448c-.21-.21-.34-.41-.45-.69-.081-.211-.179-.53-.206-1.114-.029-.633-.034-.823-.034-2.425 0-1.602.006-1.792.034-2.425.027-.585.125-.902.207-1.114.109-.28.239-.48.449-.69.21-.21.41-.34.69-.449.211-.082.53-.18 1.114-.206C4.21 1.086 4.4 1.08 6 1.08c1.602 0 1.792.006 2.425.035.585.026.902.125 1.114.206.28.109.48.24.69.449.21.21.34.41.45.69.082.211.18.53.206 1.114.029.633.035.823.035 2.425 0 1.602-.006 1.792-.035 2.425-.027.585-.125.903-.207 1.114-.109.28-.239.48-.449.69-.21.21-.41.34-.69.449-.21.082-.529.18-1.114.206-.632.029-.822.035-2.425.035-1.602 0-1.792-.006-2.424-.035zM3.526.036c-.638.03-1.075.13-1.456.279a2.943 2.943 0 00-1.063.692A2.932 2.932 0 00.315 2.07c-.148.381-.25.818-.279 1.456C.006 4.166 0 4.371 0 6c0 1.63.007 1.834.036 2.474.03.638.13 1.075.279 1.456.153.395.358.73.692 1.063a2.95 2.95 0 001.063.692c.382.148.818.25 1.456.279.64.029.845.036 2.474.036 1.63 0 1.834-.007 2.474-.036.639-.03 1.075-.13 1.456-.279a2.951 2.951 0 001.063-.692 2.94 2.94 0 00.692-1.063c.149-.381.25-.818.28-1.456.028-.64.035-.845.035-2.474 0-1.63-.007-1.834-.036-2.474-.029-.638-.13-1.075-.279-1.456a2.95 2.95 0 00-.692-1.063A2.937 2.937 0 009.931.315C9.549.167 9.113.065 8.475.036 7.835.007 7.63 0 6 0 4.37 0 4.167.007 3.526.036z" ></path>
  </symbol>
  <symbol   viewBox="0 0 12 12" id="phone-icon">
    <path d="M6.278 9.889L7.894 7.76a.567.567 0 01.567-.133 6.311 6.311 0 001.983.316c.306 0 .556.25.556.556v1.944c0 .306-.25.556-.556.556A9.444 9.444 0 011 1.556C1 1.25 1.25 1 1.556 1H3.5c.306 0 .556.25.556.556 0 .694.11 1.36.316 1.983a.545.545 0 01-.139.561L2.39 6" ></path>
  </symbol>
  <symbol   viewBox="0 0 13 13" id="search-icon">
    <path d="M9.291 8.176h-.587l-.208-.2A4.81 4.81 0 009.663 4.83 4.831 4.831 0 104.83 9.663a4.81 4.81 0 003.144-1.167l.201.208v.587L11.892 13 13 11.893 9.291 8.175zm-4.46 0a3.34 3.34 0 01-3.344-3.345A3.34 3.34 0 014.83 1.487 3.34 3.34 0 018.176 4.83a3.34 3.34 0 01-3.345 3.345z" ></path>
  </symbol>
  <symbol   viewBox="0 0 10 16" id="play-icon">
    <path d="M10 8L.25 15.794V.206L10 8z" ></path>
  </symbol>
  <symbol   viewBox="0 0 39 28" id="tech-icon-1">
    <path d="M37.996 27.4a.4.4 0 000-.8v.8zm-8.925-10.53h.4v-.4h-.4v.4zM.997 26.6a.4.4 0 000 .8v-.8zm37 0H33.75v.8h4.246v-.8zm-3.846.4v-1.688h-.8V27h.8zm0-1.688c0-.546-.456-.963-.985-.963v.8c.117 0 .185.087.185.163h.8zm-.985-.963h-.585v.8h.585v-.8zm-.185.4v-9.567h-.8v9.567h.8zm0-9.567c0-1.166-.98-2.088-2.154-2.088v.8c.76 0 1.354.592 1.354 1.288h.8zm-2.154-2.088h-4.093v.8h4.093v-.8zm-3.694.4V5.051h-.8v8.441h.8zm0-8.442c0-.546-.455-.963-.984-.963v.8c.116 0 .184.087.184.163h.8zm-.984-.963h-2.573v.8h2.573v-.8zm-2.173.4V2.801h-.8v1.688h.8zm0-1.688c0-.546-.456-.963-.985-.963v.8c.117 0 .185.087.185.163h.8zm-.985-.963h-4.678v.8h4.678v-.8zm-4.678 0c-.53 0-.985.417-.985.963h.8c0-.076.068-.163.185-.163v-.8zm-.985.963v1.688h.8V2.801h-.8zm.4 1.288H11.53v.8h6.198v-.8zm-5.798.4V1.563h-.8v2.926h.8zm0-2.926c0-.546-.456-.963-.985-.963v.8c.117 0 .185.087.185.163h.8zM8.605.6c-.53 0-.985.417-.985.963h.8c0-.076.068-.163.185-.163V.6zm-.985.963v2.926h.8V1.563h-.8zm.4 2.526H6.266v.8H8.02v-.8zm-1.754 0c-.53 0-.985.417-.985.963h.8c0-.076.068-.163.185-.163v-.8zm-.985.963V27h.8V5.052h-.8zM26.733 26.6H5.68v.8h21.052v-.8zM7.655 24.586h2.703v-.8H7.656v.8zm0-5.065h2.703v-.8H7.656v.8zm0-4.333h2.703v-.8H7.656v.8zm0-4.108h2.703v-.8H7.656v.8zm2.703-4.74H7.656v.8h2.703v-.8zm1.17-2.25H8.02v.8h3.509v-.8zm12.046 0h-5.848v.8h5.848v-.8zM11.929 27V4.49h-.8V27h.8zm20.651-2.651h-3.508v.8h3.508v-.8zm-5.447-7.479v-3.377h-.8v3.377h.8zm.369 8.442V27h.8v-1.688h-.8zm.4 1.288h-1.17v.8h1.17v-.8zm-.77.4V16.87h-.8V27h.8zm-.4-9.73h2.34v-.8h-2.34v.8zm1.94-.4v7.879h.8V16.87h-.8zm.4 7.479h-.585v.8h.585v-.8zm-.585 0c-.53 0-.985.417-.985.963h.8c0-.076.068-.163.185-.163v-.8zM33.75 26.6h-5.848v.8h5.848v-.8zm-28.069 0H.996v.8h4.685v-.8zM8.605 1.4h2.339V.6h-2.34v.8z" ></path>
  </symbol>
  <symbol   viewBox="0 0 36 25" id="stage-icon-2">
    <path d="M22.648 13.644h10.62m-8.472-2.624V7.508h3.068l1.3 3.512h-4.368z" ></path>
    <path d="M22.633 4.303h4.431a3.972 3.972 0 013.702 2.593l2.498 6.741 1.543 1.04a.573.573 0 01.251.475v5.71a.568.568 0 01-.564.57h-4.575M22.633 4.304V1.448a.568.568 0 00-.564-.57H1.737a.568.568 0 00-.565.57v19.414c0 .315.253.57.565.57h4.01M22.633 4.304H1.172m21.461 0v17.13m-16.886 0c.31 1.545 1.8 2.543 3.329 2.23a2.84 2.84 0 002.205-2.23m-5.534 0c-.139-1.253.266-1.948.523-2.284.07-.078.69-1.142 2.244-1.142a2.837 2.837 0 012.767 2.284c.056.22.024.853 0 1.142m0 0h13.103m0 0c.31 1.545 1.801 2.543 3.33 2.23a2.84 2.84 0 002.205-2.23m-5.535 0c-.088-.32-.037-.895 0-1.142a2.837 2.837 0 012.768-2.284c.923 0 1.86.64 2.244 1.142.257.336.436.726.523 1.142.057.196.136.7 0 1.142m-7.294-2.574H10.59m-4.132 0H1.172" ></path>
  </symbol>
</svg>