<svg width="26" height="27" viewBox="0 0 26 27" fill="none" xmlns="http://www.w3.org/2000/svg">
<path d="M13.2891 13.3123L10.0222 23.9953C9.98487 24.1135 9.9055 24.2138 9.79923 24.2769C9.71756 24.3253 9.62454 24.3508 9.52961 24.3509C9.47984 24.3511 9.43026 24.3434 9.3826 24.3284C4.39013 22.7286 1.00115 18.0733 1 12.8138C0.998655 6.13674 6.39104 0.722542 13.0443 0.721192C19.6977 0.719842 25.0924 6.13153 25.0937 12.8086C25.1041 17.6644 22.2092 22.052 17.7506 23.9384M13.2891 13.3123C13.5662 13.3123 13.7911 13.0869 13.7911 12.8086C13.7911 12.5305 13.5662 12.3048 13.2891 12.3048C13.0118 12.3048 12.7871 12.5305 12.7871 12.8086C12.7871 13.0869 13.0118 13.3123 13.2891 13.3123ZM13.0285 12.3779L8.38426 7.4129M17.7506 23.9384L17.2215 21.4494C17.1643 21.1772 16.8977 21.0033 16.6266 21.0609C16.5411 21.0792 16.4617 21.1196 16.3963 21.178L13.3762 23.884C13.169 24.069 13.1505 24.3874 13.335 24.5953C13.395 24.6628 13.4719 24.713 13.5579 24.7405L17.4139 25.9756C17.6778 26.0607 17.9604 25.9151 18.0452 25.6501C18.0721 25.5664 18.0765 25.4773 18.0585 25.3912L17.7506 23.9384Z" stroke="#BE3D3D" stroke-width="0.8" stroke-linecap="round" stroke-linejoin="round"/>
<path d="M12.8516 3.09131V4.27625" stroke="#BE3D3D" stroke-width="0.8" stroke-linecap="round" stroke-linejoin="round"/>
<path d="M3.76562 12.1758H4.55558" stroke="#BE3D3D" stroke-width="0.8" stroke-linecap="round" stroke-linejoin="round"/>
<path d="M22.7236 12.1758H21.9336" stroke="#BE3D3D" stroke-width="0.8" stroke-linecap="round" stroke-linejoin="round"/>
</svg>
