<svg width="32" height="38" viewBox="0 0 32 38" fill="none" xmlns="http://www.w3.org/2000/svg">
<path d="M28 18C28 21.3085 25.7571 24 23 24" stroke="#BE3D3D"/>
<path d="M12.8748 25.305C12.4784 25.8485 9 30.6751 9 32.7045C9 35.0328 11.0607 37 13.5 37C15.9393 37 18 35.0328 18 32.7045C18 30.6751 14.5216 25.8485 14.1252 25.305C13.986 25.1145 13.7514 25 13.5 25C13.2486 25 13.014 25.1145 12.8748 25.305Z" stroke="#BE3D3D"/>
<path d="M6 12C5.76535 12 5.54576 12.121 5.41239 12.3237C4.96066 13.0102 1 19.1071 1 21.75C1 24.6448 3.24302 27 6 27C8.75698 27 11 24.6448 11 21.75C11 19.1071 7.03934 13.0102 6.58761 12.3237C6.45424 12.121 6.23465 12 6 12Z" stroke="#BE3D3D"/>
<path d="M22.4184 1C22.6626 1 22.8897 1.11999 23.0212 1.31799C25.061 4.38945 31 13.9393 31 17.7355C31 22.2926 27.1503 26 22.4184 26C18.5877 26 15.1897 23.5217 14.1553 19.9736C13.7038 18.5133 14.3434 15.4956 14.7196 14.1693C16.7487 8.98387 21.6097 1.62871 21.8156 1.31799C21.9471 1.11999 22.1743 1 22.4184 1Z" stroke="#BE3D3D"/>
</svg>
