<svg width="32" height="33" viewBox="0 0 32 33" fill="none" xmlns="http://www.w3.org/2000/svg">
<path d="M15.3755 13.9879C15.4315 14.0054 15.4915 14.0039 15.5467 13.9835C15.6018 13.9631 15.649 13.925 15.6815 13.8747L18.9542 8.81224C18.9816 8.76988 18.9973 8.72066 18.9997 8.66981C19.0021 8.61896 18.991 8.5684 18.9677 8.52352C18.9444 8.47863 18.9098 8.44111 18.8674 8.41495C18.8251 8.38879 18.7766 8.37497 18.7273 8.37497H16.8182V5.28124C16.8182 5.22088 16.7994 5.16212 16.7645 5.11365C16.7296 5.06518 16.6805 5.02956 16.6245 5.01207C16.5685 4.99458 16.5085 4.99613 16.4534 5.01651C16.3983 5.03688 16.351 5.075 16.3185 5.12522L13.0458 10.1877C13.0184 10.23 13.0027 10.2793 13.0003 10.3301C12.9979 10.381 13.009 10.4315 13.0323 10.4764C13.0556 10.5213 13.0902 10.5588 13.1326 10.585C13.1749 10.6111 13.2234 10.625 13.2727 10.625H15.1818V13.7187C15.1818 13.779 15.2006 13.8378 15.2355 13.8863C15.2704 13.9348 15.3195 13.9704 15.3755 13.9879Z" stroke="#BE3D3D"/>
<path d="M26.3966 17.7747L26.6318 12.3211L26.7981 8.98952C26.8209 8.45336 27.0488 7.94687 27.4341 7.57605C27.8194 7.20524 28.3321 6.99882 28.8651 7.00001H28.931C29.4796 7.00063 30.0055 7.22032 30.3933 7.61088C30.7812 8.00145 30.9994 8.53099 31 9.08334V20.0208C30.9991 20.425 30.9053 20.8234 30.7258 21.1849C30.5463 21.5463 30.2861 21.861 29.9655 22.1042L23.2361 27.1863M26.3966 17.7747C25.9497 17.3481 25.3668 17.0953 24.7519 17.0615C24.137 17.0277 23.5302 17.2151 23.0399 17.5903L16.4978 22.6274C16.3093 22.7732 16.1417 22.9446 16 23.1367M26.3966 17.7747C26.6164 17.8886 27.2241 19.2725 26.3258 20.1771L23.0399 23.0172M16 23.1367C15.8583 22.9445 15.6907 22.7731 15.5022 22.6273L8.96009 17.59C8.46976 17.2148 7.86294 17.0274 7.24805 17.0613C6.63316 17.0951 6.05024 17.348 5.60345 17.7747M16 23.1367V32M5.60345 17.7747L5.3125 11.021L5.2022 8.99291C5.17999 8.45617 4.95235 7.94891 4.56698 7.5774C4.18161 7.2059 3.66842 6.99898 3.13491 7.00001H3.06897C2.52043 7.00063 1.99454 7.22032 1.60667 7.61088C1.21879 8.00145 1.00062 8.53099 1 9.08334V20.0208C1.00087 20.425 1.09473 20.8234 1.27421 21.1849C1.4537 21.5463 1.71393 21.861 2.03448 22.1042L8.76386 27.1863M5.60345 17.7747C5.06552 18.2695 4.87931 19.4479 5.60345 20.1771L8.93526 23.0172M8.76386 27.1863C8.59958 27.3326 8.46804 27.5123 8.37797 27.7137C8.28789 27.915 8.24133 28.1333 8.24138 28.3542V31.4792C8.24138 31.6173 8.29587 31.7498 8.39288 31.8475C8.48988 31.9451 8.62144 32 8.75862 32H16M8.76386 27.1863H23.2361M23.2361 27.1863C23.4004 27.3326 23.532 27.5123 23.622 27.7137C23.7121 27.915 23.7587 28.1333 23.7586 28.3542V31.4792C23.7586 31.6173 23.7041 31.7498 23.6071 31.8475C23.5101 31.9451 23.3786 32 23.2414 32H16" stroke="#BE3D3D"/>
<path d="M13.1807 1C9.59107 2.10936 7 5.2795 7 9.01712C7 12.717 9.539 15.8608 13.0723 17M13.1807 1V3.57716M13.1807 1L10.5 0.5M19.1988 1.12625C22.5901 2.3358 25 5.41256 25 9.01712C25 12.717 22.461 15.8608 18.9277 17M18.9277 17V13.8469M18.9277 17H22.1265" stroke="#BE3D3D" stroke-linecap="round" stroke-linejoin="round"/>
</svg>
