<svg width="29" height="31" viewBox="0 0 29 31" fill="none" xmlns="http://www.w3.org/2000/svg">
<path d="M7.06486 23.4241L7.20694 23.2785V23.075V3.19315C7.20694 1.70869 8.41558 0.5 9.90009 0.5C11.3846 0.5 12.5933 1.70871 12.5933 3.19315V23.075V23.2785L12.7354 23.4241C13.4614 24.1685 13.8706 25.1616 13.8706 26.184C13.8706 28.3726 12.0887 30.1545 9.90015 30.1545C7.71154 30.1545 5.92969 28.3726 5.92969 26.184C5.92969 25.1616 6.33881 24.1685 7.06486 23.4241Z" stroke="#BE3D3D"/>
<path d="M10.3965 12.7734C10.3965 12.4973 10.1726 12.2734 9.89647 12.2734C9.62032 12.2734 9.39647 12.4973 9.39647 12.7734H10.3965ZM9.89647 26.3234C9.82023 26.3234 9.75781 26.261 9.75781 26.1848H8.75781C8.75781 26.8133 9.26801 27.3234 9.89647 27.3234V26.3234ZM9.75781 26.1848C9.75781 26.1085 9.82024 26.0461 9.89647 26.0461V25.0461C9.26788 25.0461 8.75781 25.5563 8.75781 26.1848H9.75781ZM9.89647 26.0461C9.9727 26.0461 10.0351 26.1085 10.0351 26.1848H11.0351C11.0351 25.5562 10.5249 25.0461 9.89647 25.0461V26.0461ZM10.0351 26.1848C10.0351 26.261 9.97273 26.3234 9.89647 26.3234V27.3234C10.525 27.3234 11.0351 26.8133 11.0351 26.1848H10.0351ZM10.3965 25.5461V12.7734H9.39647V25.5461H10.3965Z" fill="#BE3D3D"/>
<path d="M4 20.4375H0" stroke="#BE3D3D"/>
<path d="M4 18H2" stroke="#BE3D3D"/>
<path d="M4 15H2" stroke="#BE3D3D"/>
<path d="M4 12.7734H0" stroke="#BE3D3D"/>
<path d="M4 10H2" stroke="#BE3D3D"/>
<path d="M23.312 12.1346C23.312 10.374 21.8794 8.94141 20.1188 8.94141H18.8416C17.081 8.94141 15.6484 10.374 15.6484 12.1346V17.2436C15.6484 19.0042 17.081 20.4368 18.8416 20.4368H20.1188C21.8794 20.4368 23.3119 19.0042 23.3119 17.2436" stroke="#BE3D3D"/>
<path d="M25.0859 10.8573C25.0859 10.077 25.7215 9.44141 26.5018 9.44141C27.2822 9.44141 27.9177 10.077 27.9177 10.8573C27.9177 11.6377 27.2822 12.2732 26.5018 12.2732C25.7215 12.2732 25.0859 11.6377 25.0859 10.8573Z" stroke="#BE3D3D"/>
</svg>
