<svg width="17" height="17" viewBox="0 0 17 17" fill="none" xmlns="http://www.w3.org/2000/svg">
<path d="M9.86667 10.732L9.57406 10.732C9.57396 10.732 9.57386 10.732 9.57376 10.732H9.57333V10.332L9.86667 10.732ZM9.86667 10.732C10.0876 10.732 10.2667 10.9111 10.2667 11.132M9.86667 10.732L10.2667 11.132M10.2667 11.132V12.1987M10.2667 11.132V12.1987M10.2667 12.1987C10.2667 12.4196 10.0876 12.5987 9.86667 12.5987M10.2667 12.1987L9.86667 12.5987M9.86667 12.5987H9.57378M9.86667 12.5987H9.57378M9.57378 12.5987C9.29703 12.5981 9.04944 12.7697 8.95246 13.0283C8.92074 13.1077 8.88906 13.1831 8.85565 13.2567C8.85546 13.2571 8.85528 13.2575 8.85509 13.2579L9.2192 13.4235M9.57378 12.5987L8.99011 14.0044L8.98951 14.0038L9.27253 13.7211M9.2192 13.4235C9.17247 13.524 9.1938 13.6431 9.27253 13.7211M9.2192 13.4235C9.2568 13.3408 9.29173 13.2574 9.32587 13.1718L9.2192 13.4235ZM9.27253 13.7211L8.99096 14.0052L9.19766 14.2122L9.48133 13.9302M9.27253 13.7211L9.48133 13.9302M9.48133 13.9302L9.19831 14.2128L9.19786 14.2124C9.35336 14.369 9.35342 14.6217 9.19805 14.7784L9.19849 14.778L9.48133 15.0608M9.48133 13.9302C9.79227 14.2429 9.79227 14.7481 9.48133 15.0608M9.48133 15.0608L9.19766 14.7788L8.44556 15.5309L8.72773 15.8144M9.48133 15.0608L8.72773 15.8144M8.72773 15.8144L8.44489 15.5316L8.44523 15.5312C8.28871 15.6867 8.03621 15.687 7.87929 15.532L7.87999 15.5327L7.59733 15.8158M8.72773 15.8144C8.4153 16.1254 7.9105 16.126 7.59733 15.8158M7.59733 15.8158L7.87884 15.5316L7.6715 15.3245L7.388 15.6067M7.59733 15.8158L7.388 15.6067M7.388 15.6067L7.67066 15.3237L7.67111 15.3241M7.388 15.6067C7.30983 15.5282 7.19097 15.5069 7.0904 15.5534M7.67111 15.3241L3.96837 15.2842M7.67111 15.3241C7.4744 15.1268 7.17544 15.0734 6.92252 15.1903L7.0904 15.5534M7.67111 15.3241L6.83893 15.6584C6.92427 15.6259 7.00773 15.591 7.0904 15.5534M7.0904 15.5534L6.92479 15.1893C6.85017 15.2232 6.77505 15.2547 6.69837 15.2839C6.4387 15.3804 6.26646 15.6283 6.26667 15.9054V16.1987C6.26667 16.4196 6.08759 16.5987 5.86667 16.5987H4.8C4.57908 16.5987 4.4 16.4196 4.4 16.1987L4.4 15.9061C4.4 15.906 4.4 15.9059 4.4 15.9058V15.9054H4M4 15.9054C4.0002 15.7943 3.9303 15.6951 3.8256 15.6579M4 15.9054V16.1987C4 16.6405 4.35817 16.9987 4.8 16.9987H5.86667C6.3085 16.9987 6.66667 16.6405 6.66667 16.1987V15.9054H4ZM3.8256 15.6579L3.97376 15.2863C3.97196 15.2856 3.97016 15.2849 3.96837 15.2842M3.8256 15.6579L3.95952 15.281C3.96248 15.282 3.96543 15.2831 3.96837 15.2842M3.8256 15.6579C3.74 15.6238 3.65653 15.5888 3.57387 15.5512M3.96837 15.2842C3.88906 15.2525 3.8137 15.2209 3.74025 15.1875M3.57387 15.5512L3.74144 15.188C3.74104 15.1878 3.74065 15.1877 3.74025 15.1875M3.57387 15.5512C3.4733 15.5048 3.35447 15.5261 3.27627 15.6046M3.57387 15.5512L3.73947 15.1871C3.73973 15.1872 3.73999 15.1874 3.74025 15.1875M3.74025 15.1875L3.27627 15.6046M3.27627 15.6046L3.0672 15.8134C2.75443 16.1243 2.2493 16.1243 1.93653 15.8134L3.27627 15.6046ZM1.34213 10.16C1.30397 10.2643 1.20433 10.3332 1.09333 10.332V10.732H1.0917H0.8C0.57908 10.732 0.4 10.9111 0.4 11.132V12.1987C0.4 12.4196 0.57908 12.5987 0.8 12.5987H1.09333C1.37037 12.5985 1.6183 12.7707 1.71476 13.0304L1.71646 10.3011M1.34213 10.16L1.71565 10.3032C1.71592 10.3025 1.71619 10.3018 1.71646 10.3011M1.34213 10.16L1.71774 10.2976C1.71732 10.2987 1.71689 10.2999 1.71646 10.3011M1.34213 10.16C1.37493 10.0744 1.40987 9.99096 1.44747 9.9083M1.71646 10.3011C1.74598 10.2241 1.77734 10.1492 1.81106 10.075M1.44747 9.9083L1.81019 10.0769C1.81048 10.0763 1.81077 10.0757 1.81106 10.075M1.44747 9.9083C1.4942 9.80776 1.47287 9.68873 1.39413 9.6107M1.44747 9.9083L1.81157 10.0739C1.8114 10.0743 1.81123 10.0747 1.81106 10.075M1.81106 10.075C1.92757 9.82236 1.8739 9.52374 1.67657 9.32745L1.39413 9.6107M9.22133 9.9083L8.85861 10.0769C8.74099 9.8239 8.79438 9.52436 8.9921 9.32758C8.99243 9.32725 8.99276 9.32692 8.99309 9.32659L9.19965 9.11976C9.19979 9.11963 9.19992 9.11949 9.20006 9.11935C9.35513 8.96247 9.35477 8.70991 9.19924 8.5535C9.19916 8.55341 9.19908 8.55333 9.199 8.55325L8.44679 7.80104C8.44668 7.80092 8.44656 7.80081 8.44645 7.8007C8.28978 7.64531 8.03712 7.64532 7.88046 7.80072C7.88035 7.80083 7.88025 7.80093 7.88014 7.80104L7.67233 8.00859C7.67214 8.00877 7.67196 8.00896 7.67177 8.00915C7.67176 8.00916 7.67174 8.00917 7.67173 8.00919C7.47538 8.20562 7.1775 8.25912 6.92508 8.14325L9.4824 8.27096C9.79353 8.58333 9.7941 9.08826 9.48373 9.40136L9.27467 9.6107C9.19593 9.68873 9.1746 9.80776 9.22133 9.9083ZM9.22133 9.9083C9.25893 9.99096 9.29387 10.0744 9.3264 10.1598M9.22133 9.9083L8.85723 10.0739C8.89117 10.1485 8.92263 10.2237 8.95191 10.3003M9.3264 10.1598L8.95073 10.2971C8.95112 10.2982 8.95151 10.2993 8.95191 10.3003M9.3264 10.1598L8.95264 10.3023C8.9524 10.3016 8.95215 10.301 8.95191 10.3003M9.3264 10.1598L8.95191 10.3003M1.39413 9.6107L1.18533 9.40163C0.8744 9.08886 0.8744 8.58373 1.18533 8.27096L1.39413 9.6107ZM3.96831 8.04679C4.2281 7.95027 4.40038 7.70215 4.4 7.42494V7.42536H4L4.4 7.42464L3.96831 8.04679ZM6.26667 7.42492V7.42536H6.66667L6.26667 7.42392C6.26667 7.42426 6.26667 7.42459 6.26667 7.42492ZM6.83973 7.67283L6.69158 8.04438C6.69312 8.045 6.69467 8.04562 6.69622 8.04623C6.69874 8.04718 6.70128 8.04811 6.70382 8.04903L6.83973 7.67283Z" stroke="#2A2626" stroke-width="0.8"/>
<path d="M3.79709 5.76747L2.90652 4.8753C2.58845 4.55713 2.58845 4.04138 2.90652 3.72322L4.05918 2.5706C4.3777 2.25362 4.89251 2.25362 5.21102 2.5706L5.8175 3.17624C5.89776 3.25799 6.02137 3.279 6.12413 3.22838C6.36205 3.10909 6.60812 3.0067 6.86043 2.92203C6.96805 2.88469 7.03976 2.78281 7.0386 2.66891V1.81477C7.0386 1.36478 7.40339 1 7.85339 1H9.48297C9.93298 1 10.2978 1.36478 10.2978 1.81477V2.66891C10.2967 2.78308 10.369 2.88506 10.477 2.92203C10.7295 3.00673 10.9756 3.10919 11.2136 3.22866C11.3164 3.2789 11.4397 3.25778 11.52 3.17624L12.1253 2.57114C12.4435 2.25325 12.959 2.25325 13.2772 2.57114L14.432 3.72403C14.7499 4.04216 14.7499 4.55771 14.432 4.87584L13.8264 5.4823C13.7448 5.56262 13.7238 5.68616 13.7742 5.78892C13.8931 6.02687 13.995 6.27293 14.0792 6.5252C14.1166 6.63278 14.2184 6.70451 14.3323 6.70336H15.1865C15.6365 6.70336 16.0013 7.06814 16.0013 7.51812V9.14766C16.0013 9.59764 15.6365 9.96242 15.1865 9.96242H14.3323C14.2182 9.9614 14.1162 10.0336 14.0792 10.1417C13.9945 10.3941 13.892 10.6402 13.7726 10.8782C13.7224 10.981 13.7435 11.1043 13.825 11.1846L14.4298 11.7905C14.7479 12.1086 14.7479 12.6244 14.4298 12.9426L13.2772 14.0949C12.959 14.4128 12.4435 14.4128 12.1253 14.0949L11.2331 13.2044C11.2309 13.2022 11.2287 13.2 11.2265 13.1977" stroke="#2A2626" stroke-width="0.8" stroke-linecap="round"/>
<path d="M6.82422 5.88976C8.02546 5.16881 9.60678 5.32497 10.6434 6.35824C11.6776 7.39345 11.834 8.97255 11.1129 10.1724" stroke="#2A2626" stroke-width="0.8" stroke-linecap="round"/>
</svg>
