<svg width="23" height="18" viewBox="0 0 23 18" fill="none" xmlns="http://www.w3.org/2000/svg">
<path d="M22 17.4C22.2209 17.4 22.4 17.2209 22.4 17C22.4 16.7791 22.2209 16.6 22 16.6V17.4ZM16.9347 10.7662H17.3347V10.3662H16.9347V10.7662ZM1 16.6C0.779086 16.6 0.6 16.7791 0.6 17C0.6 17.2209 0.779086 17.4 1 17.4V16.6ZM22 16.6H19.5898V17.4H22V16.6ZM19.9898 17V15.961H19.1898V17H19.9898ZM19.9898 15.961C19.9898 15.5651 19.6781 15.2147 19.2579 15.2147V16.0147C19.2335 16.0147 19.2142 16.0037 19.2038 15.9929C19.1938 15.9824 19.1898 15.9703 19.1898 15.961H19.9898ZM19.2579 15.2147H18.9261V16.0147H19.2579V15.2147ZM19.3261 15.6147V9.72727H18.5261V15.6147H19.3261ZM19.3261 9.72727C19.3261 8.94969 18.7162 8.28831 17.9304 8.28831V9.08831C18.2426 9.08831 18.5261 9.35909 18.5261 9.72727H19.3261ZM17.9304 8.28831H15.6072V9.08831H17.9304V8.28831ZM16.0072 8.68831V3.49351H15.2072V8.68831H16.0072ZM16.0072 3.49351C16.0072 3.09759 15.6954 2.74719 15.2753 2.74719V3.54719C15.2508 3.54719 15.2315 3.5362 15.2211 3.52538C15.2111 3.51487 15.2072 3.50278 15.2072 3.49351H16.0072ZM15.2753 2.74719H13.8149V3.54719H15.2753V2.74719ZM14.2149 3.14719V2.10823H13.4149V3.14719H14.2149ZM14.2149 2.10823C14.2149 1.71231 13.9032 1.3619 13.483 1.3619V2.1619C13.4586 2.1619 13.4393 2.15092 13.4289 2.1401C13.4189 2.12959 13.4149 2.11749 13.4149 2.10823H14.2149ZM13.483 1.3619H10.8279V2.1619H13.483V1.3619ZM10.8279 1.3619C10.4078 1.3619 10.096 1.71231 10.096 2.10823H10.896C10.896 2.11749 10.8921 2.12959 10.882 2.1401C10.8717 2.15092 10.8524 2.1619 10.8279 2.1619V1.3619ZM10.096 2.10823V3.14719H10.896V2.10823H10.096ZM10.496 2.74719H6.97799V3.54719H10.496V2.74719ZM7.37799 3.14719V1.34632H6.57799V3.14719H7.37799ZM7.37799 1.34632C7.37799 0.950409 7.06621 0.6 6.6461 0.6V1.4C6.62166 1.4 6.60234 1.38902 6.59198 1.3782C6.5819 1.36768 6.57799 1.35559 6.57799 1.34632H7.37799ZM5.31853 0.6C4.89842 0.6 4.58664 0.950409 4.58664 1.34632H5.38664C5.38664 1.35559 5.38273 1.36768 5.37265 1.3782C5.36229 1.38902 5.34297 1.4 5.31853 1.4V0.6ZM4.58664 1.34632V3.14719H5.38664V1.34632H4.58664ZM4.98664 2.74719H3.99097V3.54719H4.98664V2.74719ZM3.99097 2.74719C3.57085 2.74719 3.25908 3.0976 3.25908 3.49351H4.05908C4.05908 3.50278 4.05517 3.51487 4.04509 3.52538C4.03472 3.5362 4.01541 3.54719 3.99097 3.54719V2.74719ZM3.25908 3.49351V17H4.05908V3.49351H3.25908ZM15.6072 16.6H3.65908V17.4H15.6072V16.6ZM4.78 15.6684H6.3142V14.8684H4.78V15.6684ZM4.78 12.5515H6.3142V11.7515H4.78V12.5515ZM4.78 9.88485H6.3142V9.08485H4.78V9.88485ZM4.78 7.35671H6.3142V6.55671H4.78V7.35671ZM6.3142 4.13247H4.78V4.93247H6.3142V4.13247ZM6.97799 2.74719H4.98664V3.54719H6.97799V2.74719ZM13.8149 2.74719H10.496V3.54719H13.8149V2.74719ZM7.37799 17V3.14719H6.57799V17H7.37799ZM18.9261 15.2147H16.9347V16.0147H18.9261V15.2147ZM16.0072 10.7662V8.68831H15.2072V10.7662H16.0072ZM15.8709 15.961V17H16.6709V15.961H15.8709ZM16.2709 16.6H15.6072V17.4H16.2709V16.6ZM16.0072 17V10.7662H15.2072V17H16.0072ZM15.6072 11.1662H16.9347V10.3662H15.6072V11.1662ZM16.5347 10.7662V15.6147H17.3347V10.7662H16.5347ZM16.9347 15.2147H16.6028V16.0147H16.9347V15.2147ZM16.6028 15.2147C16.1827 15.2147 15.8709 15.5651 15.8709 15.961H16.6709C16.6709 15.9703 16.667 15.9824 16.6569 15.9929C16.6466 16.0037 16.6273 16.0147 16.6028 16.0147V15.2147ZM19.5898 16.6H16.2709V17.4H19.5898V16.6ZM3.65908 16.6H1V17.4H3.65908V16.6ZM5.31853 1.4H6.6461V0.6H5.31853V1.4Z" fill="#2A2626"/>
</svg>
