<svg width="21" height="20" viewBox="0 0 21 20" fill="none" xmlns="http://www.w3.org/2000/svg">
<path d="M11.125 2.525C11.3459 2.525 11.525 2.34591 11.525 2.125C11.525 1.90409 11.3459 1.725 11.125 1.725V2.525ZM14.9 13.375C14.9 13.1541 14.7209 12.975 14.5 12.975C14.2791 12.975 14.1 13.1541 14.1 13.375H14.9ZM11.125 1.725H2.4061V2.525H11.125V1.725ZM2.4061 1.725C1.43602 1.725 0.6 2.46781 0.6 3.43826H1.4C1.4 2.96025 1.82547 2.525 2.4061 2.525V1.725ZM0.6 3.43826V17.6866H1.4V3.43826H0.6ZM0.6 17.6866C0.6 18.6569 1.4359 19.4 2.4061 19.4V18.6C1.82551 18.6 1.4 18.1646 1.4 17.6866H0.6ZM2.4061 19.4H13.0936V18.6H2.4061V19.4ZM13.0936 19.4C14.0633 19.4 14.9 18.6571 14.9 17.6866H14.1C14.1 18.1644 13.674 18.6 13.0936 18.6V19.4ZM14.5 17.6866C14.9 17.6866 14.9 17.6866 14.9 17.6866C14.9 17.6866 14.9 17.6865 14.9 17.6865C14.9 17.6865 14.9 17.6864 14.9 17.6864C14.9 17.6863 14.9 17.6863 14.9 17.6862C14.9 17.6861 14.9 17.686 14.9 17.686C14.9 17.6859 14.9 17.6858 14.9 17.6857C14.9 17.6856 14.9 17.6855 14.9 17.6853C14.9 17.6852 14.9 17.6851 14.9 17.685C14.9 17.6848 14.9 17.6847 14.9 17.6845C14.9 17.6844 14.9 17.6842 14.9 17.6841C14.9 17.6839 14.9 17.6837 14.9 17.6835C14.9 17.6833 14.9 17.6831 14.9 17.6829C14.9 17.6827 14.9 17.6825 14.9 17.6823C14.9 17.6821 14.9 17.6819 14.9 17.6816C14.9 17.6814 14.9 17.6812 14.9 17.6809C14.9 17.6807 14.9 17.6804 14.9 17.6801C14.9 17.6799 14.9 17.6796 14.9 17.6793C14.9 17.679 14.9 17.6787 14.9 17.6784C14.9 17.6781 14.9 17.6778 14.9 17.6775C14.9 17.6772 14.9 17.6768 14.9 17.6765C14.9 17.6762 14.9 17.6758 14.9 17.6755C14.9 17.6751 14.9 17.6748 14.9 17.6744C14.9 17.674 14.9 17.6737 14.9 17.6733C14.9 17.6729 14.9 17.6725 14.9 17.6721C14.9 17.6717 14.9 17.6713 14.9 17.6709C14.9 17.6705 14.9 17.6701 14.9 17.6696C14.9 17.6692 14.9 17.6688 14.9 17.6683C14.9 17.6679 14.9 17.6674 14.9 17.6669C14.9 17.6665 14.9 17.666 14.9 17.6655C14.9 17.6651 14.9 17.6646 14.9 17.6641C14.9 17.6636 14.9 17.6631 14.9 17.6626C14.9 17.6621 14.9 17.6615 14.9 17.661C14.9 17.6605 14.9 17.6599 14.9 17.6594C14.9 17.6589 14.9 17.6583 14.9 17.6577C14.9 17.6572 14.9 17.6566 14.9 17.656C14.9 17.6555 14.9 17.6549 14.9 17.6543C14.9 17.6537 14.9 17.6531 14.9 17.6525C14.9 17.6519 14.9 17.6513 14.9 17.6507C14.9 17.65 14.9 17.6494 14.9 17.6488C14.9 17.6481 14.9 17.6475 14.9 17.6468C14.9 17.6462 14.9 17.6455 14.9 17.6449C14.9 17.6442 14.9 17.6435 14.9 17.6428C14.9 17.6421 14.9 17.6415 14.9 17.6408C14.9 17.6401 14.9 17.6393 14.9 17.6386C14.9 17.6379 14.9 17.6372 14.9 17.6365C14.9 17.6357 14.9 17.635 14.9 17.6342C14.9 17.6335 14.9 17.6327 14.9 17.632C14.9 17.6312 14.9 17.6305 14.9 17.6297C14.9 17.6289 14.9 17.6281 14.9 17.6273C14.9 17.6265 14.9 17.6257 14.9 17.6249C14.9 17.6241 14.9 17.6233 14.9 17.6225C14.9 17.6217 14.9 17.6208 14.9 17.62C14.9 17.6191 14.9 17.6183 14.9 17.6174C14.9 17.6166 14.9 17.6157 14.9 17.6149C14.9 17.614 14.9 17.6131 14.9 17.6122C14.9 17.6114 14.9 17.6105 14.9 17.6096C14.9 17.6087 14.9 17.6078 14.9 17.6069C14.9 17.6059 14.9 17.605 14.9 17.6041C14.9 17.6032 14.9 17.6022 14.9 17.6013C14.9 17.6003 14.9 17.5994 14.9 17.5984C14.9 17.5975 14.9 17.5965 14.9 17.5955C14.9 17.5946 14.9 17.5936 14.9 17.5926C14.9 17.5916 14.9 17.5906 14.9 17.5896C14.9 17.5886 14.9 17.5876 14.9 17.5866C14.9 17.5856 14.9 17.5845 14.9 17.5835C14.9 17.5825 14.9 17.5814 14.9 17.5804C14.9 17.5793 14.9 17.5783 14.9 17.5772C14.9 17.5762 14.9 17.5751 14.9 17.574C14.9 17.5729 14.9 17.5718 14.9 17.5708C14.9 17.5697 14.9 17.5686 14.9 17.5675C14.9 17.5664 14.9 17.5652 14.9 17.5641C14.9 17.563 14.9 17.5619 14.9 17.5607C14.9 17.5596 14.9 17.5585 14.9 17.5573C14.9 17.5562 14.9 17.555 14.9 17.5538C14.9 17.5527 14.9 17.5515 14.9 17.5503C14.9 17.5492 14.9 17.548 14.9 17.5468C14.9 17.5456 14.9 17.5444 14.9 17.5432C14.9 17.542 14.9 17.5408 14.9 17.5395C14.9 17.5383 14.9 17.5371 14.9 17.5359C14.9 17.5346 14.9 17.5334 14.9 17.5321C14.9 17.5309 14.9 17.5296 14.9 17.5284C14.9 17.5271 14.9 17.5258 14.9 17.5246C14.9 17.5233 14.9 17.522 14.9 17.5207C14.9 17.5194 14.9 17.5181 14.9 17.5168C14.9 17.5155 14.9 17.5142 14.9 17.5129C14.9 17.5115 14.9 17.5102 14.9 17.5089C14.9 17.5075 14.9 17.5062 14.9 17.5049C14.9 17.5035 14.9 17.5022 14.9 17.5008C14.9 17.4994 14.9 17.4981 14.9 17.4967C14.9 17.4953 14.9 17.4939 14.9 17.4925C14.9 17.4912 14.9 17.4898 14.9 17.4884C14.9 17.487 14.9 17.4855 14.9 17.4841C14.9 17.4827 14.9 17.4813 14.9 17.4799C14.9 17.4784 14.9 17.477 14.9 17.4755C14.9 17.4741 14.9 17.4726 14.9 17.4712C14.9 17.4697 14.9 17.4683 14.9 17.4668C14.9 17.4653 14.9 17.4638 14.9 17.4624C14.9 17.4609 14.9 17.4594 14.9 17.4579C14.9 17.4564 14.9 17.4549 14.9 17.4534C14.9 17.4518 14.9 17.4503 14.9 17.4488C14.9 17.4473 14.9 17.4457 14.9 17.4442C14.9 17.4427 14.9 17.4411 14.9 17.4396C14.9 17.438 14.9 17.4365 14.9 17.4349C14.9 17.4333 14.9 17.4317 14.9 17.4302C14.9 17.4286 14.9 17.427 14.9 17.4254C14.9 17.4238 14.9 17.4222 14.9 17.4206C14.9 17.419 14.9 17.4174 14.9 17.4158C14.9 17.4142 14.9 17.4125 14.9 17.4109C14.9 17.4093 14.9 17.4076 14.9 17.406C14.9 17.4043 14.9 17.4027 14.9 17.401C14.9 17.3994 14.9 17.3977 14.9 17.396C14.9 17.3944 14.9 17.3927 14.9 17.391C14.9 17.3893 14.9 17.3876 14.9 17.3859C14.9 17.3842 14.9 17.3825 14.9 17.3808C14.9 17.3791 14.9 17.3774 14.9 17.3756C14.9 17.3739 14.9 17.3722 14.9 17.3705C14.9 17.3687 14.9 17.367 14.9 17.3652C14.9 17.3635 14.9 17.3617 14.9 17.36C14.9 17.3582 14.9 17.3564 14.9 17.3546C14.9 17.3529 14.9 17.3511 14.9 17.3493C14.9 17.3475 14.9 17.3457 14.9 17.3439C14.9 17.3421 14.9 17.3403 14.9 17.3385C14.9 17.3367 14.9 17.3349 14.9 17.333C14.9 17.3312 14.9 17.3294 14.9 17.3275C14.9 17.3257 14.9 17.3239 14.9 17.322C14.9 17.3201 14.9 17.3183 14.9 17.3164C14.9 17.3146 14.9 17.3127 14.9 17.3108C14.9 17.3089 14.9 17.3071 14.9 17.3052C14.9 17.3033 14.9 17.3014 14.9 17.2995C14.9 17.2976 14.9 17.2957 14.9 17.2938C14.9 17.2918 14.9 17.2899 14.9 17.288C14.9 17.2861 14.9 17.2841 14.9 17.2822C14.9 17.2803 14.9 17.2783 14.9 17.2764C14.9 17.2744 14.9 17.2724 14.9 17.2705C14.9 17.2685 14.9 17.2665 14.9 17.2646C14.9 17.2626 14.9 17.2606 14.9 17.2586C14.9 17.2566 14.9 17.2546 14.9 17.2526C14.9 17.2506 14.9 17.2486 14.9 17.2466C14.9 17.2446 14.9 17.2426 14.9 17.2406C14.9 17.2385 14.9 17.2365 14.9 17.2345C14.9 17.2324 14.9 17.2304 14.9 17.2283C14.9 17.2263 14.9 17.2242 14.9 17.2222C14.9 17.2201 14.9 17.2181 14.9 17.216C14.9 17.2139 14.9 17.2118 14.9 17.2097C14.9 17.2077 14.9 17.2056 14.9 17.2035C14.9 17.2014 14.9 17.1993 14.9 17.1972C14.9 17.1951 14.9 17.1929 14.9 17.1908C14.9 17.1887 14.9 17.1866 14.9 17.1844C14.9 17.1823 14.9 17.1802 14.9 17.178C14.9 17.1759 14.9 17.1737 14.9 17.1716C14.9 17.1694 14.9 17.1673 14.9 17.1651C14.9 17.1629 14.9 17.1608 14.9 17.1586C14.9 17.1564 14.9 17.1542 14.9 17.152C14.9 17.1498 14.9 17.1476 14.9 17.1454C14.9 17.1432 14.9 17.141 14.9 17.1388C14.9 17.1366 14.9 17.1344 14.9 17.1322C14.9 17.1299 14.9 17.1277 14.9 17.1255C14.9 17.1232 14.9 17.121 14.9 17.1187C14.9 17.1165 14.9 17.1142 14.9 17.112C14.9 17.1097 14.9 17.1075 14.9 17.1052C14.9 17.1029 14.9 17.1006 14.9 17.0984C14.9 17.0961 14.9 17.0938 14.9 17.0915C14.9 17.0892 14.9 17.0869 14.9 17.0846C14.9 17.0823 14.9 17.08 14.9 17.0777C14.9 17.0753 14.9 17.073 14.9 17.0707C14.9 17.0684 14.9 17.066 14.9 17.0637C14.9 17.0614 14.9 17.059 14.9 17.0567C14.9 17.0543 14.9 17.052 14.9 17.0496C14.9 17.0472 14.9 17.0449 14.9 17.0425C14.9 17.0401 14.9 17.0378 14.9 17.0354C14.9 17.033 14.9 17.0306 14.9 17.0282C14.9 17.0258 14.9 17.0234 14.9 17.021C14.9 17.0186 14.9 17.0162 14.9 17.0138C14.9 17.0114 14.9 17.009 14.9 17.0065C14.9 17.0041 14.9 17.0017 14.9 16.9992C14.9 16.9968 14.9 16.9944 14.9 16.9919C14.9 16.9895 14.9 16.987 14.9 16.9845C14.9 16.9821 14.9 16.9796 14.9 16.9772C14.9 16.9747 14.9 16.9722 14.9 16.9697C14.9 16.9673 14.9 16.9648 14.9 16.9623C14.9 16.9598 14.9 16.9573 14.9 16.9548C14.9 16.9523 14.9 16.9498 14.9 16.9473C14.9 16.9448 14.9 16.9422 14.9 16.9397C14.9 16.9372 14.9 16.9347 14.9 16.9321C14.9 16.9296 14.9 16.9271 14.9 16.9245C14.9 16.922 14.9 16.9194 14.9 16.9169C14.9 16.9143 14.9 16.9118 14.9 16.9092C14.9 16.9066 14.9 16.9041 14.9 16.9015C14.9 16.8989 14.9 16.8963 14.9 16.8938C14.9 16.8912 14.9 16.8886 14.9 16.886C14.9 16.8834 14.9 16.8808 14.9 16.8782C14.9 16.8756 14.9 16.873 14.9 16.8704C14.9 16.8677 14.9 16.8651 14.9 16.8625C14.9 16.8599 14.9 16.8572 14.9 16.8546C14.9 16.852 14.9 16.8493 14.9 16.8467C14.9 16.844 14.9 16.8414 14.9 16.8387C14.9 16.8361 14.9 16.8334 14.9 16.8307C14.9 16.8281 14.9 16.8254 14.9 16.8227C14.9 16.8201 14.9 16.8174 14.9 16.8147C14.9 16.812 14.9 16.8093 14.9 16.8066C14.9 16.8039 14.9 16.8012 14.9 16.7985C14.9 16.7958 14.9 16.7931 14.9 16.7904C14.9 16.7877 14.9 16.7849 14.9 16.7822C14.9 16.7795 14.9 16.7768 14.9 16.774C14.9 16.7713 14.9 16.7685 14.9 16.7658C14.9 16.7631 14.9 16.7603 14.9 16.7576C14.9 16.7548 14.9 16.752 14.9 16.7493C14.9 16.7465 14.9 16.7437 14.9 16.741C14.9 16.7382 14.9 16.7354 14.9 16.7326C14.9 16.7298 14.9 16.7271 14.9 16.7243C14.9 16.7215 14.9 16.7187 14.9 16.7159C14.9 16.7131 14.9 16.7103 14.9 16.7074C14.9 16.7046 14.9 16.7018 14.9 16.699C14.9 16.6962 14.9 16.6933 14.9 16.6905C14.9 16.6877 14.9 16.6848 14.9 16.682C14.9 16.6792 14.9 16.6763 14.9 16.6735C14.9 16.6706 14.9 16.6678 14.9 16.6649C14.9 16.662 14.9 16.6592 14.9 16.6563C14.9 16.6534 14.9 16.6506 14.9 16.6477C14.9 16.6448 14.9 16.6419 14.9 16.639C14.9 16.6362 14.9 16.6333 14.9 16.6304C14.9 16.6275 14.9 16.6246 14.9 16.6217C14.9 16.6188 14.9 16.6158 14.9 16.6129C14.9 16.61 14.9 16.6071 14.9 16.6042C14.9 16.6013 14.9 16.5983 14.9 16.5954C14.9 16.5925 14.9 16.5895 14.9 16.5866C14.9 16.5836 14.9 16.5807 14.9 16.5777C14.9 16.5748 14.9 16.5718 14.9 16.5689C14.9 16.5659 14.9 16.5629 14.9 16.56C14.9 16.557 14.9 16.554 14.9 16.5511C14.9 16.5481 14.9 16.5451 14.9 16.5421C14.9 16.5391 14.9 16.5361 14.9 16.5331C14.9 16.5301 14.9 16.5271 14.9 16.5241C14.9 16.5211 14.9 16.5181 14.9 16.5151C14.9 16.5121 14.9 16.5091 14.9 16.5061C14.9 16.503 14.9 16.5 14.9 16.497C14.9 16.494 14.9 16.4909 14.9 16.4879C14.9 16.4848 14.9 16.4818 14.9 16.4788C14.9 16.4757 14.9 16.4727 14.9 16.4696C14.9 16.4665 14.9 16.4635 14.9 16.4604C14.9 16.4574 14.9 16.4543 14.9 16.4512C14.9 16.4481 14.9 16.4451 14.9 16.442C14.9 16.4389 14.9 16.4358 14.9 16.4327C14.9 16.4296 14.9 16.4265 14.9 16.4234C14.9 16.4203 14.9 16.4172 14.9 16.4141C14.9 16.411 14.9 16.4079 14.9 16.4048C14.9 16.4017 14.9 16.3986 14.9 16.3955C14.9 16.3923 14.9 16.3892 14.9 16.3861C14.9 16.3829 14.9 16.3798 14.9 16.3767C14.9 16.3735 14.9 16.3704 14.9 16.3672C14.9 16.3641 14.9 16.3609 14.9 16.3578C14.9 16.3546 14.9 16.3515 14.9 16.3483C14.9 16.3451 14.9 16.342 14.9 16.3388C14.9 16.3356 14.9 16.3325 14.9 16.3293C14.9 16.3261 14.9 16.3229 14.9 16.3197C14.9 16.3165 14.9 16.3133 14.9 16.3101C14.9 16.3069 14.9 16.3037 14.9 16.3005C14.9 16.2973 14.9 16.2941 14.9 16.2909C14.9 16.2877 14.9 16.2845 14.9 16.2813C14.9 16.2781 14.9 16.2748 14.9 16.2716C14.9 16.2684 14.9 16.2651 14.9 16.2619C14.9 16.2587 14.9 16.2554 14.9 16.2522C14.9 16.249 14.9 16.2457 14.9 16.2425C14.9 16.2392 14.9 16.236 14.9 16.2327C14.9 16.2294 14.9 16.2262 14.9 16.2229C14.9 16.2196 14.9 16.2164 14.9 16.2131C14.9 16.2098 14.9 16.2065 14.9 16.2033C14.9 16.2 14.9 16.1967 14.9 16.1934C14.9 16.1901 14.9 16.1868 14.9 16.1835C14.9 16.1802 14.9 16.1769 14.9 16.1736C14.9 16.1703 14.9 16.167 14.9 16.1637C14.9 16.1604 14.9 16.1571 14.9 16.1538C14.9 16.1505 14.9 16.1471 14.9 16.1438C14.9 16.1405 14.9 16.1372 14.9 16.1338C14.9 16.1305 14.9 16.1272 14.9 16.1238C14.9 16.1205 14.9 16.1171 14.9 16.1138C14.9 16.1104 14.9 16.1071 14.9 16.1037C14.9 16.1004 14.9 16.097 14.9 16.0937C14.9 16.0903 14.9 16.0869 14.9 16.0836C14.9 16.0802 14.9 16.0768 14.9 16.0734C14.9 16.0701 14.9 16.0667 14.9 16.0633C14.9 16.0599 14.9 16.0565 14.9 16.0531C14.9 16.0498 14.9 16.0464 14.9 16.043C14.9 16.0396 14.9 16.0362 14.9 16.0328C14.9 16.0294 14.9 16.026 14.9 16.0225C14.9 16.0191 14.9 16.0157 14.9 16.0123C14.9 16.0089 14.9 16.0055 14.9 16.002C14.9 15.9986 14.9 15.9952 14.9 15.9918C14.9 15.9883 14.9 15.9849 14.9 15.9815C14.9 15.978 14.9 15.9746 14.9 15.9711C14.9 15.9677 14.9 15.9642 14.9 15.9608C14.9 15.9573 14.9 15.9539 14.9 15.9504C14.9 15.947 14.9 15.9435 14.9 15.94C14.9 15.9366 14.9 15.9331 14.9 15.9296C14.9 15.9262 14.9 15.9227 14.9 15.9192C14.9 15.9157 14.9 15.9122 14.9 15.9088C14.9 15.9053 14.9 15.9018 14.9 15.8983C14.9 15.8948 14.9 15.8913 14.9 15.8878C14.9 15.8843 14.9 15.8808 14.9 15.8773C14.9 15.8738 14.9 15.8703 14.9 15.8668C14.9 15.8633 14.9 15.8598 14.9 15.8563C14.9 15.8527 14.9 15.8492 14.9 15.8457C14.9 15.8422 14.9 15.8386 14.9 15.8351C14.9 15.8316 14.9 15.8281 14.9 15.8245C14.9 15.821 14.9 15.8174 14.9 15.8139C14.9 15.8104 14.9 15.8068 14.9 15.8033C14.9 15.7997 14.9 15.7962 14.9 15.7926C14.9 15.7891 14.9 15.7855 14.9 15.782C14.9 15.7784 14.9 15.7748 14.9 15.7713C14.9 15.7677 14.9 15.7641 14.9 15.7606C14.9 15.757 14.9 15.7534 14.9 15.7498C14.9 15.7463 14.9 15.7427 14.9 15.7391C14.9 15.7355 14.9 15.7319 14.9 15.7283C14.9 15.7247 14.9 15.7211 14.9 15.7175C14.9 15.714 14.9 15.7104 14.9 15.7068C14.9 15.7032 14.9 15.6995 14.9 15.6959C14.9 15.6923 14.9 15.6887 14.9 15.6851C14.9 15.6815 14.9 15.6779 14.9 15.6743C14.9 15.6706 14.9 15.667 14.9 15.6634C14.9 15.6598 14.9 15.6561 14.9 15.6525C14.9 15.6489 14.9 15.6452 14.9 15.6416C14.9 15.638 14.9 15.6343 14.9 15.6307C14.9 15.6271 14.9 15.6234 14.9 15.6198C14.9 15.6161 14.9 15.6125 14.9 15.6088C14.9 15.6052 14.9 15.6015 14.9 15.5978C14.9 15.5942 14.9 15.5905 14.9 15.5869C14.9 15.5832 14.9 15.5795 14.9 15.5759C14.9 15.5722 14.9 15.5685 14.9 15.5649C14.9 15.5612 14.9 15.5575 14.9 15.5538C14.9 15.5501 14.9 15.5465 14.9 15.5428C14.9 15.5391 14.9 15.5354 14.9 15.5317C14.9 15.528 14.9 15.5243 14.9 15.5206C14.9 15.5169 14.9 15.5132 14.9 15.5095C14.9 15.5058 14.9 15.5021 14.9 15.4984C14.9 15.4947 14.9 15.491 14.9 15.4873C14.9 15.4836 14.9 15.4799 14.9 15.4762C14.9 15.4724 14.9 15.4687 14.9 15.465C14.9 15.4613 14.9 15.4576 14.9 15.4538C14.9 15.4501 14.9 15.4464 14.9 15.4426C14.9 15.4389 14.9 15.4352 14.9 15.4314C14.9 15.4277 14.9 15.424 14.9 15.4202C14.9 15.4165 14.9 15.4127 14.9 15.409C14.9 15.4053 14.9 15.4015 14.9 15.3978C14.9 15.394 14.9 15.3903 14.9 15.3865C14.9 15.3827 14.9 15.379 14.9 15.3752C14.9 15.3715 14.9 15.3677 14.9 15.3639C14.9 15.3602 14.9 15.3564 14.9 15.3526C14.9 15.3489 14.9 15.3451 14.9 15.3413C14.9 15.3375 14.9 15.3338 14.9 15.33C14.9 15.3262 14.9 15.3224 14.9 15.3186C14.9 15.3149 14.9 15.3111 14.9 15.3073C14.9 15.3035 14.9 15.2997 14.9 15.2959C14.9 15.2921 14.9 15.2883 14.9 15.2845C14.9 15.2807 14.9 15.2769 14.9 15.2731C14.9 15.2693 14.9 15.2655 14.9 15.2617C14.9 15.2579 14.9 15.2541 14.9 15.2503C14.9 15.2465 14.9 15.2427 14.9 15.2389C14.9 15.235 14.9 15.2312 14.9 15.2274C14.9 15.2236 14.9 15.2198 14.9 15.2159C14.9 15.2121 14.9 15.2083 14.9 15.2045C14.9 15.2006 14.9 15.1968 14.9 15.193C14.9 15.1891 14.9 15.1853 14.9 15.1815C14.9 15.1776 14.9 15.1738 14.9 15.17C14.9 15.1661 14.9 15.1623 14.9 15.1584C14.9 15.1546 14.9 15.1507 14.9 15.1469C14.9 15.143 14.9 15.1392 14.9 15.1353C14.9 15.1315 14.9 15.1276 14.9 15.1238C14.9 15.1199 14.9 15.1161 14.9 15.1122C14.9 15.1083 14.9 15.1045 14.9 15.1006C14.9 15.0967 14.9 15.0929 14.9 15.089C14.9 15.0851 14.9 15.0813 14.9 15.0774C14.9 15.0735 14.9 15.0697 14.9 15.0658C14.9 15.0619 14.9 15.058 14.9 15.0541C14.9 15.0503 14.9 15.0464 14.9 15.0425C14.9 15.0386 14.9 15.0347 14.9 15.0308C14.9 15.027 14.9 15.0231 14.9 15.0192C14.9 15.0153 14.9 15.0114 14.9 15.0075C14.9 15.0036 14.9 14.9997 14.9 14.9958C14.9 14.9919 14.9 14.988 14.9 14.9841C14.9 14.9802 14.9 14.9763 14.9 14.9724C14.9 14.9685 14.9 14.9646 14.9 14.9607C14.9 14.9568 14.9 14.9529 14.9 14.9489C14.9 14.945 14.9 14.9411 14.9 14.9372C14.9 14.9333 14.9 14.9294 14.9 14.9255C14.9 14.9215 14.9 14.9176 14.9 14.9137C14.9 14.9098 14.9 14.9058 14.9 14.9019C14.9 14.898 14.9 14.8941 14.9 14.8901C14.9 14.8862 14.9 14.8823 14.9 14.8783C14.9 14.8744 14.9 14.8705 14.9 14.8665C14.9 14.8626 14.9 14.8587 14.9 14.8547C14.9 14.8508 14.9 14.8469 14.9 14.8429C14.9 14.839 14.9 14.835 14.9 14.8311C14.9 14.8271 14.9 14.8232 14.9 14.8192C14.9 14.8153 14.9 14.8113 14.9 14.8074C14.9 14.8034 14.9 14.7995 14.9 14.7955C14.9 14.7916 14.9 14.7876 14.9 14.7837C14.9 14.7797 14.9 14.7758 14.9 14.7718C14.9 14.7678 14.9 14.7639 14.9 14.7599C14.9 14.7559 14.9 14.752 14.9 14.748C14.9 14.7441 14.9 14.7401 14.9 14.7361C14.9 14.7321 14.9 14.7282 14.9 14.7242C14.9 14.7202 14.9 14.7163 14.9 14.7123C14.9 14.7083 14.9 14.7043 14.9 14.7004C14.9 14.6964 14.9 14.6924 14.9 14.6884C14.9 14.6845 14.9 14.6805 14.9 14.6765C14.9 14.6725 14.9 14.6685 14.9 14.6645C14.9 14.6606 14.9 14.6566 14.9 14.6526C14.9 14.6486 14.9 14.6446 14.9 14.6406C14.9 14.6366 14.9 14.6326 14.9 14.6286C14.9 14.6247 14.9 14.6207 14.9 14.6167C14.9 14.6127 14.9 14.6087 14.9 14.6047C14.9 14.6007 14.9 14.5967 14.9 14.5927C14.9 14.5887 14.9 14.5847 14.9 14.5807C14.9 14.5767 14.9 14.5727 14.9 14.5687C14.9 14.5647 14.9 14.5607 14.9 14.5567C14.9 14.5526 14.9 14.5486 14.9 14.5446C14.9 14.5406 14.9 14.5366 14.9 14.5326C14.9 14.5286 14.9 14.5246 14.9 14.5206C14.9 14.5166 14.9 14.5125 14.9 14.5085C14.9 14.5045 14.9 14.5005 14.9 14.4965C14.9 14.4925 14.9 14.4884 14.9 14.4844C14.9 14.4804 14.9 14.4764 14.9 14.4724C14.9 14.4683 14.9 14.4643 14.9 14.4603C14.9 14.4563 14.9 14.4522 14.9 14.4482C14.9 14.4442 14.9 14.4402 14.9 14.4361C14.9 14.4321 14.9 14.4281 14.9 14.4241C14.9 14.42 14.9 14.416 14.9 14.412C14.9 14.4079 14.9 14.4039 14.9 14.3999C14.9 14.3958 14.9 14.3918 14.9 14.3878C14.9 14.3837 14.9 14.3797 14.9 14.3757C14.9 14.3716 14.9 14.3676 14.9 14.3635C14.9 14.3595 14.9 14.3555 14.9 14.3514C14.9 14.3474 14.9 14.3433 14.9 14.3393C14.9 14.3353 14.9 14.3312 14.9 14.3272C14.9 14.3231 14.9 14.3191 14.9 14.315C14.9 14.311 14.9 14.307 14.9 14.3029C14.9 14.2989 14.9 14.2948 14.9 14.2908C14.9 14.2867 14.9 14.2827 14.9 14.2786C14.9 14.2746 14.9 14.2705 14.9 14.2665C14.9 14.2624 14.9 14.2584 14.9 14.2543C14.9 14.2503 14.9 14.2462 14.9 14.2422C14.9 14.2381 14.9 14.2341 14.9 14.23C14.9 14.2259 14.9 14.2219 14.9 14.2178C14.9 14.2138 14.9 14.2097 14.9 14.2057C14.9 14.2016 14.9 14.1976 14.9 14.1935C14.9 14.1894 14.9 14.1854 14.9 14.1813C14.9 14.1773 14.9 14.1732 14.9 14.1691C14.9 14.1651 14.9 14.161 14.9 14.157C14.9 14.1529 14.9 14.1488 14.9 14.1448C14.9 14.1407 14.9 14.1366 14.9 14.1326C14.9 14.1285 14.9 14.1244 14.9 14.1204C14.9 14.1163 14.9 14.1122 14.9 14.1082C14.9 14.1041 14.9 14.1001 14.9 14.096C14.9 14.0919 14.9 14.0878 14.9 14.0838C14.9 14.0797 14.9 14.0756 14.9 14.0716C14.9 14.0675 14.9 14.0634 14.9 14.0594C14.9 14.0553 14.9 14.0512 14.9 14.0472C14.9 14.0431 14.9 14.039 14.9 14.0349C14.9 14.0309 14.9 14.0268 14.9 14.0227C14.9 14.0187 14.9 14.0146 14.9 14.0105C14.9 14.0064 14.9 14.0024 14.9 13.9983C14.9 13.9942 14.9 13.9902 14.9 13.9861C14.9 13.982 14.9 13.9779 14.9 13.9739C14.9 13.9698 14.9 13.9657 14.9 13.9616C14.9 13.9576 14.9 13.9535 14.9 13.9494C14.9 13.9453 14.9 13.9413 14.9 13.9372C14.9 13.9331 14.9 13.929 14.9 13.925C14.9 13.9209 14.9 13.9168 14.9 13.9127C14.9 13.9086 14.9 13.9046 14.9 13.9005C14.9 13.8964 14.9 13.8923 14.9 13.8883C14.9 13.8842 14.9 13.8801 14.9 13.876C14.9 13.8719 14.9 13.8679 14.9 13.8638C14.9 13.8597 14.9 13.8556 14.9 13.8516C14.9 13.8475 14.9 13.8434 14.9 13.8393C14.9 13.8352 14.9 13.8312 14.9 13.8271C14.9 13.823 14.9 13.8189 14.9 13.8149C14.9 13.8108 14.9 13.8067 14.9 13.8026C14.9 13.7985 14.9 13.7945 14.9 13.7904C14.9 13.7863 14.9 13.7822 14.9 13.7781C14.9 13.7741 14.9 13.77 14.9 13.7659C14.9 13.7618 14.9 13.7578 14.9 13.7537C14.9 13.7496 14.9 13.7455 14.9 13.7414C14.9 13.7374 14.9 13.7333 14.9 13.7292C14.9 13.7251 14.9 13.721 14.9 13.717C14.9 13.7129 14.9 13.7088 14.9 13.7047C14.9 13.7007 14.9 13.6966 14.9 13.6925C14.9 13.6884 14.9 13.6843 14.9 13.6803C14.9 13.6762 14.9 13.6721 14.9 13.668C14.9 13.664 14.9 13.6599 14.9 13.6558C14.9 13.6517 14.9 13.6476 14.9 13.6436C14.9 13.6395 14.9 13.6354 14.9 13.6313C14.9 13.6273 14.9 13.6232 14.9 13.6191C14.9 13.615 14.9 13.611 14.9 13.6069C14.9 13.6028 14.9 13.5987 14.9 13.5947C14.9 13.5906 14.9 13.5865 14.9 13.5824C14.9 13.5784 14.9 13.5743 14.9 13.5702C14.9 13.5661 14.9 13.5621 14.9 13.558C14.9 13.5539 14.9 13.5499 14.9 13.5458C14.9 13.5417 14.9 13.5376 14.9 13.5336C14.9 13.5295 14.9 13.5254 14.9 13.5214C14.9 13.5173 14.9 13.5132 14.9 13.5091C14.9 13.5051 14.9 13.501 14.9 13.4969C14.9 13.4929 14.9 13.4888 14.9 13.4847C14.9 13.4807 14.9 13.4766 14.9 13.4725C14.9 13.4685 14.9 13.4644 14.9 13.4603C14.9 13.4563 14.9 13.4522 14.9 13.4481C14.9 13.4441 14.9 13.44 14.9 13.4359C14.9 13.4319 14.9 13.4278 14.9 13.4237C14.9 13.4197 14.9 13.4156 14.9 13.4115C14.9 13.4075 14.9 13.4034 14.9 13.3994C14.9 13.3953 14.9 13.3912 14.9 13.3872C14.9 13.3831 14.9 13.3791 14.9 13.375H14.1C14.1 13.3791 14.1 13.3831 14.1 13.3872C14.1 13.3912 14.1 13.3953 14.1 13.3994C14.1 13.4034 14.1 13.4075 14.1 13.4115C14.1 13.4156 14.1 13.4197 14.1 13.4237C14.1 13.4278 14.1 13.4319 14.1 13.4359C14.1 13.44 14.1 13.4441 14.1 13.4481C14.1 13.4522 14.1 13.4563 14.1 13.4603C14.1 13.4644 14.1 13.4685 14.1 13.4725C14.1 13.4766 14.1 13.4807 14.1 13.4847C14.1 13.4888 14.1 13.4929 14.1 13.4969C14.1 13.501 14.1 13.5051 14.1 13.5091C14.1 13.5132 14.1 13.5173 14.1 13.5214C14.1 13.5254 14.1 13.5295 14.1 13.5336C14.1 13.5376 14.1 13.5417 14.1 13.5458C14.1 13.5499 14.1 13.5539 14.1 13.558C14.1 13.5621 14.1 13.5661 14.1 13.5702C14.1 13.5743 14.1 13.5784 14.1 13.5824C14.1 13.5865 14.1 13.5906 14.1 13.5947C14.1 13.5987 14.1 13.6028 14.1 13.6069C14.1 13.611 14.1 13.615 14.1 13.6191C14.1 13.6232 14.1 13.6273 14.1 13.6313C14.1 13.6354 14.1 13.6395 14.1 13.6436C14.1 13.6476 14.1 13.6517 14.1 13.6558C14.1 13.6599 14.1 13.664 14.1 13.668C14.1 13.6721 14.1 13.6762 14.1 13.6803C14.1 13.6843 14.1 13.6884 14.1 13.6925C14.1 13.6966 14.1 13.7007 14.1 13.7047C14.1 13.7088 14.1 13.7129 14.1 13.717C14.1 13.721 14.1 13.7251 14.1 13.7292C14.1 13.7333 14.1 13.7374 14.1 13.7414C14.1 13.7455 14.1 13.7496 14.1 13.7537C14.1 13.7578 14.1 13.7618 14.1 13.7659C14.1 13.77 14.1 13.7741 14.1 13.7781C14.1 13.7822 14.1 13.7863 14.1 13.7904C14.1 13.7945 14.1 13.7985 14.1 13.8026C14.1 13.8067 14.1 13.8108 14.1 13.8149C14.1 13.8189 14.1 13.823 14.1 13.8271C14.1 13.8312 14.1 13.8352 14.1 13.8393C14.1 13.8434 14.1 13.8475 14.1 13.8516C14.1 13.8556 14.1 13.8597 14.1 13.8638C14.1 13.8679 14.1 13.8719 14.1 13.876C14.1 13.8801 14.1 13.8842 14.1 13.8883C14.1 13.8923 14.1 13.8964 14.1 13.9005C14.1 13.9046 14.1 13.9086 14.1 13.9127C14.1 13.9168 14.1 13.9209 14.1 13.925C14.1 13.929 14.1 13.9331 14.1 13.9372C14.1 13.9413 14.1 13.9453 14.1 13.9494C14.1 13.9535 14.1 13.9576 14.1 13.9616C14.1 13.9657 14.1 13.9698 14.1 13.9739C14.1 13.9779 14.1 13.982 14.1 13.9861C14.1 13.9902 14.1 13.9942 14.1 13.9983C14.1 14.0024 14.1 14.0064 14.1 14.0105C14.1 14.0146 14.1 14.0187 14.1 14.0227C14.1 14.0268 14.1 14.0309 14.1 14.0349C14.1 14.039 14.1 14.0431 14.1 14.0472C14.1 14.0512 14.1 14.0553 14.1 14.0594C14.1 14.0634 14.1 14.0675 14.1 14.0716C14.1 14.0756 14.1 14.0797 14.1 14.0838C14.1 14.0878 14.1 14.0919 14.1 14.096C14.1 14.1001 14.1 14.1041 14.1 14.1082C14.1 14.1122 14.1 14.1163 14.1 14.1204C14.1 14.1244 14.1 14.1285 14.1 14.1326C14.1 14.1366 14.1 14.1407 14.1 14.1448C14.1 14.1488 14.1 14.1529 14.1 14.157C14.1 14.161 14.1 14.1651 14.1 14.1691C14.1 14.1732 14.1 14.1773 14.1 14.1813C14.1 14.1854 14.1 14.1894 14.1 14.1935C14.1 14.1976 14.1 14.2016 14.1 14.2057C14.1 14.2097 14.1 14.2138 14.1 14.2178C14.1 14.2219 14.1 14.2259 14.1 14.23C14.1 14.2341 14.1 14.2381 14.1 14.2422C14.1 14.2462 14.1 14.2503 14.1 14.2543C14.1 14.2584 14.1 14.2624 14.1 14.2665C14.1 14.2705 14.1 14.2746 14.1 14.2786C14.1 14.2827 14.1 14.2867 14.1 14.2908C14.1 14.2948 14.1 14.2989 14.1 14.3029C14.1 14.307 14.1 14.311 14.1 14.315C14.1 14.3191 14.1 14.3231 14.1 14.3272C14.1 14.3312 14.1 14.3353 14.1 14.3393C14.1 14.3433 14.1 14.3474 14.1 14.3514C14.1 14.3555 14.1 14.3595 14.1 14.3635C14.1 14.3676 14.1 14.3716 14.1 14.3757C14.1 14.3797 14.1 14.3837 14.1 14.3878C14.1 14.3918 14.1 14.3958 14.1 14.3999C14.1 14.4039 14.1 14.4079 14.1 14.412C14.1 14.416 14.1 14.42 14.1 14.4241C14.1 14.4281 14.1 14.4321 14.1 14.4361C14.1 14.4402 14.1 14.4442 14.1 14.4482C14.1 14.4522 14.1 14.4563 14.1 14.4603C14.1 14.4643 14.1 14.4683 14.1 14.4724C14.1 14.4764 14.1 14.4804 14.1 14.4844C14.1 14.4884 14.1 14.4925 14.1 14.4965C14.1 14.5005 14.1 14.5045 14.1 14.5085C14.1 14.5125 14.1 14.5166 14.1 14.5206C14.1 14.5246 14.1 14.5286 14.1 14.5326C14.1 14.5366 14.1 14.5406 14.1 14.5446C14.1 14.5486 14.1 14.5526 14.1 14.5567C14.1 14.5607 14.1 14.5647 14.1 14.5687C14.1 14.5727 14.1 14.5767 14.1 14.5807C14.1 14.5847 14.1 14.5887 14.1 14.5927C14.1 14.5967 14.1 14.6007 14.1 14.6047C14.1 14.6087 14.1 14.6127 14.1 14.6167C14.1 14.6207 14.1 14.6247 14.1 14.6286C14.1 14.6326 14.1 14.6366 14.1 14.6406C14.1 14.6446 14.1 14.6486 14.1 14.6526C14.1 14.6566 14.1 14.6606 14.1 14.6645C14.1 14.6685 14.1 14.6725 14.1 14.6765C14.1 14.6805 14.1 14.6845 14.1 14.6884C14.1 14.6924 14.1 14.6964 14.1 14.7004C14.1 14.7043 14.1 14.7083 14.1 14.7123C14.1 14.7163 14.1 14.7202 14.1 14.7242C14.1 14.7282 14.1 14.7321 14.1 14.7361C14.1 14.7401 14.1 14.7441 14.1 14.748C14.1 14.752 14.1 14.7559 14.1 14.7599C14.1 14.7639 14.1 14.7678 14.1 14.7718C14.1 14.7758 14.1 14.7797 14.1 14.7837C14.1 14.7876 14.1 14.7916 14.1 14.7955C14.1 14.7995 14.1 14.8034 14.1 14.8074C14.1 14.8113 14.1 14.8153 14.1 14.8192C14.1 14.8232 14.1 14.8271 14.1 14.8311C14.1 14.835 14.1 14.839 14.1 14.8429C14.1 14.8469 14.1 14.8508 14.1 14.8547C14.1 14.8587 14.1 14.8626 14.1 14.8665C14.1 14.8705 14.1 14.8744 14.1 14.8783C14.1 14.8823 14.1 14.8862 14.1 14.8901C14.1 14.8941 14.1 14.898 14.1 14.9019C14.1 14.9058 14.1 14.9098 14.1 14.9137C14.1 14.9176 14.1 14.9215 14.1 14.9255C14.1 14.9294 14.1 14.9333 14.1 14.9372C14.1 14.9411 14.1 14.945 14.1 14.9489C14.1 14.9529 14.1 14.9568 14.1 14.9607C14.1 14.9646 14.1 14.9685 14.1 14.9724C14.1 14.9763 14.1 14.9802 14.1 14.9841C14.1 14.988 14.1 14.9919 14.1 14.9958C14.1 14.9997 14.1 15.0036 14.1 15.0075C14.1 15.0114 14.1 15.0153 14.1 15.0192C14.1 15.0231 14.1 15.027 14.1 15.0308C14.1 15.0347 14.1 15.0386 14.1 15.0425C14.1 15.0464 14.1 15.0503 14.1 15.0541C14.1 15.058 14.1 15.0619 14.1 15.0658C14.1 15.0697 14.1 15.0735 14.1 15.0774C14.1 15.0813 14.1 15.0851 14.1 15.089C14.1 15.0929 14.1 15.0967 14.1 15.1006C14.1 15.1045 14.1 15.1083 14.1 15.1122C14.1 15.1161 14.1 15.1199 14.1 15.1238C14.1 15.1276 14.1 15.1315 14.1 15.1353C14.1 15.1392 14.1 15.143 14.1 15.1469C14.1 15.1507 14.1 15.1546 14.1 15.1584C14.1 15.1623 14.1 15.1661 14.1 15.17C14.1 15.1738 14.1 15.1776 14.1 15.1815C14.1 15.1853 14.1 15.1891 14.1 15.193C14.1 15.1968 14.1 15.2006 14.1 15.2045C14.1 15.2083 14.1 15.2121 14.1 15.2159C14.1 15.2198 14.1 15.2236 14.1 15.2274C14.1 15.2312 14.1 15.235 14.1 15.2389C14.1 15.2427 14.1 15.2465 14.1 15.2503C14.1 15.2541 14.1 15.2579 14.1 15.2617C14.1 15.2655 14.1 15.2693 14.1 15.2731C14.1 15.2769 14.1 15.2807 14.1 15.2845C14.1 15.2883 14.1 15.2921 14.1 15.2959C14.1 15.2997 14.1 15.3035 14.1 15.3073C14.1 15.3111 14.1 15.3149 14.1 15.3186C14.1 15.3224 14.1 15.3262 14.1 15.33C14.1 15.3338 14.1 15.3375 14.1 15.3413C14.1 15.3451 14.1 15.3489 14.1 15.3526C14.1 15.3564 14.1 15.3602 14.1 15.3639C14.1 15.3677 14.1 15.3715 14.1 15.3752C14.1 15.379 14.1 15.3827 14.1 15.3865C14.1 15.3903 14.1 15.394 14.1 15.3978C14.1 15.4015 14.1 15.4053 14.1 15.409C14.1 15.4127 14.1 15.4165 14.1 15.4202C14.1 15.424 14.1 15.4277 14.1 15.4314C14.1 15.4352 14.1 15.4389 14.1 15.4426C14.1 15.4464 14.1 15.4501 14.1 15.4538C14.1 15.4576 14.1 15.4613 14.1 15.465C14.1 15.4687 14.1 15.4724 14.1 15.4762C14.1 15.4799 14.1 15.4836 14.1 15.4873C14.1 15.491 14.1 15.4947 14.1 15.4984C14.1 15.5021 14.1 15.5058 14.1 15.5095C14.1 15.5132 14.1 15.5169 14.1 15.5206C14.1 15.5243 14.1 15.528 14.1 15.5317C14.1 15.5354 14.1 15.5391 14.1 15.5428C14.1 15.5465 14.1 15.5501 14.1 15.5538C14.1 15.5575 14.1 15.5612 14.1 15.5649C14.1 15.5685 14.1 15.5722 14.1 15.5759C14.1 15.5795 14.1 15.5832 14.1 15.5869C14.1 15.5905 14.1 15.5942 14.1 15.5978C14.1 15.6015 14.1 15.6052 14.1 15.6088C14.1 15.6125 14.1 15.6161 14.1 15.6198C14.1 15.6234 14.1 15.6271 14.1 15.6307C14.1 15.6343 14.1 15.638 14.1 15.6416C14.1 15.6452 14.1 15.6489 14.1 15.6525C14.1 15.6561 14.1 15.6598 14.1 15.6634C14.1 15.667 14.1 15.6706 14.1 15.6743C14.1 15.6779 14.1 15.6815 14.1 15.6851C14.1 15.6887 14.1 15.6923 14.1 15.6959C14.1 15.6995 14.1 15.7032 14.1 15.7068C14.1 15.7104 14.1 15.714 14.1 15.7175C14.1 15.7211 14.1 15.7247 14.1 15.7283C14.1 15.7319 14.1 15.7355 14.1 15.7391C14.1 15.7427 14.1 15.7463 14.1 15.7498C14.1 15.7534 14.1 15.757 14.1 15.7606C14.1 15.7641 14.1 15.7677 14.1 15.7713C14.1 15.7748 14.1 15.7784 14.1 15.782C14.1 15.7855 14.1 15.7891 14.1 15.7926C14.1 15.7962 14.1 15.7997 14.1 15.8033C14.1 15.8068 14.1 15.8104 14.1 15.8139C14.1 15.8174 14.1 15.821 14.1 15.8245C14.1 15.8281 14.1 15.8316 14.1 15.8351C14.1 15.8386 14.1 15.8422 14.1 15.8457C14.1 15.8492 14.1 15.8527 14.1 15.8563C14.1 15.8598 14.1 15.8633 14.1 15.8668C14.1 15.8703 14.1 15.8738 14.1 15.8773C14.1 15.8808 14.1 15.8843 14.1 15.8878C14.1 15.8913 14.1 15.8948 14.1 15.8983C14.1 15.9018 14.1 15.9053 14.1 15.9088C14.1 15.9122 14.1 15.9157 14.1 15.9192C14.1 15.9227 14.1 15.9262 14.1 15.9296C14.1 15.9331 14.1 15.9366 14.1 15.94C14.1 15.9435 14.1 15.947 14.1 15.9504C14.1 15.9539 14.1 15.9573 14.1 15.9608C14.1 15.9642 14.1 15.9677 14.1 15.9711C14.1 15.9746 14.1 15.978 14.1 15.9815C14.1 15.9849 14.1 15.9883 14.1 15.9918C14.1 15.9952 14.1 15.9986 14.1 16.002C14.1 16.0055 14.1 16.0089 14.1 16.0123C14.1 16.0157 14.1 16.0191 14.1 16.0225C14.1 16.026 14.1 16.0294 14.1 16.0328C14.1 16.0362 14.1 16.0396 14.1 16.043C14.1 16.0464 14.1 16.0498 14.1 16.0531C14.1 16.0565 14.1 16.0599 14.1 16.0633C14.1 16.0667 14.1 16.0701 14.1 16.0734C14.1 16.0768 14.1 16.0802 14.1 16.0836C14.1 16.0869 14.1 16.0903 14.1 16.0937C14.1 16.097 14.1 16.1004 14.1 16.1037C14.1 16.1071 14.1 16.1104 14.1 16.1138C14.1 16.1171 14.1 16.1205 14.1 16.1238C14.1 16.1272 14.1 16.1305 14.1 16.1338C14.1 16.1372 14.1 16.1405 14.1 16.1438C14.1 16.1471 14.1 16.1505 14.1 16.1538C14.1 16.1571 14.1 16.1604 14.1 16.1637C14.1 16.167 14.1 16.1703 14.1 16.1736C14.1 16.1769 14.1 16.1802 14.1 16.1835C14.1 16.1868 14.1 16.1901 14.1 16.1934C14.1 16.1967 14.1 16.2 14.1 16.2033C14.1 16.2065 14.1 16.2098 14.1 16.2131C14.1 16.2164 14.1 16.2196 14.1 16.2229C14.1 16.2262 14.1 16.2294 14.1 16.2327C14.1 16.236 14.1 16.2392 14.1 16.2425C14.1 16.2457 14.1 16.249 14.1 16.2522C14.1 16.2554 14.1 16.2587 14.1 16.2619C14.1 16.2651 14.1 16.2684 14.1 16.2716C14.1 16.2748 14.1 16.2781 14.1 16.2813C14.1 16.2845 14.1 16.2877 14.1 16.2909C14.1 16.2941 14.1 16.2973 14.1 16.3005C14.1 16.3037 14.1 16.3069 14.1 16.3101C14.1 16.3133 14.1 16.3165 14.1 16.3197C14.1 16.3229 14.1 16.3261 14.1 16.3293C14.1 16.3325 14.1 16.3356 14.1 16.3388C14.1 16.342 14.1 16.3451 14.1 16.3483C14.1 16.3515 14.1 16.3546 14.1 16.3578C14.1 16.3609 14.1 16.3641 14.1 16.3672C14.1 16.3704 14.1 16.3735 14.1 16.3767C14.1 16.3798 14.1 16.3829 14.1 16.3861C14.1 16.3892 14.1 16.3923 14.1 16.3955C14.1 16.3986 14.1 16.4017 14.1 16.4048C14.1 16.4079 14.1 16.411 14.1 16.4141C14.1 16.4172 14.1 16.4203 14.1 16.4234C14.1 16.4265 14.1 16.4296 14.1 16.4327C14.1 16.4358 14.1 16.4389 14.1 16.442C14.1 16.4451 14.1 16.4481 14.1 16.4512C14.1 16.4543 14.1 16.4574 14.1 16.4604C14.1 16.4635 14.1 16.4665 14.1 16.4696C14.1 16.4727 14.1 16.4757 14.1 16.4788C14.1 16.4818 14.1 16.4848 14.1 16.4879C14.1 16.4909 14.1 16.494 14.1 16.497C14.1 16.5 14.1 16.503 14.1 16.5061C14.1 16.5091 14.1 16.5121 14.1 16.5151C14.1 16.5181 14.1 16.5211 14.1 16.5241C14.1 16.5271 14.1 16.5301 14.1 16.5331C14.1 16.5361 14.1 16.5391 14.1 16.5421C14.1 16.5451 14.1 16.5481 14.1 16.5511C14.1 16.554 14.1 16.557 14.1 16.56C14.1 16.5629 14.1 16.5659 14.1 16.5689C14.1 16.5718 14.1 16.5748 14.1 16.5777C14.1 16.5807 14.1 16.5836 14.1 16.5866C14.1 16.5895 14.1 16.5925 14.1 16.5954C14.1 16.5983 14.1 16.6013 14.1 16.6042C14.1 16.6071 14.1 16.61 14.1 16.6129C14.1 16.6158 14.1 16.6188 14.1 16.6217C14.1 16.6246 14.1 16.6275 14.1 16.6304C14.1 16.6333 14.1 16.6362 14.1 16.639C14.1 16.6419 14.1 16.6448 14.1 16.6477C14.1 16.6506 14.1 16.6534 14.1 16.6563C14.1 16.6592 14.1 16.662 14.1 16.6649C14.1 16.6678 14.1 16.6706 14.1 16.6735C14.1 16.6763 14.1 16.6792 14.1 16.682C14.1 16.6848 14.1 16.6877 14.1 16.6905C14.1 16.6933 14.1 16.6962 14.1 16.699C14.1 16.7018 14.1 16.7046 14.1 16.7074C14.1 16.7103 14.1 16.7131 14.1 16.7159C14.1 16.7187 14.1 16.7215 14.1 16.7243C14.1 16.7271 14.1 16.7298 14.1 16.7326C14.1 16.7354 14.1 16.7382 14.1 16.741C14.1 16.7437 14.1 16.7465 14.1 16.7493C14.1 16.752 14.1 16.7548 14.1 16.7576C14.1 16.7603 14.1 16.7631 14.1 16.7658C14.1 16.7685 14.1 16.7713 14.1 16.774C14.1 16.7768 14.1 16.7795 14.1 16.7822C14.1 16.7849 14.1 16.7877 14.1 16.7904C14.1 16.7931 14.1 16.7958 14.1 16.7985C14.1 16.8012 14.1 16.8039 14.1 16.8066C14.1 16.8093 14.1 16.812 14.1 16.8147C14.1 16.8174 14.1 16.8201 14.1 16.8227C14.1 16.8254 14.1 16.8281 14.1 16.8307C14.1 16.8334 14.1 16.8361 14.1 16.8387C14.1 16.8414 14.1 16.844 14.1 16.8467C14.1 16.8493 14.1 16.852 14.1 16.8546C14.1 16.8572 14.1 16.8599 14.1 16.8625C14.1 16.8651 14.1 16.8677 14.1 16.8704C14.1 16.873 14.1 16.8756 14.1 16.8782C14.1 16.8808 14.1 16.8834 14.1 16.886C14.1 16.8886 14.1 16.8912 14.1 16.8938C14.1 16.8963 14.1 16.8989 14.1 16.9015C14.1 16.9041 14.1 16.9066 14.1 16.9092C14.1 16.9118 14.1 16.9143 14.1 16.9169C14.1 16.9194 14.1 16.922 14.1 16.9245C14.1 16.9271 14.1 16.9296 14.1 16.9321C14.1 16.9347 14.1 16.9372 14.1 16.9397C14.1 16.9422 14.1 16.9448 14.1 16.9473C14.1 16.9498 14.1 16.9523 14.1 16.9548C14.1 16.9573 14.1 16.9598 14.1 16.9623C14.1 16.9648 14.1 16.9673 14.1 16.9697C14.1 16.9722 14.1 16.9747 14.1 16.9772C14.1 16.9796 14.1 16.9821 14.1 16.9845C14.1 16.987 14.1 16.9895 14.1 16.9919C14.1 16.9944 14.1 16.9968 14.1 16.9992C14.1 17.0017 14.1 17.0041 14.1 17.0065C14.1 17.009 14.1 17.0114 14.1 17.0138C14.1 17.0162 14.1 17.0186 14.1 17.021C14.1 17.0234 14.1 17.0258 14.1 17.0282C14.1 17.0306 14.1 17.033 14.1 17.0354C14.1 17.0378 14.1 17.0401 14.1 17.0425C14.1 17.0449 14.1 17.0472 14.1 17.0496C14.1 17.052 14.1 17.0543 14.1 17.0567C14.1 17.059 14.1 17.0614 14.1 17.0637C14.1 17.066 14.1 17.0684 14.1 17.0707C14.1 17.073 14.1 17.0753 14.1 17.0777C14.1 17.08 14.1 17.0823 14.1 17.0846C14.1 17.0869 14.1 17.0892 14.1 17.0915C14.1 17.0938 14.1 17.0961 14.1 17.0984C14.1 17.1006 14.1 17.1029 14.1 17.1052C14.1 17.1075 14.1 17.1097 14.1 17.112C14.1 17.1142 14.1 17.1165 14.1 17.1187C14.1 17.121 14.1 17.1232 14.1 17.1255C14.1 17.1277 14.1 17.1299 14.1 17.1322C14.1 17.1344 14.1 17.1366 14.1 17.1388C14.1 17.141 14.1 17.1432 14.1 17.1454C14.1 17.1476 14.1 17.1498 14.1 17.152C14.1 17.1542 14.1 17.1564 14.1 17.1586C14.1 17.1608 14.1 17.1629 14.1 17.1651C14.1 17.1673 14.1 17.1694 14.1 17.1716C14.1 17.1737 14.1 17.1759 14.1 17.178C14.1 17.1802 14.1 17.1823 14.1 17.1844C14.1 17.1866 14.1 17.1887 14.1 17.1908C14.1 17.1929 14.1 17.1951 14.1 17.1972C14.1 17.1993 14.1 17.2014 14.1 17.2035C14.1 17.2056 14.1 17.2077 14.1 17.2097C14.1 17.2118 14.1 17.2139 14.1 17.216C14.1 17.2181 14.1 17.2201 14.1 17.2222C14.1 17.2242 14.1 17.2263 14.1 17.2283C14.1 17.2304 14.1 17.2324 14.1 17.2345C14.1 17.2365 14.1 17.2385 14.1 17.2406C14.1 17.2426 14.1 17.2446 14.1 17.2466C14.1 17.2486 14.1 17.2506 14.1 17.2526C14.1 17.2546 14.1 17.2566 14.1 17.2586C14.1 17.2606 14.1 17.2626 14.1 17.2646C14.1 17.2665 14.1 17.2685 14.1 17.2705C14.1 17.2724 14.1 17.2744 14.1 17.2764C14.1 17.2783 14.1 17.2803 14.1 17.2822C14.1 17.2841 14.1 17.2861 14.1 17.288C14.1 17.2899 14.1 17.2918 14.1 17.2938C14.1 17.2957 14.1 17.2976 14.1 17.2995C14.1 17.3014 14.1 17.3033 14.1 17.3052C14.1 17.3071 14.1 17.3089 14.1 17.3108C14.1 17.3127 14.1 17.3146 14.1 17.3164C14.1 17.3183 14.1 17.3201 14.1 17.322C14.1 17.3239 14.1 17.3257 14.1 17.3275C14.1 17.3294 14.1 17.3312 14.1 17.333C14.1 17.3349 14.1 17.3367 14.1 17.3385C14.1 17.3403 14.1 17.3421 14.1 17.3439C14.1 17.3457 14.1 17.3475 14.1 17.3493C14.1 17.3511 14.1 17.3529 14.1 17.3546C14.1 17.3564 14.1 17.3582 14.1 17.36C14.1 17.3617 14.1 17.3635 14.1 17.3652C14.1 17.367 14.1 17.3687 14.1 17.3705C14.1 17.3722 14.1 17.3739 14.1 17.3756C14.1 17.3774 14.1 17.3791 14.1 17.3808C14.1 17.3825 14.1 17.3842 14.1 17.3859C14.1 17.3876 14.1 17.3893 14.1 17.391C14.1 17.3927 14.1 17.3944 14.1 17.396C14.1 17.3977 14.1 17.3994 14.1 17.401C14.1 17.4027 14.1 17.4043 14.1 17.406C14.1 17.4076 14.1 17.4093 14.1 17.4109C14.1 17.4125 14.1 17.4142 14.1 17.4158C14.1 17.4174 14.1 17.419 14.1 17.4206C14.1 17.4222 14.1 17.4238 14.1 17.4254C14.1 17.427 14.1 17.4286 14.1 17.4302C14.1 17.4317 14.1 17.4333 14.1 17.4349C14.1 17.4365 14.1 17.438 14.1 17.4396C14.1 17.4411 14.1 17.4427 14.1 17.4442C14.1 17.4457 14.1 17.4473 14.1 17.4488C14.1 17.4503 14.1 17.4518 14.1 17.4534C14.1 17.4549 14.1 17.4564 14.1 17.4579C14.1 17.4594 14.1 17.4609 14.1 17.4624C14.1 17.4638 14.1 17.4653 14.1 17.4668C14.1 17.4683 14.1 17.4697 14.1 17.4712C14.1 17.4726 14.1 17.4741 14.1 17.4755C14.1 17.477 14.1 17.4784 14.1 17.4799C14.1 17.4813 14.1 17.4827 14.1 17.4841C14.1 17.4855 14.1 17.487 14.1 17.4884C14.1 17.4898 14.1 17.4912 14.1 17.4925C14.1 17.4939 14.1 17.4953 14.1 17.4967C14.1 17.4981 14.1 17.4994 14.1 17.5008C14.1 17.5022 14.1 17.5035 14.1 17.5049C14.1 17.5062 14.1 17.5075 14.1 17.5089C14.1 17.5102 14.1 17.5115 14.1 17.5129C14.1 17.5142 14.1 17.5155 14.1 17.5168C14.1 17.5181 14.1 17.5194 14.1 17.5207C14.1 17.522 14.1 17.5233 14.1 17.5246C14.1 17.5258 14.1 17.5271 14.1 17.5284C14.1 17.5296 14.1 17.5309 14.1 17.5321C14.1 17.5334 14.1 17.5346 14.1 17.5359C14.1 17.5371 14.1 17.5383 14.1 17.5395C14.1 17.5408 14.1 17.542 14.1 17.5432C14.1 17.5444 14.1 17.5456 14.1 17.5468C14.1 17.548 14.1 17.5492 14.1 17.5503C14.1 17.5515 14.1 17.5527 14.1 17.5538C14.1 17.555 14.1 17.5562 14.1 17.5573C14.1 17.5585 14.1 17.5596 14.1 17.5607C14.1 17.5619 14.1 17.563 14.1 17.5641C14.1 17.5652 14.1 17.5664 14.1 17.5675C14.1 17.5686 14.1 17.5697 14.1 17.5708C14.1 17.5718 14.1 17.5729 14.1 17.574C14.1 17.5751 14.1 17.5762 14.1 17.5772C14.1 17.5783 14.1 17.5793 14.1 17.5804C14.1 17.5814 14.1 17.5825 14.1 17.5835C14.1 17.5845 14.1 17.5856 14.1 17.5866C14.1 17.5876 14.1 17.5886 14.1 17.5896C14.1 17.5906 14.1 17.5916 14.1 17.5926C14.1 17.5936 14.1 17.5946 14.1 17.5955C14.1 17.5965 14.1 17.5975 14.1 17.5984C14.1 17.5994 14.1 17.6003 14.1 17.6013C14.1 17.6022 14.1 17.6032 14.1 17.6041C14.1 17.605 14.1 17.6059 14.1 17.6069C14.1 17.6078 14.1 17.6087 14.1 17.6096C14.1 17.6105 14.1 17.6114 14.1 17.6122C14.1 17.6131 14.1 17.614 14.1 17.6149C14.1 17.6157 14.1 17.6166 14.1 17.6174C14.1 17.6183 14.1 17.6191 14.1 17.62C14.1 17.6208 14.1 17.6217 14.1 17.6225C14.1 17.6233 14.1 17.6241 14.1 17.6249C14.1 17.6257 14.1 17.6265 14.1 17.6273C14.1 17.6281 14.1 17.6289 14.1 17.6297C14.1 17.6305 14.1 17.6312 14.1 17.632C14.1 17.6327 14.1 17.6335 14.1 17.6342C14.1 17.635 14.1 17.6357 14.1 17.6365C14.1 17.6372 14.1 17.6379 14.1 17.6386C14.1 17.6393 14.1 17.6401 14.1 17.6408C14.1 17.6415 14.1 17.6421 14.1 17.6428C14.1 17.6435 14.1 17.6442 14.1 17.6449C14.1 17.6455 14.1 17.6462 14.1 17.6468C14.1 17.6475 14.1 17.6481 14.1 17.6488C14.1 17.6494 14.1 17.65 14.1 17.6507C14.1 17.6513 14.1 17.6519 14.1 17.6525C14.1 17.6531 14.1 17.6537 14.1 17.6543C14.1 17.6549 14.1 17.6555 14.1 17.656C14.1 17.6566 14.1 17.6572 14.1 17.6577C14.1 17.6583 14.1 17.6589 14.1 17.6594C14.1 17.6599 14.1 17.6605 14.1 17.661C14.1 17.6615 14.1 17.6621 14.1 17.6626C14.1 17.6631 14.1 17.6636 14.1 17.6641C14.1 17.6646 14.1 17.6651 14.1 17.6655C14.1 17.666 14.1 17.6665 14.1 17.6669C14.1 17.6674 14.1 17.6679 14.1 17.6683C14.1 17.6688 14.1 17.6692 14.1 17.6696C14.1 17.6701 14.1 17.6705 14.1 17.6709C14.1 17.6713 14.1 17.6717 14.1 17.6721C14.1 17.6725 14.1 17.6729 14.1 17.6733C14.1 17.6737 14.1 17.674 14.1 17.6744C14.1 17.6748 14.1 17.6751 14.1 17.6755C14.1 17.6758 14.1 17.6762 14.1 17.6765C14.1 17.6768 14.1 17.6772 14.1 17.6775C14.1 17.6778 14.1 17.6781 14.1 17.6784C14.1 17.6787 14.1 17.679 14.1 17.6793C14.1 17.6796 14.1 17.6799 14.1 17.6801C14.1 17.6804 14.1 17.6807 14.1 17.6809C14.1 17.6812 14.1 17.6814 14.1 17.6816C14.1 17.6819 14.1 17.6821 14.1 17.6823C14.1 17.6825 14.1 17.6827 14.1 17.6829C14.1 17.6831 14.1 17.6833 14.1 17.6835C14.1 17.6837 14.1 17.6839 14.1 17.6841C14.1 17.6842 14.1 17.6844 14.1 17.6845C14.1 17.6847 14.1 17.6848 14.1 17.685C14.1 17.6851 14.1 17.6852 14.1 17.6853C14.1 17.6855 14.1 17.6856 14.1 17.6857C14.1 17.6858 14.1 17.6859 14.1 17.686C14.1 17.686 14.1 17.6861 14.1 17.6862C14.1 17.6863 14.1 17.6863 14.1 17.6864C14.1 17.6864 14.1 17.6865 14.1 17.6865C14.1 17.6865 14.1 17.6866 14.1 17.6866C14.1 17.6866 14.1 17.6866 14.5 17.6866Z" fill="#2A2626"/>
<path d="M7.94582 9.4375L6.20474 11.1958C5.81614 11.5882 5.81926 12.2214 6.2117 12.61L7.98813 14.369C8.38057 14.7576 9.01373 14.7545 9.40233 14.3621L18.7947 4.87688C19.1833 4.48444 19.1802 3.85128 18.7878 3.46268L17.0114 1.70362C16.6189 1.31502 15.9858 1.31814 15.5972 1.71057L13.6387 3.68837M7.94582 9.4375L9.43872 11.125M7.94582 9.4375L10.9766 6.37673M10.9766 6.37673L12.2512 7.75M10.9766 6.37673L13.6387 3.68837M13.6387 3.68837L15.6262 5.5" stroke="#2A2626" stroke-width="0.8"/>
</svg>
