<svg width="16" height="12" viewBox="0 0 16 12" fill="none" xmlns="http://www.w3.org/2000/svg">
<path d="M15.6704 2.22118C15.4859 1.54824 14.9456 1.01765 14.2602 0.836471C13.0082 0.5 7.99997 0.5 7.99997 0.5C7.99997 0.5 2.99175 0.5 1.7397 0.823529C1.06754 1.00471 0.514001 1.54824 0.329488 2.22118C0 3.45059 0 6 0 6C0 6 0 8.56235 0.329488 9.77882C0.514001 10.4518 1.05436 10.9824 1.7397 11.1635C3.00493 11.5 7.99997 11.5 7.99997 11.5C7.99997 11.5 13.0082 11.5 14.2602 11.1765C14.9456 10.9953 15.4859 10.4647 15.6704 9.79177C15.9999 8.56235 15.9999 6.01294 15.9999 6.01294C15.9999 6.01294 16.0131 3.45059 15.6704 2.22118Z" fill="#2A2626"/>
<path d="M6 8.5L11 6L6 3.5V8.5Z" fill="#F3F5F8"/>
</svg>
