<svg width="22" height="26" fill="none" xmlns="http://www.w3.org/2000/svg"><path d="M5.068 19.638h-.904m13.394-.074H7.21M5.068 15.25h-.904m13.57 0H7.211m-2.143-3.963h-.904m13.394 0H7.21" stroke="#211E1E" stroke-linecap="round"/><path d="M13.661.94v6.783c0 .25.203.453.453.453h6.782m-.005-.481a.427.427 0 00-.023-.116c-.005-.015-.009-.029-.015-.043a.45.45 0 00-.09-.132L14.43 1.073a.451.451 0 00-.132-.09c-.014-.007-.028-.01-.042-.015a.452.452 0 00-.117-.024c-.008.001-.016-.004-.026-.004H1.452A.452.452 0 001 1.393v23.514c0 .25.202.452.452.452h18.992c.25 0 .453-.203.453-.452V7.723c0-.01-.005-.018-.006-.028z" stroke="#211E1E"/><path d="M4.21 8.127V5.509h2.618v2.618H4.211z" stroke="#211E1E"/></svg>