<svg width="33" height="33" fill="none" xmlns="http://www.w3.org/2000/svg"><path d="M16.488 8.639l-.28-.414-.22.15v.264h.5zm9.604 18.577a.5.5 0 10.708-.706l-.708.706zm3.941-.724a.5.5 0 10.67.742l-.67-.742zM27.125 1.38l-.252-.432-.016.009-.015.01.283.413zm4.422 24.42l.335.37-.335-.37zm-.078-3.396l.296-.403-.296.403zm-5.973 0l-.296-.403.296.403zM13.157 11.101l.432-.253-.432.253zM25.38 25.794l.354-.353-.354.353zM1.45 22.838v-5.032h-1v5.032h1zm.5-5.532h6.693v-1H1.95v1zm7.193-.5v-5.201h-1v5.2h1zm.5-5.701h2.65v-1h-2.65v1zm3.082.248l3.332 5.705.863-.505-3.331-5.705-.864.505zm3.41 5.806l4.224 4.234.708-.706-4.224-4.235-.709.707zm4.078 3.881v1.798h1V21.04h-1zm-11.57 2.298H1.95v1h6.694v-1zm-.5-6.532v7.032h1v-7.032h-1zm.5.5h7.845v-1H8.643v1zm8.345-.5V8.639h-1v8.167h1zm-.218-7.754l4.224-2.873-.562-.827-4.225 2.873.563.827zm11.213-4.345v15.501h1V4.707h-1zm.203 15.099L25.2 22l.592.806 2.987-2.196-.593-.805zm-3.598 3.404v1.878h1V23.21h-1zm.438 2.938l1.066 1.068.708-.706-1.066-1.069-.708.707zm3.16-5.537l2.987 2.196.592-.806-2.986-2.195-.593.805zm3.191 2.599v1.847h1V23.21h-1zm-.165 2.218l-1.179 1.064.67.742 1.179-1.063-.67-.743zm-11.5-2.09H10.68v1h9.033v-1zm-9.032 0H8.643v1h2.037v-1zm-.5.5v2.846h1v-2.846h-1zm.5 2.346H3.76v1h6.92v-1zm-6.92 6.623h14.141v-1H3.761v1zm14.141-6.623h-7.22v1h7.22v-1zm2.312-15.957V21.04h1V10.227h-1zm.782-4.049l6.412-4.386-.565-.825-6.412 4.386.565.825zm-.782-.413v3.933h1V5.765h-1zm0 3.933v.529h1v-.53h-1zm8-5.412l-7.77 4.99.54.842 7.77-4.99-.54-.842zm-.836-2.475c1.025-.598 1.747-.235 1.985.218.238.452.187 1.38-1.154 2.26l.549.836c1.585-1.04 2.06-2.48 1.49-3.562C29.677.48 28.257.14 26.873.948l.504.863zm-.535-.844c-.784.536-1.26 1.147-1.446 1.78a2.05 2.05 0 00.25 1.733c.616.933 1.974 1.375 3.107.647l-.54-.841a1.26 1.26 0 01-1.731-.356 1.05 1.05 0 01-.127-.9c.103-.351.398-.79 1.052-1.238l-.565-.825zM3.761 26.184a3.311 3.311 0 00-3.312 3.312h1a2.311 2.311 0 012.312-2.312v-1zm27.616-1.127a.5.5 0 01-.165.371l.67.743a1.5 1.5 0 00.495-1.114h-1zm-.204-2.25a.5.5 0 01.204.403h1a1.5 1.5 0 00-.612-1.21l-.592.806zm-5.973-.806a1.5 1.5 0 00-.612 1.209h1a.5.5 0 01.204-.403l-.593-.806zm-4.987.837a.5.5 0 01-.5.5v1a1.5 1.5 0 001.5-1.5h-1zm-7.92-11.733a.5.5 0 01.432.248l.864-.505a1.5 1.5 0 00-1.295-.743v1zm12.295 13.983c0 .397.157.778.438 1.06l.708-.707a.5.5 0 01-.146-.353h-1zM9.143 11.605a.5.5 0 01.5-.5v-1a1.5 1.5 0 00-1.5 1.5h1zm12.07 17.89a3.311 3.311 0 00-3.312-3.31v1a2.312 2.312 0 012.312 2.31h1zM1.449 17.806a.5.5 0 01.5-.5v-1a1.5 1.5 0 00-1.5 1.5h1zm-1 11.69a3.311 3.311 0 003.312 3.312v-1a2.311 2.311 0 01-2.312-2.311h-1zm17.452 3.312a3.311 3.311 0 003.312-3.311h-1a2.312 2.312 0 01-2.312 2.311v1zM.45 22.838a1.5 1.5 0 001.5 1.5v-1a.5.5 0 01-.5-.5h-1z" fill="#211E1E"/><path d="M17.82 32.307c-1.553 0-2.812-1.337-2.812-2.89 0-1.552 1.259-2.733 2.811-2.733m-14.056 0c1.552 0 2.811 1.337 2.811 2.89 0 1.553-1.259 2.734-2.811 2.734" stroke="#211E1E"/></svg>