<svg width="39" height="28" fill="none" xmlns="http://www.w3.org/2000/svg"><path d="M37.996 27.4a.4.4 0 000-.8v.8zm-8.925-10.53h.4v-.4h-.4v.4zM.997 26.6a.4.4 0 000 .8v-.8zm37 0H33.75v.8h4.246v-.8zm-3.846.4v-1.688h-.8V27h.8zm0-1.688c0-.546-.456-.963-.985-.963v.8c.117 0 .185.087.185.163h.8zm-.985-.963h-.585v.8h.585v-.8zm-.185.4v-9.567h-.8v9.567h.8zm0-9.567c0-1.166-.98-2.088-2.154-2.088v.8c.76 0 1.354.592 1.354 1.288h.8zm-2.154-2.088h-4.093v.8h4.093v-.8zm-3.694.4V5.051h-.8v8.441h.8zm0-8.442c0-.546-.455-.963-.984-.963v.8c.116 0 .184.087.184.163h.8zm-.984-.963h-2.573v.8h2.573v-.8zm-2.173.4V2.801h-.8v1.688h.8zm0-1.688c0-.546-.456-.963-.985-.963v.8c.117 0 .185.087.185.163h.8zm-.985-.963h-4.678v.8h4.678v-.8zm-4.678 0c-.53 0-.985.417-.985.963h.8c0-.076.068-.163.185-.163v-.8zm-.985.963v1.688h.8V2.801h-.8zm.4 1.288H11.53v.8h6.198v-.8zm-5.798.4V1.563h-.8v2.926h.8zm0-2.926c0-.546-.456-.963-.985-.963v.8c.117 0 .185.087.185.163h.8zM8.605.6c-.53 0-.985.417-.985.963h.8c0-.076.068-.163.185-.163V.6zm-.985.963v2.926h.8V1.563h-.8zm.4 2.526H6.266v.8H8.02v-.8zm-1.754 0c-.53 0-.985.417-.985.963h.8c0-.076.068-.163.185-.163v-.8zm-.985.963V27h.8V5.052h-.8zM26.733 26.6H5.68v.8h21.052v-.8zM7.655 24.586h2.703v-.8H7.656v.8zm0-5.065h2.703v-.8H7.656v.8zm0-4.333h2.703v-.8H7.656v.8zm0-4.108h2.703v-.8H7.656v.8zm2.703-4.74H7.656v.8h2.703v-.8zm1.17-2.25H8.02v.8h3.509v-.8zm12.046 0h-5.848v.8h5.848v-.8zM11.929 27V4.49h-.8V27h.8zm20.651-2.651h-3.508v.8h3.508v-.8zm-5.447-7.479v-3.377h-.8v3.377h.8zm.369 8.442V27h.8v-1.688h-.8zm.4 1.288h-1.17v.8h1.17v-.8zm-.77.4V16.87h-.8V27h.8zm-.4-9.73h2.34v-.8h-2.34v.8zm1.94-.4v7.879h.8V16.87h-.8zm.4 7.479h-.585v.8h.585v-.8zm-.585 0c-.53 0-.985.417-.985.963h.8c0-.076.068-.163.185-.163v-.8zM33.75 26.6h-5.848v.8h5.848v-.8zm-28.069 0H.996v.8h4.685v-.8zM8.605 1.4h2.339V.6h-2.34v.8z" fill="#BE3D3D"/></svg>