<svg width="24" height="30" fill="none" xmlns="http://www.w3.org/2000/svg"><path d="M16.119 7.931l1.457-2.163a.547.547 0 01.907 0l3.46 5.135a4.81 4.81 0 01.937 2.867 4.84 4.84 0 01-1.646 3.637m-5.115-9.476l-4.507-6.69a.546.546 0 00-.906 0L2.969 12.726a10.084 10.084 0 00-1.973 6.018c0 5.604 4.56 10.163 10.163 10.163 5.604 0 10.163-4.56 10.163-10.163 0-.447-.03-.895-.088-1.337m-5.115-9.476l-2.002 2.972a4.812 4.812 0 00-.937 2.867 4.855 4.855 0 004.85 4.85c.782 0 2.098-.342 3.204-1.213" stroke="#211E1E" stroke-width="1.003"/><path d="M4.496 17c.167 1.833 1.2 5.8 4 7" stroke="#211E1E" stroke-linecap="round"/></svg>