<svg width="38" height="31" fill="none" xmlns="http://www.w3.org/2000/svg"><path d="M30.267 11.358l6.639 3.493a.712.712 0 01-.12 1.31l-6.519 2.022m0-6.825l6.519-2.022a.71.71 0 00.12-1.31l-13.2-6.945a.706.706 0 00-.539-.05L1.496 7.755a.711.711 0 00-.12 1.31l4.558 2.398c.72.378 1.453.719 2.2 1.021m22.133-1.125l-1.92.596-1.097.34m-19.117.19l-6.64 2.096a.71.71 0 00-.117 1.308l6.638 3.493m.12-6.898c.297.25 2.112.784 2.242.784.339.1.68.192 1.023.277M8.014 19.38l-6.518 2.022a.71.71 0 00-.12 1.31l13.2 6.945a.707.707 0 00.539.05l13.506-4.19 8.165-2.533a.71.71 0 00.12-1.31l-6.639-3.492M8.014 19.38l6.562 3.452a.704.704 0 00.539.05l15.152-4.7m-4.921-5.298l-4.38-1.089a7.091 7.091 0 01-4.251-3.431.708.708 0 00-1.18-.097c-1.306 1.677-3.27 2.549-5.396 2.833l-4.252.336m5.512 2.107a.718.718 0 00-.126.403.713.713 0 00.709.711.712.712 0 00.698-.833m-1.281-.281l1.28.28m0 0a24.384 24.384 0 008.94.036m0 0a.707.707 0 00.202.59.715.715 0 00.502.208.713.713 0 00.709-.711.714.714 0 00-.103-.366m-1.31.279l1.31-.279m0 0c.506-.122 1.008-.26 1.508-.414l1.481-.46m0 0a.705.705 0 001.13.178.718.718 0 00.202-.59m-1.332.412l1.332-.413" stroke="#211E1E"/><path d="M15.197 18.845h0a.148.148 0 01.106-.053c.029 0 .07.014.105.052h0v.001a.27.27 0 01.064.178.27.27 0 01-.063.178h0-.001a.149.149 0 01-.105.053.148.148 0 01-.105-.052h0a.272.272 0 01-.065-.18c0-.072.028-.138.065-.177zm-4.151-2.073h0c.03-.031.077-.05.12-.05s.089.019.12.05l.341-.342-.341.342c.03.03.05.076.05.12a.18.18 0 01-.05.12.176.176 0 01-.12.05.175.175 0 01-.12-.05l-.33.33.33-.33a.175.175 0 01-.05-.12c0-.044.019-.09.05-.12zm9.377.015h0a.273.273 0 01.179-.065c.072 0 .139.028.178.065h0a.15.15 0 01.052.105.15.15 0 01-.052.105.273.273 0 01-.178.064.273.273 0 01-.179-.064l-.33.36.33-.36a.15.15 0 01-.052-.105.15.15 0 01.052-.105zm5.375-2.189h0a.237.237 0 01.163-.068c.06 0 .121.026.163.068l.325-.325-.325.325a.237.237 0 01.068.163.24.24 0 01-.068.163h0a.237.237 0 01-.163.067.237.237 0 01-.163-.067l-.325.325.325-.325a.236.236 0 01-.067-.163c0-.06.025-.121.067-.163zm-9.014 1.445a.149.149 0 01.105-.051c.028 0 .07.013.105.051.036.04.064.106.064.18a.273.273 0 01-.065.178l.37.338-.37-.338a.15.15 0 01-.104.052.149.149 0 01-.105-.052.273.273 0 01-.065-.179c0-.073.028-.14.064-.179l-.356-.327.357.327z" stroke="#211E1E"/></svg>