<svg width="36" height="36" fill="none" xmlns="http://www.w3.org/2000/svg"><path d="M2.992 4.984v.5h.5v-.5h-.5zm0 25.532a.5.5 0 000 1v-1zm3.985 1a.5.5 0 100-1v1zM2.992 26.53a.5.5 0 000 1v-1zm3.985 1a.5.5 0 100-1v1zm-3.985-4.984a.5.5 0 100 1v-1zm3.985 1a.5.5 0 000-1v1zm-3.985-4.453a.5.5 0 100 1v-1zm3.985 1a.5.5 0 000-1v1zm-3.985-4.752a.5.5 0 000 1v-1zm3.985 1a.5.5 0 000-1v1zM2.992 11.59a.5.5 0 000 1v-1zm3.985 1a.5.5 0 100-1v1zm27.027 7.965H20.922v1h13.082v-1zm-12.582.5V5.98h-1v15.075h1zm0-15.075c0-.826-.67-1.496-1.496-1.496v1c.274 0 .496.223.496.496h1zm-1.496-1.496h-.996v1h.996v-1zm-.496.5V1.996h-1v2.988h1zm0-2.988C19.43 1.17 18.76.5 17.934.5v1c.274 0 .496.222.496.496h1zM17.934.5H3.988v1h13.946v-1zM3.988.5c-.826 0-1.496.67-1.496 1.496h1c0-.274.222-.496.496-.496v-1zM2.492 1.996v2.988h1V1.996h-1zm.5 2.488h-.996v1h.996v-1zm-.996 0C1.17 4.484.5 5.154.5 5.98h1c0-.274.222-.496.496-.496v-1zM.5 5.98v28.024h1V5.98h-1zm0 28.024c0 .826.67 1.496 1.496 1.496v-1a.496.496 0 01-.496-.496h-1zM1.996 35.5h32.008v-1H1.996v1zm32.008 0c.826 0 1.496-.67 1.496-1.496h-1a.496.496 0 01-.496.496v1zm1.496-1.496V22.05h-1v11.953h1zm0-11.953c0-.826-.67-1.496-1.496-1.496v1c.274 0 .496.222.496.496h1zM18.93 4.484H3.158v1H18.93v-1zM2.992 31.516h3.985v-1H2.992v1zm0-3.985h3.985v-1H2.992v1zm0-3.984h3.985v-1H2.992v1zm0-3.453h3.985v-1H2.992v1zm0-3.752h3.985v-1H2.992v1zm0-3.752h3.985v-1H2.992v1zM9.47 35V10.098h-1V35h1zm0-24.902c0-.827-.67-1.496-1.496-1.496v1c.274 0 .496.222.496.496h1zM7.973 8.602H1v1h6.973v-1zM21.422 35V21.055h-1V35h1z" fill="#211E1E"/></svg>