<svg width="34" height="31" fill="none" xmlns="http://www.w3.org/2000/svg"><path d="M31.996 15h1M.992 19h3.651m28.35 0h-3.937M4.643 16.875V19m0 0h12.254m0-2.125V19m0 0h12.159m0-2.125V19m-6.096-4.094v1.969m-12.19-1.969v1.969M4.643 1c-.17.865-.381 2.594.286 3.813.697 1.274.412 2.593-.762 4.156-.603.802.032 2.906.476 3.437M4.643 1L2.548 3.75M4.643 1l1.968 2.75M12.834 1c-.17.865-.381 2.594.285 3.813.697 1.274.476 2.343-.698 3.906-.476.633-.35 2.937.413 3.687m0-11.406l-2.096 2.75M12.834 1l1.968 2.75M20.929 1c-.17.865-.381 2.594.285 3.813.89 1.625.103 2.914-.444 3.906-.603 1.094-.603 2.937.159 3.687m0-11.406l-2.095 2.75M20.928 1l1.968 2.75M29.119 1c-.17.865-.38 2.594.286 3.813.889 1.625.007 2.914-.54 3.906-.603 1.094-.508 2.937.254 3.687M29.12 1l-2.095 2.75M29.119 1l1.968 2.75M4.786 21c.948.797 2.308 2.093-.33 5.203-.783 1.136-.618 1.883.825 3.797m7.109-9c.473.797 1.153 2.093-.166 5.203-.391 1.136-.309 1.883.412 3.797m8.758-9c.132.221.28.481.397.807M21.642 30c-.723-1.914-.806-2.661-.413-3.797.533-1.253.74-2.21.767-2.96M28.393 21c.474.797 1.154 2.093-.165 5.203-.391 1.136-.309 1.883.412 3.797M1.496 14.5h28" stroke="#211E1E" stroke-linecap="round" stroke-linejoin="round"/></svg>