<svg width="12" height="12" fill="none" xmlns="http://www.w3.org/2000/svg"><path d="M4 6a2 2 0 114 0 2 2 0 01-4 0zM2.92 6a3.08 3.08 0 106.16 0 3.08 3.08 0 00-6.162 0zm5.563-3.203a.72.72 0 10.72-.72.72.72 0 00-.72.72zm-4.907 8.087c-.585-.027-.903-.124-1.114-.207a1.872 1.872 0 01-.69-.448c-.21-.21-.34-.41-.45-.69-.081-.211-.179-.53-.206-1.114-.029-.633-.034-.823-.034-2.425 0-1.602.006-1.792.034-2.425.027-.585.125-.902.207-1.114.109-.28.239-.48.449-.69.21-.21.41-.34.69-.449.211-.082.53-.18 1.114-.206C4.21 1.086 4.4 1.08 6 1.08c1.602 0 1.792.006 2.425.035.585.026.902.125 1.114.206.28.109.48.24.69.449.21.21.34.41.45.69.082.211.18.53.206 1.114.029.633.035.823.035 2.425 0 1.602-.006 1.792-.035 2.425-.027.585-.125.903-.207 1.114-.109.28-.239.48-.449.69-.21.21-.41.34-.69.449-.21.082-.529.18-1.114.206-.632.029-.822.035-2.425.035-1.602 0-1.792-.006-2.424-.035zM3.526.036c-.638.03-1.075.13-1.456.279a2.943 2.943 0 00-1.063.692A2.932 2.932 0 00.315 2.07c-.148.381-.25.818-.279 1.456C.006 4.166 0 4.371 0 6c0 1.63.007 1.834.036 2.474.03.638.13 1.075.279 1.456.153.395.358.73.692 1.063a2.95 2.95 0 001.063.692c.382.148.818.25 1.456.279.64.029.845.036 2.474.036 1.63 0 1.834-.007 2.474-.036.639-.03 1.075-.13 1.456-.279a2.951 2.951 0 001.063-.692 2.94 2.94 0 00.692-1.063c.149-.381.25-.818.28-1.456.028-.64.035-.845.035-2.474 0-1.63-.007-1.834-.036-2.474-.029-.638-.13-1.075-.279-1.456a2.95 2.95 0 00-.692-1.063A2.937 2.937 0 009.931.315C9.549.167 9.113.065 8.475.036 7.835.007 7.63 0 6 0 4.37 0 4.167.007 3.526.036z" fill="#fff"/></svg>