<svg width="24" height="25" viewBox="0 0 24 25" fill="none" xmlns="http://www.w3.org/2000/svg">
<path d="M4.11947 11.7349C4.1869 11.8008 4.27746 11.8375 4.37154 11.8368C4.46562 11.8362 4.55567 11.7983 4.62219 11.7314C4.68872 11.6645 4.72637 11.5739 4.727 11.4793C4.72764 11.3847 4.6912 11.2937 4.62558 11.2259L0.865237 7.44446L2.0978 6.21873L3.11568 7.2423L7.75806 11.9107L0.408706 19.3012C0.320071 19.3903 0.249761 19.4961 0.201792 19.6126C0.153822 19.7291 0.129133 19.8539 0.129133 19.9799C0.129133 20.106 0.153822 20.2308 0.201792 20.3472C0.249761 20.4637 0.320071 20.5695 0.408706 20.6586L3.75827 24.0269C3.93742 24.2066 4.18013 24.3076 4.43316 24.3076C4.6862 24.3076 4.92891 24.2066 5.10806 24.0269L12.4574 16.6364L17.7557 21.9644C17.771 21.9795 17.7876 21.9931 17.8053 22.0051C17.8101 22.0085 17.815 22.0117 17.82 22.0148C17.8354 22.0245 17.8514 22.0331 17.8681 22.0403C17.8706 22.0414 17.8731 22.0429 17.8757 22.044C17.8912 22.0502 17.9072 22.0554 17.9234 22.0594L21.7472 23.0068C21.8071 23.0216 21.8697 23.0206 21.929 23.004C21.9883 22.9874 22.0424 22.9556 22.0859 22.9118C22.1295 22.868 22.1611 22.8137 22.1776 22.754C22.1942 22.6943 22.1951 22.6314 22.1804 22.5712L21.2382 18.726C21.2342 18.7097 21.2291 18.6936 21.2229 18.678C21.2218 18.6754 21.2203 18.6729 21.2192 18.6703C21.212 18.6535 21.2035 18.6374 21.1939 18.622C21.1908 18.6169 21.1876 18.612 21.1842 18.6071C21.1722 18.5893 21.1587 18.5726 21.1437 18.5573L15.8455 13.2293L23.1505 5.88387C23.2392 5.79475 23.3095 5.68894 23.3575 5.57248C23.4054 5.45603 23.4301 5.33122 23.4301 5.20517C23.4301 5.07912 23.4054 4.95431 23.3575 4.83786C23.3095 4.7214 23.2392 4.61559 23.1505 4.52647L19.801 1.15808C19.6218 0.978367 19.3791 0.877441 19.1261 0.877441C18.873 0.877441 18.6303 0.978367 18.4512 1.15808L16.5311 3.08891L11.1463 8.50391L5.23834 2.5627C5.17122 2.4952 5.08018 2.45729 4.98526 2.45729C4.89034 2.45729 4.7993 2.4952 4.73218 2.5627L4.55703 2.73882L4.07229 2.2432C3.90608 2.07222 3.70747 1.93647 3.48821 1.84399C3.26894 1.75151 3.03347 1.70416 2.79569 1.70475H2.79438C2.43994 1.70477 2.09347 1.81048 1.79877 2.00851C1.50408 2.20655 1.27439 2.48801 1.13876 2.81731C1.00314 3.1466 0.967656 3.50895 1.03681 3.85853C1.10596 4.2081 1.27665 4.5292 1.52727 4.78123L2.02354 5.28016L0.106261 7.18711C0.0727181 7.22047 0.0460625 7.26016 0.0278267 7.30391C0.00959094 7.34766 0.000134474 7.3946 1.42382e-06 7.44203C-0.000131626 7.48947 0.00906134 7.53646 0.0270514 7.58031C0.0450415 7.62417 0.0714739 7.66401 0.104829 7.69755L4.11947 11.7349ZM20.3847 18.8121L18.009 21.201L3.87501 6.98789L6.25061 4.59893L20.3847 18.8121ZM4.60207 23.5182C4.55726 23.5632 4.49656 23.5884 4.43328 23.5884C4.37 23.5884 4.30931 23.5632 4.26449 23.5182L0.914928 20.1499C0.892769 20.1276 0.875192 20.1012 0.8632 20.0721C0.851208 20.043 0.845035 20.0118 0.845035 19.9802C0.845035 19.9487 0.851208 19.9175 0.8632 19.8884C0.875192 19.8593 0.892769 19.8329 0.914928 19.8106L5.92388 14.7736L7.52261 16.3812C7.55575 16.4151 7.59523 16.442 7.63877 16.4605C7.68231 16.4789 7.72906 16.4885 7.7763 16.4887C7.82355 16.4889 7.87037 16.4797 7.91406 16.4616C7.95774 16.4435 7.99743 16.4169 8.03084 16.3833C8.06424 16.3497 8.0907 16.3097 8.10869 16.2658C8.12668 16.2219 8.13584 16.1748 8.13564 16.1273C8.13544 16.0798 8.12589 16.0328 8.10754 15.989C8.08918 15.9452 8.06239 15.9055 8.02871 15.8722L6.42999 14.2645L8.2644 12.4199L11.9515 16.1275L4.60207 23.5182ZM18.7109 21.5133L20.6952 19.5179L21.3439 22.1656L18.7109 21.5133ZM13.164 7.49287L14.7627 9.10055C14.7959 9.13442 14.8354 9.16135 14.8789 9.17979C14.9224 9.19824 14.9692 9.20783 15.0164 9.20802C15.0637 9.20821 15.1105 9.19899 15.1542 9.18089C15.1979 9.16279 15.2376 9.13617 15.271 9.10257C15.3044 9.06897 15.3308 9.02905 15.3488 8.98512C15.3668 8.94118 15.376 8.8941 15.3758 8.84659C15.3756 8.79907 15.366 8.75207 15.3477 8.70829C15.3293 8.66451 15.3025 8.62481 15.2688 8.59149L13.6701 6.98381L16.784 3.85244L17.7302 4.80391C17.7633 4.83808 17.8028 4.86529 17.8464 4.88398C17.89 4.90267 17.9369 4.91246 17.9843 4.91278C18.0317 4.91311 18.0787 4.90395 18.1226 4.88585C18.1664 4.86775 18.2063 4.84107 18.2398 4.80736C18.2733 4.77364 18.2999 4.73356 18.3178 4.68945C18.3358 4.64534 18.3449 4.59808 18.3446 4.5504C18.3443 4.50272 18.3345 4.45559 18.316 4.41173C18.2974 4.36787 18.2703 4.32816 18.2363 4.29491L17.2901 3.34356L18.9572 1.66714C19.002 1.62222 19.0627 1.597 19.126 1.597C19.1893 1.597 19.2499 1.62222 19.2948 1.66714L22.6444 5.03546C22.689 5.08051 22.7141 5.14153 22.7141 5.20514C22.7141 5.26875 22.689 5.32977 22.6444 5.37482L15.3395 12.7206L11.6524 9.01291L13.164 7.49287ZM5.7445 4.08993L3.36885 6.47889L2.60957 5.71537L4.98523 3.32641L5.7445 4.08993ZM2.03362 4.27236C1.88309 4.121 1.78058 3.92815 1.73905 3.7182C1.69751 3.50826 1.71882 3.29064 1.80028 3.09287C1.88174 2.8951 2.01968 2.72607 2.19667 2.60714C2.37367 2.48821 2.58175 2.42473 2.79462 2.42473H2.7954C2.93817 2.42439 3.07957 2.45284 3.21123 2.50838C3.34289 2.56393 3.46215 2.64545 3.56195 2.74812L4.05111 3.24794L2.59979 4.70709L2.53238 4.7741L2.03362 4.27236Z" fill="#BE3D3D"/>
</svg>
