<svg width="24" height="25" fill="none" xmlns="http://www.w3.org/2000/svg"><path d="M4.12 11.735a.357.357 0 00.607-.256.36.36 0 00-.101-.253L.866 7.444 2.097 6.22l1.018 1.023 4.642 4.669-7.35 7.39a.96.96 0 00-.206 1.046.96.96 0 00.207.312l3.35 3.368a.953.953 0 001.35 0l7.348-7.39 5.299 5.327a.35.35 0 00.112.076l.008.004a.363.363 0 00.047.015l3.824.948a.357.357 0 00.43-.253.362.362 0 00.003-.183l-.942-3.845a.367.367 0 00-.015-.048l-.004-.008a.358.358 0 00-.075-.113l-5.298-5.328 7.305-7.345a.96.96 0 00.207-1.046.96.96 0 00-.207-.312L19.8 1.158a.953.953 0 00-1.35 0l-1.92 1.93-5.385 5.416-5.908-5.941a.357.357 0 00-.506 0l-.175.176-.485-.496a1.779 1.779 0 00-1.276-.538h-.002A1.785 1.785 0 001.14 2.817a1.812 1.812 0 00.388 1.964l.497.5L.106 7.186a.36.36 0 00-.001.51l4.014 4.038zm16.265 7.077l-2.376 2.389L3.875 6.988l2.376-2.39 14.134 14.214zM4.602 23.518a.238.238 0 01-.338 0L.914 20.15a.24.24 0 010-.34l5.01-5.036 1.599 1.607a.358.358 0 00.508.002.36.36 0 00-.002-.51L6.43 14.264l1.834-1.845 3.688 3.708-7.35 7.39zm14.109-2.005l1.984-1.995.649 2.648-2.633-.653zm-5.547-14.02L14.763 9.1a.359.359 0 00.508.002.36.36 0 00-.002-.512L13.67 6.984l3.114-3.132.946.952a.358.358 0 10.506-.51l-.946-.95 1.667-1.677a.238.238 0 01.338 0l3.35 3.368a.241.241 0 010 .34l-7.306 7.346-3.687-3.708 1.512-1.52zM5.744 4.09L3.37 6.479l-.76-.764 2.376-2.389.76.764zm-3.71.182a1.084 1.084 0 01.76-1.847h.001a1.063 1.063 0 01.767.323l.49.5L2.6 4.708l-.068.066-.498-.502z" fill="#BE3D3D"/></svg>