<svg width="36" height="25" fill="none" xmlns="http://www.w3.org/2000/svg"><path d="M22.648 13.644h10.62m-8.472-2.624V7.508h3.068l1.3 3.512h-4.368z" stroke="#211E1E"/><path d="M22.633 4.303h4.431a3.972 3.972 0 013.702 2.593l2.498 6.741 1.543 1.04a.573.573 0 01.251.475v5.71a.568.568 0 01-.564.57h-4.575M22.633 4.304V1.448a.568.568 0 00-.564-.57H1.737a.568.568 0 00-.565.57v19.414c0 .315.253.57.565.57h4.01M22.633 4.304H1.172m21.461 0v17.13m-16.886 0c.31 1.545 1.8 2.543 3.329 2.23a2.84 2.84 0 002.205-2.23m-5.534 0c-.139-1.253.266-1.948.523-2.284.07-.078.69-1.142 2.244-1.142a2.837 2.837 0 012.767 2.284c.056.22.024.853 0 1.142m0 0h13.103m0 0c.31 1.545 1.801 2.543 3.33 2.23a2.84 2.84 0 002.205-2.23m-5.535 0c-.088-.32-.037-.895 0-1.142a2.837 2.837 0 012.768-2.284c.923 0 1.86.64 2.244 1.142.257.336.436.726.523 1.142.057.196.136.7 0 1.142m-7.294-2.574H10.59m-4.132 0H1.172" stroke="#211E1E"/></svg>