<svg width="40" height="33" fill="none" xmlns="http://www.w3.org/2000/svg"><path d="M1.657 32.661a.5.5 0 010-1v1zm.287-12.989l.336-.37-.336.37zM.99 17.656l-.5.024.5-.024zm.752-2.1l.37.335-.37-.335zm36.12 0l-.37.336.37-.336zm.752 2.1l.499.024-.5-.024zm-.954 2.016l-.336-.37.336.37zm-2.047 1.856l.336.37-.336-.37zM24.47 25.337v-.5h.025l.025.002-.05.498zm2.5 2.454l.496-.06.003.03v.03h-.5zm.02 1.555h-.5v-.222l.164-.149.336.37zm10.957 2.315a.5.5 0 010 1v-1zm-25.312-3.87l-.5-.006v-.027l.003-.026.497.06zm10.116-2.468l.335.37-.142.13h-.193v-.5zm8.68-7.871l.346-.36.387.37-.397.36-.336-.37zm-23.258 0l-.336.37-.397-.36.387-.37.346.36zm4.452-10.735l-.498.045-.002-.02V6.72l.5-.003zm14.354 0l.5.003v.021l-.002.02-.498-.044zm-2.667 2.287v-.5.5zM1.657 31.66h5.698v1H1.657v-1zm5.698 0h5.259v1h-5.26v-1zm4.759.5v-2.815h1v2.815h-1zm.164-2.445l-10.67-9.673.672-.741 10.67 9.674-.672.74zm-10.67-9.673A3.396 3.396 0 01.491 17.68l.999-.049c.031.645.311 1.237.79 1.67l-.672.742zM.491 17.68a3.394 3.394 0 01.88-2.46l.741.672a2.394 2.394 0 00-.622 1.74l-1 .048zm.88-2.46c.018-.02.086-.084.153-.15a852.44 852.44 0 011.588-1.527 20002.09 20002.09 0 017.463-7.167l1.227-1.178.344-.33.09-.087.024-.022.006-.006.001-.001.347.36.346.36-.002.002-.006.006-.023.022c-.02.02-.05.05-.09.087l-.344.33c-.296.285-.72.69-1.227 1.179L7.54 10.677a17978.107 17978.107 0 00-5.322 5.114c-.096.092-.118.114-.105.1l-.742-.67zM12.114 5.112V3.514h1v1.598h-1zm0-1.598A3.016 3.016 0 0115.127.5v1c-1.11 0-2.013.904-2.013 2.014h-1zM15.127.5h1.266v1h-1.266v-1zm1.266 0h8.083v1h-8.083v-1zm8.083 0a3.016 3.016 0 013.014 3.014h-1c0-1.11-.904-2.014-2.014-2.014v-1zm3.014 3.014v1.598h-1V3.514h1zm-.5 1.598l.346-.36.002.001.006.006.023.022.09.087.345.33a18775.064 18775.064 0 019.927 9.535l.35.337c.068.066.135.13.153.15l-.74.671c.012.014-.01-.008-.106-.1l-.35-.338-1.238-1.189a21117.165 21117.165 0 00-7.462-7.166L27.11 5.919l-.344-.33-.09-.087-.024-.022-.005-.006-.002-.001.346-.361zM38.232 15.22c.612.674.926 1.55.881 2.46l-.999-.049a2.394 2.394 0 00-.623-1.74l.741-.671zm.881 2.46a3.396 3.396 0 01-1.117 2.363l-.672-.741a2.396 2.396 0 00.79-1.671l.999.049zm-1.117 2.363l-2.047 1.855-.671-.74 2.046-1.856.672.74zM24.52 24.839a3.308 3.308 0 012.946 2.893l-.993.118a2.308 2.308 0 00-2.053-2.016l.1-.995zm11.43-2.94l-8.624 7.817-.672-.74 8.624-7.819.671.741zm-8.46 7.447v2.815h-1v-2.815h1zm-.5 2.315h10.957v1H26.99v-1zm-14.852-3.929a3.308 3.308 0 012.946-2.892l.1.994a2.307 2.307 0 00-2.053 2.017l-.993-.119zm10.277-2.78l8.68-7.87.672.74-8.68 7.871-.672-.74zm8.67-7.14l-8.803-8.447.693-.722 8.802 8.448-.692.722zm-8.457-8.308h-5.653v-1h5.653v1zm-5.306-.14l-8.803 8.449-.692-.722 8.802-8.448.693.722zm-8.813 7.718l8.68 7.87-.672.741-8.68-7.87.672-.741zm8.344 7.74h5.898v1h-5.898v-1zM15.292 9.505h-.165v-1h.165v1zm-.165 0a3.017 3.017 0 01-3-2.742l.996-.09a2.017 2.017 0 002.005 1.832v1zm12.35-2.742a3.017 3.017 0 01-3 2.742v-1a2.017 2.017 0 002.004-1.832l.996.09zm-3 2.742h-.165v-1h.164v1zM12.613 31.66H26.99v1H12.614v-1zM26.479 6.714l.01-1.606 1 .007-.01 1.605-1-.006zm-2.167 2.79h-1.684v-1h1.684v1zm-7.337 0h-1.683v-1h1.683v1zm-3.861-4.396l.01 1.606-1 .006-.01-1.605 1-.007zm14.355 22.683v1.555h-1V27.79h1zm-2.999-1.954h-1.72v-1h1.72v1zm-7.617-.014h-1.72v-1h1.72v1zm-3.719 1.975l-.02 1.555-1-.014.02-1.554 1 .013z" fill="#211E1E"/><path d="M15.613 5.002c0 .688.56 1.248 1.248 1.248a1.25 1.25 0 001.248-1.248 1.25 1.25 0 00-1.248-1.249 1.25 1.25 0 00-1.248 1.249zm7.135 1.248a1.25 1.25 0 001.248-1.248 1.25 1.25 0 00-1.248-1.249 1.25 1.25 0 00-1.249 1.249c0 .688.56 1.248 1.249 1.248z" stroke="#211E1E"/></svg>